<svg width="39" height="39" viewBox="0 0 39 39" fill="none" xmlns="http://www.w3.org/2000/svg">
<circle cx="19.5" cy="19.5" r="19.5" fill="#FA942F"/>
<path d="M22.1318 7.46136C22.1798 7.77708 22.4692 7.98685 23.0297 8.1323C23.9997 8.35389 24.6815 9.44997 24.6311 10.6574C24.6128 11.3063 24.4766 11.4885 23.899 11.6918C22.7665 12.0948 22.5823 12.4228 23.1302 13.1008C23.8165 13.9193 24.8232 14.2276 26.1272 14.0292C28.1863 13.7159 28.6782 12.4875 27.015 11.8637C26.3424 11.5969 26.2566 11.4946 26.0816 10.3445C25.7728 8.31486 24.5534 7.06985 22.8353 7.00823C22.1512 6.97386 22.0666 7.03289 22.1318 7.46136Z" fill="black"/>
<path d="M21.6759 13.8531C21.5569 14.1481 21.4871 15.3816 21.5054 16.5786C21.5339 17.8433 21.3875 19.3422 21.1735 20.0901C20.3921 22.9546 18.293 25.466 15.6551 26.7441C13.7345 27.6593 10.3382 28.1068 8.24143 27.7105C7.22908 27.5184 9.62324 28.7924 11.2956 29.3224C16.9785 31.1343 22.9852 29.2283 26.5017 24.4939C28.5631 21.7345 29.3651 19.0053 29.1444 15.5548C29.0209 13.82 28.9877 13.7559 28.6034 13.9989C26.0524 15.5407 24.5539 15.5379 22.7043 13.9966L21.8715 13.2926L21.6759 13.8531Z" fill="black"/>
</svg>
