<svg width="58" height="27" viewBox="0 0 58 27" fill="none" xmlns="http://www.w3.org/2000/svg">
<rect width="58" height="27" rx="13.5" fill="#FA942F"/>
<path d="M14.0628 19L15.7428 8.425H16.7178L22.0128 17.47L21.7278 17.425L23.1528 8.425H24.3078L22.6278 19H21.6678L16.3728 9.955L16.6428 10L15.2178 19H14.0628ZM28.6438 19.135C27.8138 19.135 27.1238 18.97 26.5738 18.64C26.0338 18.3 25.6538 17.82 25.4338 17.2C25.2138 16.57 25.1688 15.835 25.2988 14.995C25.4288 14.225 25.6688 13.57 26.0188 13.03C26.3788 12.48 26.8338 12.06 27.3838 11.77C27.9438 11.48 28.5788 11.335 29.2888 11.335C29.9788 11.335 30.5488 11.485 30.9988 11.785C31.4588 12.085 31.7788 12.505 31.9588 13.045C32.1488 13.575 32.1888 14.195 32.0788 14.905L32.0188 15.34H26.1838L26.3038 14.575H31.3438L31.0738 14.785C31.1938 13.965 31.0988 13.335 30.7888 12.895C30.4788 12.455 29.9588 12.235 29.2288 12.235C28.6988 12.235 28.2438 12.355 27.8638 12.595C27.4838 12.825 27.1788 13.145 26.9488 13.555C26.7188 13.955 26.5638 14.41 26.4838 14.92L26.4388 15.28C26.3088 16.2 26.4388 16.91 26.8288 17.41C27.2288 17.9 27.8738 18.145 28.7638 18.145C29.2038 18.145 29.6338 18.08 30.0538 17.95C30.4738 17.81 30.8638 17.585 31.2238 17.275L31.6438 18.13C31.2438 18.45 30.7838 18.7 30.2638 18.88C29.7438 19.05 29.2038 19.135 28.6438 19.135ZM35.2151 19L33.6251 11.47H34.8551L36.1301 18.1H35.7401L39.2051 11.47H40.2401L41.5451 18.1H41.1701L44.5751 11.47H45.8351L41.8451 19H40.6751L39.2951 12.265H39.9251L36.4001 19H35.2151Z" fill="black"/>
</svg>
