<svg width="22" height="22" fill="none" xmlns="http://www.w3.org/2000/svg"><path d="M17.965.678c-.924.92-1.841 1.847-2.752 2.78-1.065 1.091.047 2.319.73 3.221.33.436.441.729.272 1.243-1.312 3.984-4.352 7.08-8.287 8.43-.505.172-.809.137-1.218-.172-.772-.584-1.864-1.654-2.905-1.1-.14.074-.355.258-.646.55-.817.822-1.632 1.646-2.446 2.471-.278.282-.458.501-.54.66-.338.644-.167 1.516.395 1.989.138.115.394.266.768.453 2.182 1.084 4.739.966 7.024.225 3.905-1.267 7.297-3.868 9.914-7.076 1.161-1.424 2.077-2.926 2.745-4.505 1.263-2.983 1.501-6.509-.457-9.25-.425-.595-1.343-.754-1.966-.436-.153.078-.363.25-.63.517zm.545.208c.396-.394.94-.491 1.405-.171.141.096.296.286.465.568 1.773 2.958 1.19 6.423-.309 9.353-1.903 3.722-5.05 6.812-8.642 8.865-3.01 1.72-7.112 2.914-10.35.958-.698-.42-.72-1.249-.166-1.807.938-.945 1.876-1.892 2.813-2.839.328-.33.633-.45 1.097-.282 1.16.42 1.71 1.858 3.255 1.329a13.746 13.746 0 008.58-8.602c.164-.482.227-.853.063-1.304-.307-.848-2.074-2.138-1.155-3.086A244.477 244.477 0 0118.51.886zM12.742.73C5.663-.468-.455 5.699.723 12.856c.083.506.604.404.526-.044C.073 6.08 5.874.154 12.547 1.237c.142.023.279.067.4-.01.15-.094.147-.352-.013-.443a.654.654 0 00-.192-.053z" fill="#F9EFD6"/><path d="M4.32 9.002c1.014-3.357 4.413-5.455 7.824-4.866.468.08.532-.456.116-.52-1.845-.288-3.546.031-5.104.957C4.454 6.18 3.044 9.357 3.6 12.443c.062.344.573.27.513-.114a7.402 7.402 0 01.209-3.327z" fill="#F9EFD6"/><path d="M11.765 7.05c.25.048.435-.468-.047-.544-3.147-.502-5.773 2.233-5.277 5.359.068.425.576.326.52-.038-.443-2.859 1.936-5.32 4.804-4.777z" fill="#F9EFD6"/></svg>