<svg width="39" height="39" viewBox="0 0 39 39" fill="none" xmlns="http://www.w3.org/2000/svg">
<circle cx="19.5" cy="19.5" r="19.5" fill="#FA942F"/>
<path d="M19.4195 12.1838C21.604 10.6747 22.7538 8.95006 22.8831 6.93797C22.955 5.88881 22.955 5.88881 23.2281 6.13314C23.6736 6.53555 25.1827 8.84946 25.7863 10.0423C26.5911 11.6664 27.3097 13.6929 27.669 15.3744C27.9277 16.5673 27.9996 17.3577 27.9996 19.183C28.014 22.2011 27.6547 23.8683 26.4905 26.254C24.5359 30.2351 20.598 32.2472 16.4444 31.4136C15.1941 31.1549 12.6933 30.2064 12.6071 29.962L11.9316 29.4446C11.9029 29.4159 11.6873 28.8985 11.4573 28.3093C9.96263 24.6587 9.6177 21.7556 10.4225 19.5854C11.2417 17.4152 12.6215 16.1217 16.4013 13.9947C17.4936 13.391 18.8446 12.5718 19.4195 12.1838Z" fill="black"/>
<path d="M12.0246 29.5012C12.0246 29.5011 12.0228 29.5008 12.0193 29.5006C12.023 29.5012 12.0247 29.5013 12.0246 29.5012ZM18.9941 23.9009L19.2266 23.8434C19.1932 23.797 19.1713 23.7497 19.157 23.7058C19.1038 23.7702 19.0494 23.8353 18.9941 23.9009ZM20.2409 21.2593C20.2631 21.3661 20.2815 21.4651 20.2951 21.5535C20.347 21.47 20.3988 21.3854 20.4506 21.2998C20.3844 21.3004 20.3124 21.2893 20.2409 21.2593ZM20.858 20.5431C20.858 20.5429 20.8567 20.5403 20.8542 20.5359C20.8568 20.5411 20.858 20.5433 20.858 20.5431ZM18.8102 17.9631C18.8102 17.9631 18.8106 17.9635 18.8113 17.9641C18.8106 17.9634 18.8102 17.963 18.8102 17.9631ZM14.369 23.5695C14.369 23.5699 14.3712 23.5729 14.3756 23.5778C14.3713 23.5716 14.3691 23.5692 14.369 23.5695Z" stroke="#FA942F"/>
</svg>
