<svg xmlns="http://www.w3.org/2000/svg" width="43" height="24" fill="none"><mask id="a" fill="#fff"><path d="M42.238 2.077v.155a4.5 4.5 0 01-.281 1.051c-.537 1.292-1.373 2.545-2.208 3.698-1.192 1.648-2.45 3.242-3.648 4.885-.525.721-.99 1.436-.597 2.31.121.27.219.444.294.523 1.988 2.09 4.209 3.816 5.853 6.36.208.322.344.577.407.766.562 1.665-.606 2.03-1.924 2.052-1.714.03-3.428.056-5.142.08-.254.003-.641.07-.88.031-1.598-.256-2.768-1.146-3.823-2.327a410.41 410.41 0 00-1.876-2.087c-.453-.5-1.61-1.571-2.34-1.098-.502.324-.853.81-1.055 1.454-.192.616-.292 1.128-.3 1.538-.013.76.066 1.642-.546 2.085a1.54 1.54 0 01-.908.314c-.954.005-1.907.008-2.86.01-.482 0-.858-.012-1.126-.037-1.672-.16-3.325-.713-4.78-1.538-1.334-.756-2.637-1.64-3.77-2.67-1.044-.95-2.038-2.298-2.67-3.126C4.78 12.216 2.122 7.184.127 2.58A2.373 2.373 0 010 2.082v-.231c.168-.611.803-.738 1.361-.742l6.002-.047c.175-.002.413.068.715.207.394.182.674.473.842.872a48.343 48.343 0 001.88 3.971c.806 1.519 1.547 3.137 2.66 4.461.512.613 1.393 1.495 2.297 1.066a.203.203 0 00.083-.073c.55-.861.59-1.69.71-2.663.169-1.38.148-2.766-.001-4.147-.072-.657-.188-1.335-.459-1.893-.37-.757-1.23-.997-1.988-1.148a.123.123 0 01-.093-.158.847.847 0 01.151-.275 2.717 2.717 0 011.66-.986c1.999-.371 4.167-.342 6.186-.185.826.065 2.12.161 2.48 1.058.227.562.33 1.15.31 1.76-.07 2.093-.122 4.187-.156 6.282-.002.15.02.451.064.903.056.574.344 1.464 1.018 1.569a.78.78 0 00.638-.187c.567-.468 1.14-.999 1.645-1.707a35.077 35.077 0 004.213-7.785c.21-.547.661-.892 1.267-.868l.268.011c2.3-.013 4.6-.043 6.902-.062.663-.005 1.542.174 1.584.992z"/></mask><path fill="#F9EFD6" d="M42.238 2.077h.8v-.041l-.8.04zm0 .155l.791.12.01-.06v-.06h-.8zm-.281 1.051l.739.307-.739-.307zm-2.208 3.698l-.648-.469.648.47zM36.1 11.866l-.646-.471.646.471zm-.597 2.31l.73-.327-.73.327zm.294.523l.58-.552h-.002l-.578.552zm5.853 6.36l-.672.435.672-.435zm.407.766l.759-.255v-.001l-.758.256zm-1.924 2.052l-.013-.8.013.8zm-5.142.08l.01.8h.001l-.011-.8zm-.88.031l.128-.79h-.001l-.127.79zm-3.823-2.327l.596-.533-.596.533zm-1.876-2.087l-.592.537.592-.537zm-2.34-1.098l-.436-.672.435.672zm-1.055 1.454l-.764-.239.764.24zm-.3 1.538l-.8-.014.8.014zm-.546 2.085l-.47-.649.47.649zm-.908.314l.004.8-.004-.8zm-2.86.01v.8h.002l-.002-.8zm-1.126-.037l-.076.797h.001l.075-.797zm-4.78-1.538l.394-.696-.394.696zm-3.77-2.67l.538-.592-.538.592zm-2.67-3.126l.636-.485-.636.485zM.127 2.58l.734-.318L.86 2.26l-.733.32zM0 2.082h-.8v.07l.012.068L0 2.082zm0-.231l-.771-.213-.029.105v.108H0zm1.361-.742l.006.8-.006-.8zm6.002-.047l-.005-.8h-.002l.007.8zm.715.207l-.336.726.336-.726zm.842.872l-.738.309.738-.31zm1.88 3.971l.707-.374-.707.374zm2.66 4.461l.612-.513-.613.513zm2.297 1.066l.342.723-.342-.723zm.083-.073l.672.435.002-.004-.674-.43zm.71-2.663l.794.098-.794-.098zm-.001-4.147l.795-.086-.795.086zm-.459-1.893l.72-.35h-.001l-.719.35zm-1.988-1.148l-.157.785h.001l.156-.785zm-.093-.158l.76.253v-.003l-.76-.25zm.151-.275l.618.508.002-.002-.62-.506zm1.66-.986l.145.787-.145-.787zm6.186-.185l.063-.797-.063.797zm2.48 1.058l-.741.299.742-.299zm.31 1.76l.8.027-.8-.027zm-.156 6.282l-.8-.013V9.2l.8.012zm.064.903l.796-.078-.796.078zm1.018 1.569l-.123.79h.001l.122-.79zm.638-.187l-.509-.617.51.617zm1.645-1.707l-.65-.466v.001l.65.465zm4.213-7.785l.746.289-.746-.289zm1.267-.868l-.033.8.033-.8zm.268.011v.8h.005l-.005-.8zm6.902-.062l-.006-.8h-.001l.007.8zm.784.992v.155h1.6v-.155h-1.6zm.01.035c-.052.339-.13.625-.23.865l1.478.612a5.31 5.31 0 00.333-1.237l-1.582-.24zm-.23.864c-.499 1.2-1.289 2.391-2.117 3.536l1.296.938c.84-1.161 1.724-2.477 2.299-3.86l-1.478-.614zM39.1 6.512c-.59.816-1.197 1.62-1.81 2.43-.612.809-1.231 1.624-1.835 2.453l1.293.942c.594-.814 1.203-1.617 1.817-2.429.613-.81 1.23-1.626 1.832-2.458L39.1 6.512zm-3.645 4.883c-.492.676-1.284 1.765-.68 3.109l1.459-.655c-.182-.405-.045-.745.514-1.512l-1.293-.942zm-.68 3.109c.114.256.26.555.444.747l1.157-1.105c.02.022.028.033.022.024a3.47 3.47 0 01-.163-.321l-1.46.655zm.443.746c.993 1.044 2.108 2.061 3.07 3.024.991.994 1.913 2.016 2.691 3.22l1.344-.869c-.866-1.34-1.877-2.453-2.904-3.481-1.056-1.059-2.046-1.95-3.041-2.997l-1.16 1.103zm5.761 6.244c.199.307.29.494.322.587l1.515-.512c-.096-.286-.276-.608-.493-.944l-1.344.869zm.321.586c.114.337.111.526.094.616a.206.206 0 01-.086.141c-.16.126-.54.23-1.187.24l.026 1.6c.671-.01 1.535-.1 2.147-.58.337-.263.582-.633.672-1.102.085-.448.018-.93-.15-1.425l-1.516.51zm-1.18.997c-1.713.03-3.426.056-5.14.08l.023 1.6c1.715-.024 3.43-.05 5.144-.08l-.027-1.6zm-5.139.08c-.16.002-.38.024-.496.034a2.884 2.884 0 01-.18.009.52.52 0 01-.065-.002l-.255 1.58c.225.036.471.02.623.008.2-.016.301-.028.394-.03l-.02-1.6zm-.742.041c-1.345-.215-2.361-.959-3.354-2.07l-1.193 1.066c1.118 1.252 2.441 2.287 4.294 2.584l.253-1.58zm-3.354-2.07a415.17 415.17 0 00-1.88-2.092l-1.184 1.076c.371.408.995 1.102 1.871 2.083l1.193-1.067zm-1.879-2.092c-.25-.276-.711-.73-1.238-1.056a2.814 2.814 0 00-.936-.388 1.605 1.605 0 00-1.195.212l.87 1.343c-.033.022-.047.002.025.016.086.017.219.069.393.177.348.215.693.548.896.771l1.185-1.075zm-3.369-1.232c-.678.44-1.133 1.09-1.383 1.887l1.527.478c.154-.492.402-.812.726-1.022l-.87-1.343zm-1.383 1.887c-.203.652-.326 1.246-.335 1.763l1.6.028c.005-.303.081-.734.263-1.313l-1.527-.478zm-.335 1.764c-.008.447.007.752-.04 1.05-.042.266-.114.354-.176.4l.937 1.296c.55-.397.745-.971.82-1.447.07-.444.053-.96.058-1.272l-1.6-.027zm-.216 1.45a.743.743 0 01-.443.162l.008 1.6a2.337 2.337 0 001.372-.466l-.937-1.296zm-.443.162c-.953.005-1.905.008-2.858.01l.004 1.6c.954-.002 1.908-.005 2.862-.01l-.008-1.6zm-2.857.01c-.473 0-.82-.012-1.05-.033l-.15 1.593c.306.028.71.04 1.202.04l-.002-1.6zm-1.049-.033c-1.55-.149-3.096-.664-4.462-1.438l-.788 1.392c1.544.875 3.304 1.467 5.098 1.639l.152-1.593zm-4.462-1.438c-1.298-.735-2.549-1.586-3.626-2.566l-1.076 1.184c1.188 1.081 2.544 1.998 3.914 2.774l.788-1.392zm-3.626-2.566c-.977-.889-1.921-2.167-2.572-3.02l-1.272.972c.614.803 1.658 2.222 2.768 3.232l1.076-1.184zm-2.572-3.02C5.467 11.798 2.84 6.83.86 2.261l-1.468.636c2.01 4.642 4.698 9.736 8.03 14.095l1.27-.972zM.86 2.26c.002.003-.008-.018-.023-.079a3.216 3.216 0 01-.049-.236l-1.576.276c.042.24.097.485.182.68L.86 2.259zM.8 2.082v-.231H-.8v.231H.8zm-.029-.019c.009-.03.016-.037.017-.038a.198.198 0 01.065-.039c.104-.045.276-.075.514-.077L1.355.31C1.035.312.61.347.215.52a1.688 1.688 0 00-.986 1.12l1.542.424zm.596-.154l6.002-.047-.013-1.6-6 .047.011 1.6zm6-.047c-.014 0 .01-.002.083.019.07.02.166.056.292.114L8.414.543c-.33-.152-.7-.284-1.056-.281l.01 1.6zm.376.134c.212.098.349.24.439.454l1.475-.618A2.416 2.416 0 008.413.543l-.67 1.453zm.439.454a49.165 49.165 0 001.913 4.037l1.413-.75a47.532 47.532 0 01-1.85-3.906l-1.476.619zm1.912 4.037c.774 1.46 1.57 3.192 2.754 4.6l1.225-1.028c-1.041-1.24-1.728-2.743-2.565-4.321l-1.413.75zm2.753 4.6c.269.321.685.778 1.197 1.092.524.321 1.268.557 2.056.183l-.685-1.445c-.115.054-.264.064-.535-.102-.282-.173-.562-.464-.807-.755l-1.226 1.027zm3.254 1.275c.168-.08.31-.205.412-.361l-1.344-.869a.599.599 0 01.246-.215l.686 1.445zm.414-.365c.67-1.049.718-2.094.83-2.996l-1.588-.196c-.129 1.042-.16 1.657-.59 2.33l1.348.862zM17.345 9c.178-1.451.155-2.9 0-4.33l-1.59.172c.143 1.332.162 2.656.001 3.964L17.345 9zm0-4.33c-.073-.672-.2-1.467-.535-2.157l-1.438.7c.207.426.312.987.382 1.63l1.591-.173zm-.535-2.157c-.563-1.154-1.831-1.44-2.552-1.582l-.31 1.569c.795.158 1.248.353 1.424.714l1.438-.701zM14.26.93a.677.677 0 01.26.113l-.93 1.302a.923.923 0 00.356.154L14.26.93zm.26.113a.677.677 0 01.192.21l-1.382.806c.066.113.155.21.26.286l.93-1.302zm.192.21a.678.678 0 01.089.272l-1.592.164c.014.13.055.257.12.37l1.383-.806zm.089.272a.68.68 0 01-.032.284l-1.518-.506a.92.92 0 00-.042.386l1.592-.164zm-.03.281a.045.045 0 01.008-.017L13.543.773c-.13.16-.228.34-.292.533l1.52.501zm.01-.02a1.918 1.918 0 011.183-.704l-.29-1.574A3.517 3.517 0 0013.541.776l1.239 1.012zm1.184-.704c1.899-.353 3.987-.33 5.978-.174l.124-1.595c-2.047-.16-4.295-.194-6.394.196l.292 1.573zm5.977-.174c.43.034.87.07 1.244.184.377.115.51.255.558.375L25.228.87c-.313-.778-1.007-1.134-1.574-1.308-.57-.174-1.19-.218-1.586-.25L21.942.91zm1.802.56c.184.457.268.933.252 1.433l1.599.054A5.077 5.077 0 0025.228.87l-1.484.598zm.252 1.433c-.07 2.098-.123 4.197-.157 6.296l1.6.026c.034-2.09.085-4.18.156-6.268l-1.6-.054zM23.839 9.2c-.003.203.024.55.068.994l1.592-.157a9.857 9.857 0 01-.06-.813l-1.6-.024zm.068.993c.035.362.142.835.367 1.258.22.414.632.916 1.324 1.023l.246-1.58-.006-.002a.131.131 0 01-.026-.02.616.616 0 01-.125-.172 1.907 1.907 0 01-.188-.662l-1.592.155zm1.692 2.282a1.58 1.58 0 001.27-.361l-1.02-1.234a.169.169 0 01-.023.017c-.003.002-.002 0 .003 0a.059.059 0 01.014-.003c.004 0 .004 0 0 0l-.244 1.58zm1.27-.361c.592-.489 1.224-1.07 1.786-1.859l-1.302-.93c-.448.628-.962 1.109-1.503 1.555l1.018 1.234zm1.786-1.858a35.875 35.875 0 004.308-7.962l-1.493-.577a34.282 34.282 0 01-4.116 7.607l1.3.932zm4.308-7.963c.104-.27.268-.365.488-.356l.065-1.599c-.99-.04-1.728.554-2.046 1.38l1.493.575zm.488-.356l.3.011v-1.6a.76.76 0 01.016 0h.009a4.31 4.31 0 01-.062-.002l-.198-.008-.065 1.599zm.306.011c2.3-.013 4.608-.043 6.903-.062l-.013-1.6c-2.307.02-4.599.049-6.9.062l.01 1.6zm6.903-.062c.279-.002.525.039.676.11a.248.248 0 01.09.061.032.032 0 01.005.01.186.186 0 01.008.052l1.598-.082c-.04-.767-.505-1.244-1.015-1.486-.465-.221-.99-.267-1.374-.265l.011 1.6z" mask="url(#a)"/></svg>