<svg width="58" height="58" fill="none" xmlns="http://www.w3.org/2000/svg"><circle cx="29" cy="29" r="29" fill="#FA942F"/><path d="M23.76 18.78h0c-.004-.64.02-1.123.07-1.444h0c.554-3.457 4.142-5.463 7.34-4.005 1.918.873 3.069 2.82 3.06 4.916-.004 1-.003 2 .004 3.001 1.446-.005 2.89-.004 4.328.002h0c.17 0 .323.032.433.143.107.107.145.26.162.423l1.982 19.233M23.759 18.78l-6.742 22.833-.148.025c.07.407.3.783.607 1.056.307.274.7.456 1.103.456h20.516c.329 0 .599-.031.803-.101h0c.84-.289 1.335-1.087 1.24-2M23.76 18.78c.004.821.004 1.643 0 2.464-2.016.006-3.466.006-4.352.001h0c-.17 0-.317.042-.421.157-.098.108-.135.256-.15.407h0c-.648 6.276-1.294 12.551-1.94 18.826L23.76 18.78zm17.38 22.27l-.15.015.15-.016s0 0 0 0zm-7.866-16.752h0a316.64 316.64 0 01-.013-2.076H24.73c.001.668 0 1.336 0 2.006v0a.605.605 0 01-.145.418.465.465 0 01-.338.15.473.473 0 01-.485-.482s0 0 0 0h.15l9.362-.017zm0 0a.523.523 0 00.15.379c.094.09.218.132.34.124.257-.018.465-.242.466-.592.002-.664.002-1.326.001-1.987h4c.646 6.293 1.293 12.591 1.942 18.893l.149-.015-.15.015c.043.415-.07.667-.251.82-.19.161-.485.24-.85.24-6.7-.002-13.399-.002-20.099 0-.294 0-.543-.036-.732-.133-.181-.093-.32-.248-.387-.52h0c-.032-.13-.035-.38.005-.769h0m15.416-16.456L17.857 40.754m0 0c.64-6.176 1.28-12.354 1.918-18.53h3.986l-5.904 18.53zm5.902-19.397s0 0 0 0v0zm9.501.751v0zm.006-.86H24.72v-3.05c0-1.16.451-2.273 1.253-3.093a4.222 4.222 0 013.019-1.28h.004c1.132 0 2.218.46 3.02 1.28a4.425 4.425 0 011.251 3.093v3.05z" fill="#000" stroke="#000" stroke-width=".3"/></svg>