<svg width="119" height="112" fill="none" xmlns="http://www.w3.org/2000/svg"><path d="M57.777.185c-3.055.676-5.355 2.73-6.382 5.72-.3.883-.351 1.26-.364 2.534-.026 2.521.689 4.276 2.456 6.056.832.845 1.261 1.17 2.145 1.6 1.612.78 2.496.961 4.224.883 2.366-.104 4.043-.832 5.654-2.43.95-.962 1.573-1.924 2.054-3.224.26-.702.338-1.183.39-2.43.065-1.82-.117-2.704-.858-4.225-.702-1.442-2.3-3.028-3.795-3.756-1.794-.87-3.718-1.13-5.524-.728zm3.756.923c1.989.481 4.042 2.132 4.926 3.951.715 1.469.91 2.405.832 4.03-.078 1.69-.403 2.677-1.313 4.016-1.482 2.183-3.808 3.392-6.486 3.392-2.222 0-3.95-.728-5.55-2.326-1.546-1.56-2.261-3.289-2.261-5.472 0-2.093.689-3.848 2.092-5.33 2.08-2.209 4.784-2.989 7.76-2.261z" fill="#F9EFD6"/><path d="M58.557 1.29c-2.457.325-4.68 1.924-5.72 4.094-.571 1.222-.78 2.119-.753 3.445.052 4.042 3.34 7.278 7.409 7.278 2.08 0 3.743-.701 5.25-2.196 1.495-1.495 2.197-3.172 2.197-5.212 0-4.484-3.964-7.98-8.383-7.409zm-1.092.65c.325.182.325.728-.013.91-.585.312-1.118-.572-.546-.897.273-.169.26-.169.559-.013zm2.313.325c.403.195.533.429.533.91 0 .403-.208.533-.298.195-.143-.533-.352-.247-.352.48 0 1.028-.454 1.508-.961 1.002-.143-.13-.208-.442-.208-.975 0-.78-.104-.923-.39-.572-.143.169-.195.169-.273.039-.195-.3-.13-.507.26-.897.442-.429 1.079-.507 1.69-.182zm3.445.377c.48.208.988.78.988 1.13 0 .378-.221.287-.364-.142-.17-.468-.845-.91-1.404-.91-.559 0-1.26.494-1.417 1.014-.143.48-.325.546-.325.104 0-.65.897-1.365 1.729-1.378.195 0 .546.078.793.182zm-6.59.338c.104 0 .364.169.572.377.39.39.507.78.22.74-.09 0-.168.04-.168.118 0 .065.104.117.234.104.273-.04.273.09.039.65-.247.584-.624.883-1.222.961-.897.117-1.715-.624-1.715-1.56 0-.714 1.078-1.65 1.663-1.442.104.026.26.052.377.052zm6.59.65c.143.143.234.286.195.312-.026.039-.52.104-1.092.156l-1.04.09.208-.311c.442-.663 1.196-.767 1.729-.247zm2.028.845c.324.39-.144.935-.663.78-.56-.183-.39-.975.208-.975a.69.69 0 01.454.195zM54.618 6.047c.13.364.182.403.39.273.481-.312 1.014.442.572.806-.26.221-.78.13-.832-.143-.026-.13-.246-.429-.493-.676-.364-.364-.442-.533-.442-1v-.56l.325.442c.181.247.39.637.48.858zm8.943-1.053c.48.247.78.806.78 1.443 0 .69-.69 1.352-1.417 1.352-1.014 0-1.573-.546-1.573-1.534 0-1.13 1.17-1.793 2.21-1.26zm-2.873.897c.585.962.377 1.391-.299.585-.39-.455-.507-1.456-.143-1.157.104.091.3.338.442.572zm-2.495-.325c.416-.35.598.598.182.975-.546.507-1.144-.182-.806-.923.143-.325.182-.338.299-.13.104.195.156.208.325.078zm7.408.767c.104.728-.039 1.274-.272 1.066-.286-.22-.364-.74-.208-1.326.181-.624.376-.52.48.26zm-5.316.676c.806.494 1.144 1.482.78 2.275-.078.182-.22.325-.312.325-.143 0-.13-.091.026-.442.403-.832-.065-1.885-.936-2.106-.195-.052-.584-.039-.857.04-.507.142-.663.025-.26-.209.364-.22 1.105-.156 1.56.117zm-6.07.26l.313.247-.286.013c-.52 0-.416.208.299.559.558.273.701.416.701.663 0 .169-.09.377-.208.48-.169.13-.312.105-.922-.194-.78-.377-.923-.377-.69.039.118.234.105.273-.116.273-.338 0-.663-.481-.663-.988 0-.455.403-1.053.832-1.222.39-.156.403-.156.74.13zm1.911.52c-.065.845-.286 1.248-.494.91-.182-.286-.156-.871.065-1.3.325-.637.494-.48.43.39zm2.158-.247c.22.182.338.39.338.637 0 .416-.195.624-.312.325-.13-.364-.3-.195-.481.48-.156.573-.234.703-.494.729-.52.078-.676-.273-.455-.988.234-.793.234-.845-.065-.69-.442.248-.546-.103-.143-.506.351-.35 1.157-.35 1.612.013zm1.832.312c.312.299.442.949.234 1.157-.117.104-1.338-1.092-1.338-1.313 0-.299.767-.195 1.104.156zm6.122.507c.351.35.442.546.442.936 0 .48-.286.961-.585.961-.104 0-.13-.13-.09-.324.077-.43-.014-.416-.754.13-.663.48-.897.545-1.144.299-.338-.338-.17-.741.494-1.235.636-.481.715-.69.247-.69-.312 0-.325-.207-.013-.376.442-.273.948-.156 1.403.299zm-3.483.104c-.026.09.065.156.195.156.325-.026.273.377-.091.715-.442.416-.988.299-.988-.208 0-.182.091-.455.221-.585.234-.26.702-.325.663-.078zm-3.12.845c.04.364-.012.429-.298.507-.377.09-.715-.13-.715-.455s.286-.546.65-.507c.26.026.337.117.364.455zm-3.262.507c.026.09-.13.143-.455.13-1.338-.026-2.066 1.663-1.118 2.612.364.364.338.52-.052.312-.298-.156-.675-.897-.675-1.339 0-.546.545-1.456 1.04-1.702.48-.247 1.182-.247 1.26-.013zm5.888 0c0 .299-1.053 1.221-1.39 1.221-.196 0-.092-.35.207-.702.286-.337 1.183-.727 1.183-.52zm-8.188.935c-.065.286-.247.663-.39.832l-.247.3-.013-.612c0-.468.078-.688.35-1.027.43-.493.533-.324.3.507zm5.355-.377c.39.442.455.65.208.611-.092 0-.17.04-.17.117 0 .065.078.117.17.117.194-.026.207.481 0 .923-.195.442-.728.715-1.391.715-1.027 0-1.716-1.105-1.313-2.093.403-.974 1.78-1.182 2.496-.39zm-3.315.17c-.533 1.325-.793 1.78-.936 1.663-.247-.195-.325-.78-.156-1.13.208-.469 1.274-.976 1.092-.534zm7.968.428c.48.247.78.806.78 1.443 0 .364-.104.572-.442.91-.377.377-.533.442-1.053.442-.52 0-.676-.065-1.053-.442-.377-.377-.442-.533-.442-1.053 0-.52.065-.676.442-1.053.507-.507 1.118-.585 1.768-.247zm1.95 0c.194.234.13.585-.157.767-.429.26-.896-.26-.701-.78.09-.234.65-.234.857.013zm-9.034 1.495c.221.247.221.26.013.26-.156 0-.208.091-.182.286.052.377-.312.455-.74.182-.352-.234-.443-.793-.157-.897.364-.156.845-.078 1.066.17zm4.198.26c.338.325.39.676.065.559-.169-.065-.195-.026-.143.195.065.208.026.286-.143.286-.403 0-.793-.39-.793-.78 0-.559.546-.702 1.014-.26zm-5.563.78c.312.572-.494 1.079-.91.585-.13-.156-.13-.273-.026-.52.182-.403.728-.442.936-.065zm4.017.078c.337.416.364 1.3.065 1.716-.286.415-.78.585-1.131.402l-.273-.155.286-.104c.403-.156.364-.377-.065-.377-1.196 0-1.768-.364-1.469-.91.117-.221.273-.26 1.066-.26.884 0 .91-.013.715-.234-.312-.338-.273-.416.156-.416.26 0 .468.117.65.338zm2.872.286c0 .052-.208.312-.468.572-.715.754-1.404.858-.884.13.351-.468 1.352-.988 1.352-.702z" fill="#F9EFD6"/><path d="M56.854 2.265c-.052.117-.026.273.052.351.208.208.61.065.61-.22 0-.339-.545-.443-.662-.13zm-1.3 1.287c-.104.286.04.429.234.234.117-.117.117-.195 0-.312-.117-.117-.169-.091-.234.078zm.923-.052c-.052.078-.039.208.039.286.078.078.156.078.22-.026.053-.078.04-.208-.038-.286-.078-.078-.156-.078-.221.026zm-1.56.78c-.052.077-.039.207.04.285.077.078.155.078.22-.026.052-.078.04-.208-.039-.286-.078-.078-.156-.078-.22.026zm.78.116c-.09.156.156.312.325.208.143-.091.052-.325-.13-.325-.065 0-.143.052-.195.117zm.871.455c.013.13.104.221.169.221.195-.013.156-.312-.039-.377-.117-.039-.169.026-.13.156zm-1.261.325c-.09.156.156.312.325.208.143-.09.052-.325-.13-.325-.065 0-.143.052-.195.117zm1.04.144c-.143.22.065.415.273.246.091-.078.143-.195.104-.26-.091-.155-.273-.143-.377.013zm8.214-.833c-.156.156-.104.546.078.61.273.105.507-.103.455-.376-.039-.247-.377-.39-.533-.234zm-9.54 1.963c-.234.091-.208.546.039.65.104.039.299-.013.403-.13.169-.169.182-.247.039-.403-.169-.22-.221-.234-.481-.117zm7.175-1.014c-.091.156.156.312.325.208.143-.091.052-.325-.13-.325-.065 0-.143.052-.195.117zm.91 0c-.091.156.156.312.325.208.143-.091.052-.325-.13-.325-.065 0-.143.052-.195.117zm.78.534c-.052.077-.04.207.039.285.078.078.156.078.22-.026.053-.078.04-.208-.038-.285-.078-.078-.156-.078-.221.026zm-2.34.246c-.091.156.156.312.325.208.143-.091.052-.325-.13-.325-.065 0-.143.052-.195.117zm.923-.026c-.143.143-.078.3.117.3.104 0 .195-.053.195-.118 0-.169-.208-.286-.312-.182zm.767.43c-.13.22.156.48.325.311.104-.104.078-.195-.052-.299-.13-.117-.208-.117-.273-.013zm-1.157.35c-.143.143-.078.299.117.299.104 0 .195-.052.195-.117 0-.169-.208-.286-.312-.182zm.975.22c-.117.13-.117.209-.013.274.221.13.48-.156.312-.325-.104-.104-.195-.078-.299.052zm-4.173 1.964c-.143.17-.143.247.04.416.272.273.636.117.584-.247-.052-.364-.39-.455-.624-.169zm-1.104 1.364c-.052.078-.04.208.039.286.078.078.156.078.22-.026.053-.078.04-.208-.038-.286-.078-.078-.156-.078-.221.026zm.923-.038c-.144.142-.079.298.116.298.104 0 .195-.052.195-.117 0-.169-.208-.286-.312-.182zm-1.703.805c-.09.156.156.312.325.208.143-.09.052-.325-.13-.325-.065 0-.143.052-.195.117zm.91 0c-.091.156.156.312.324.208.143-.09.052-.325-.13-.325-.065 0-.142.052-.194.117zm.909.403c-.09.156.026.39.208.39.156 0 .156-.35 0-.455-.065-.039-.156-.013-.208.065zm-1.299.377c-.091.156.156.312.325.208.143-.091.052-.325-.13-.325-.065 0-.143.052-.195.117zm1.04.143c-.052.078-.04.208.039.286.078.078.156.078.22-.026.052-.078.04-.208-.038-.286-.078-.078-.156-.078-.221.026zm4.159-.793c-.091.156.156.312.325.208.143-.091.052-.325-.13-.325-.065 0-.143.052-.195.117zm.91 0c-.091.156.156.312.325.208.143-.091.052-.325-.13-.325-.065 0-.143.052-.195.117zm.78.532c-.053.079-.04.209.038.287.078.078.156.078.221-.027.052-.078.04-.208-.039-.286-.078-.077-.156-.077-.22.027zm-2.34.248c-.091.156.156.312.325.208.143-.091.052-.325-.13-.325-.065 0-.143.052-.195.117zm.923-.026c-.143.143-.078.299.117.299.104 0 .195-.052.195-.117 0-.17-.208-.286-.312-.182zm.766.429c-.13.221.156.481.325.312.105-.104.079-.195-.052-.299-.13-.117-.208-.117-.273-.013zm-1.156.351c-.143.143-.078.299.117.299.104 0 .195-.052.195-.117 0-.17-.208-.286-.312-.182zm1.027.168c-.052.078-.04.208.039.286.078.078.156.078.22-.026.053-.078.04-.208-.038-.286-.078-.077-.156-.077-.221.026zm1.664-2.001c-.04.104.025.3.142.416.182.195.234.195.403.013.117-.117.17-.299.117-.416-.104-.273-.559-.286-.663-.013zM54.904 13.56c-.117.312.052.624.3.572.155-.026.233-.156.233-.364 0-.377-.416-.533-.533-.208z" fill="#F9EFD6"/><path d="M75.376 7.84c-.507.156-.897.793-.897 1.456 0 .598.61 1.69 1.208 2.184.3.247 1.222.806 2.041 1.247 2.132 1.157 2.808 1.625 3.834 2.665 2.028 2.04 2.743 4.705 1.885 6.993-.364.987-.702 1.403-.39.48.845-2.456-.61-5.692-3.067-6.771-.858-.39-2.275-.481-2.717-.195-.39.26-.429.728-.065 1.053.234.208.338.22.923.09.74-.181 2.054-.207 2.418-.064.168.078.038.117-.416.169-.611.065-.65.09-.69.468-.064.623.196.753 1.145.545.714-.143.831-.13 1.234.078.247.143.455.3.455.364 0 .065-.13.026-.286-.078-.728-.442-1.326-.35-1.248.195.04.273.13.325.702.377.69.065 1.001.247 1.235.69.13.22.104.22-.247-.04-.468-.35-.845-.273-.78.156.026.234.143.312.455.338.65.065.988.585.884 1.326-.195 1.378-.87 2.625-1.78 3.262l-.43.3.364-.482c.546-.728.741-1.3.741-2.21 0-.662-.078-.987-.403-1.624-.727-1.482-1.793-2.132-4.25-2.626-1.456-.299-1.846-.506-1.846-1.026 0-.3.066-.39.377-.442.637-.13.69-.923.065-1.08-.48-.116-1.052.17-1.286.677-.26.559-.156.988.403 1.468.507.455.974.598 2.586.793 1.378.17 2.275.546 2.963 1.248 1.638 1.65 1.521 4.03-.22 5.212-.533.364-.741.43-1.378.43-.871 0-1.69-.26-2.3-.729-.69-.533-.794-.858-.443-1.546.221-.442.26-.637.156-.82-.195-.35-.442-.428-.819-.22-.325.156-.325.156-.234-.273.144-.611.715-1.547 1.144-1.846 1.092-.78 2.483-.61 3.38.416 1.026 1.17.793 2.808-.52 3.47-.533.273-.56.273-.975.04-.624-.326-.546-.755.22-1.287.729-.507.91-.95.599-1.417-.247-.39-.793-.442-1.378-.143-.767.39-1.092 1.638-.676 2.573.312.715.78.923 1.807.845.65-.052.78-.117 1.222-.585 1.338-1.43.831-3.782-.988-4.6-1.053-.482-2.418-.196-3.354.701-1.494 1.456-1.637 3.6-.338 5.082.637.728 1.482 1.17 3.458 1.82.806.273 1.586.585 1.729.702.233.208.246.247.078.572-.17.311-.17.39 0 .558.26.26.39.247.701-.064.663-.663 0-1.56-1.546-2.08-.507-.182-.871-.338-.806-.364.22-.078 3.964.377 4.822.585.988.234 2.495.923 3.054 1.39l.39.338-.65-.285c-.87-.377-2.144-.377-2.872 0-.923.467-1.573 1.468-1.26 1.95.402.649 1.026.52 1.468-.313.403-.754.988-1.092 1.898-1.092 1.052 0 2.053.533 2.456 1.3.247.468.247 1.56.013 2.119-.598 1.416-2.3 1.416-2.794 0-.17-.481-.17-.572.026-.871.364-.546 1.052-.39.74.169-.337.637.507 1.339 1.04.858.455-.416.56-1.547.182-2.119-.286-.429-1.027-.715-1.586-.61-.597.116-1.26.78-1.468 1.481-.338 1.118.338 2.366 1.52 2.82.676.26 1.274.17 1.937-.285l.494-.325-.377.623c-.195.338-.61.962-.923 1.391-.546.741-.559.754-.559.351 0-.507-.273-1.183-.572-1.43-.454-.377-1.26.377-.974.923.065.117.273.3.468.39.181.091.377.286.428.442.091.234.066.26-.272.208-.325-.052-.377-.013-.377.247.013.169.09.455.195.637.22.377.272 2.6.065 2.6-.065 0-.13-.04-.13-.105 0-.194-2.288-3.145-3.315-4.263-2.222-2.443-5.758-5.082-8.8-6.59-2.703-1.325-5.536-2.261-8.668-2.833-1.807-.338-6.395-.48-8.332-.26-5.979.676-11.555 3.003-16.182 6.733-2.314 1.871-5.043 4.9-6.395 7.096l-.494.793-.09-1.3c-.079-1.13-.066-1.351.155-1.82.377-.779.351-1-.13-.935-.22.039-.39.039-.39.013 0-.208.325-.585.65-.754.468-.247.52-.715.13-1.105-.338-.337-.546-.325-.87.026-.313.338-.442.715-.455 1.274-.014.208-.026.39-.04.39-.065 0-1.26-1.729-1.572-2.274l-.364-.65.468.416c2.092 1.806 4.978-1.443 3.015-3.406-.728-.728-1.716-.715-2.404.013-.832.884.065 2.964.949 2.17.208-.194.247-.337.181-.78-.065-.493-.038-.558.17-.558.74 0 .896 1.027.26 1.742-.975 1.117-2.327.48-2.64-1.248-.26-1.456.989-2.704 2.691-2.704.871 0 1.43.338 1.911 1.17.403.69.858.832 1.3.39.338-.338.273-.767-.221-1.417-.69-.896-2.327-1.221-3.678-.74l-.585.207.325-.272c1.052-.884 2.885-1.443 5.667-1.742 2.443-.26 2.508-.247 1.312.182-1.222.442-1.78.923-1.78 1.534 0 .312.09.48.337.636.313.208.339.208.546 0 .182-.169.182-.26.052-.468-.078-.142-.156-.337-.156-.441 0-.234.82-.611 2.119-1.001 2.17-.637 3.223-1.339 3.795-2.522.871-1.767.013-4.107-1.82-4.952-.883-.416-1.65-.403-2.547.04-1.027.532-1.443 1.182-1.508 2.404-.052.819-.013 1.026.247 1.533.455.845 1.001 1.17 1.937 1.17.65 0 .819-.052 1.183-.377.35-.312.416-.468.468-1.143.078-1.17-.39-1.924-1.326-2.08-1-.156-1.339.793-.533 1.508.26.22.52.402.598.402.065 0 .195.157.273.338.143.312.13.377-.221.65-.455.377-.819.325-1.469-.156-1.248-.961-1.027-2.911.442-3.769 1.404-.819 2.95-.234 3.678 1.378.364.793.351.936-.038.78a.593.593 0 00-.585.078c-.351.247-.338.48 0 1.091l.285.494-.285.468c-.195.3-.546.585-1.08.845-2.248 1.13-4.444-.182-4.457-2.651 0-.767.065-1.014.39-1.6.74-1.35 1.871-2.027 3.73-2.235 2.157-.247 3.093-.767 3.093-1.741 0-.832-.897-1.47-1.56-1.118-.441.234-.298.819.234.975.312.09.416.195.416.416 0 .532-.403.767-1.897 1.065-1.859.39-2.756.793-3.51 1.6-.818.87-1.143 1.65-1.143 2.703 0 .884.299 1.676.884 2.326.26.286.26.3.013.17-.91-.482-1.872-2.107-1.976-3.38-.078-.91.104-1.196.819-1.313.39-.065.52-.143.546-.377.065-.403-.3-.507-.806-.22l-.403.233.377-.403c.312-.338.494-.416 1.04-.442.558-.039.662-.078.701-.312a.519.519 0 00-.169-.442c-.181-.143-.312-.13-.883.104-.65.26-.663.273-.364.026.442-.377.858-.442 1.663-.273.793.182 1.08.065 1.08-.441 0-.468-.313-.624-1.08-.56-.65.066-.662.053-.286-.103.494-.221 1.586-.221 2.56-.026.638.13.78.13.937-.026.338-.364.364-.754.065-1.053-.247-.247-.377-.273-1.274-.221-1.183.078-1.95.403-2.86 1.222-1.273 1.143-1.988 2.703-1.988 4.34 0 .573.078 1.21.208 1.56.182.507.182.546.013.326-.351-.455-.715-1.872-.715-2.782 0-3.08 1.963-5.563 6.109-7.695 2.378-1.221 3.47-2.612 3.106-3.925-.195-.702-.572-1-1.286-1-.91 0-1.521.558-1.352 1.234.13.533.507.65 1.027.325.441-.273.441-.273.572-.013.506.936-.352 1.976-2.86 3.444-3.041 1.807-4.575 3.497-5.251 5.85-.455 1.572-.078 4.094.793 5.237.182.247.312.468.286.494-.026.026-.572-.273-1.209-.676-1.482-.935-3.275-1.78-4.354-2.066-1.248-.325-2.886-.3-3.704.065-.793.35-1.21.728-1.456 1.287-.364.87.247 1.338.637.493a5.11 5.11 0 01.623-.896c1.222-1.404 3.965-1.08 7.331.87l2.353 1.352c1.014.572.806.494-1.768-.61-2.612-1.118-4.016-1.508-5.121-1.404-1.56.155-2.587.753-2.742 1.611-.247 1.339 1.078 2.366 2.08 1.586.61-.48.35-1.417-.39-1.417-.365 0-.378-.026-.118-.52.286-.546.897-.819 1.82-.819 1.248 0 2.314.312 4.614 1.378l.715.338h-.728c-1.573.026-2.587.611-2.587 1.508 0 .767.494.702.82-.091.116-.273.402-.611.636-.754.364-.234.572-.273 1.404-.22.533.038 1.469.207 2.08.389l1.104.312-.65.09c-2.781.365-4.64.937-5.666 1.769l-.468.364.13-.56c.104-.454.09-.636-.117-1.052-.442-.897-1.651-1.235-2.015-.56-.22.43-.039.885.468 1.119.247.117.48.299.52.39.039.117-.065.09-.273-.078-.598-.468-1.092-.286-1.092.403 0 .273.078.402.325.494.39.155.52.415.351.727-.117.195-.13.195-.221-.09-.117-.352-.286-.508-.598-.508-.338 0-.403.377-.117.611.39.338.312.533-.286.702-.78.208-1.56.078-2.833-.468-.611-.26-1.456-.559-1.885-.663-3.132-.727-6.174.715-7.37 3.523-.117.286-.22.442-.22.338-.026-.364.792-1.833 1.338-2.43.702-.794 1.69-1.392 3.237-1.976 1.117-.43 1.3-.455 2.755-.468.858 0 2.002.013 2.548.052.793.039 1.066 0 1.338-.17.377-.26.468-.571.117-.402-.13.052-1.17.117-2.313.143l-2.08.039.455-.247c1.209-.663 1.78-1.872 1.17-2.483-.351-.35-.975-.286-1.326.143-.299.364-.299.676.026.962.208.182.286.195.455.065.156-.13.208-.117.273.039.208.559-.65 1.118-3.067 1.976-1.677.598-1.963.74-2.834 1.39-2.015 1.508-2.95 4.315-2.158 6.538.143.403-.584-.572-.935-1.26a2.839 2.839 0 01-.312-1.222c0-.533.065-.676.52-1.17.598-.65.61-.741.26-1.092-.338-.338-.43-.325-.95.13a1.958 1.958 0 00-.597 1.924c.182.806.143.78-.507-.3-.533-.922-.663-1.04-1.027-1.078-.325-.026-.455.026-.624.286-.286.429-.104.754.69 1.26.675.43.675.442-.04.183-.702-.247-1.572-.247-2.352.026-.91.312-2.015 1.442-2.327 2.378-.364 1.13-.962 2.17-1.573 2.73-.598.545-.896.623-1.26.35-.195-.13-.208-.22-.078-.584.182-.533.026-.741-.442-.624-.43.104-.676.793-.481 1.3.416 1.104 2.196.467 3.106-1.118l.364-.637.078.663c.156 1.313.819 2.08 1.78 2.08.534 0 .78-.183.78-.599 0-.39-.337-.623-.831-.597-1.183.078-1.768-1.664-1.066-3.159.416-.91 1.313-1.69 2.236-1.962 1.546-.442 2.885.051 4.536 1.676 1 .975 1.014 1.001.325.494-2.002-1.456-3.73-1.703-4.796-.689-.871.82-1.001 2.119-.3 2.82.274.287.43.326.923.3.468-.026.624-.104.741-.351.208-.403.04-.832-.35-.923-.43-.104-.456-.455-.053-.858.312-.312.403-.338 1.352-.299.78.04 1.144.13 1.703.416.767.403 2.768 1.794 2.677 1.872-.026.026-.325-.013-.676-.104-1.43-.325-3.652-.13-4.744.416-.247.117-1.091.935-1.884 1.806-2.08 2.327-3.536 3.25-5.108 3.25-1.47 0-1.859-.65-1.001-1.651l.312-.364.39.364c.455.429.819.39 1.143-.117.195-.286.195-.338-.039-.728-.545-.962-1.741-1.092-2.638-.286-.468.43-.494.43-.884.247-.494-.247-1.014-.143-1.274.273-.39.585.221 1.092.741.624.377-.338.767-.117.767.416 0 .832.416 1.352 1.287 1.625.26.065.156.09-.403.104l-.754.013v.909h29.349l.233-.584c.221-.611.364-.715.481-.403.04.104.26.286.494.403.793.415 1.768-.066 1.417-.715-.234-.43-.533-.52-.936-.286-.338.195-.377.195-.585-.013-.286-.286-.195-.572.884-2.366 4.38-7.356 11.893-12.581 20.263-14.09a29.848 29.848 0 0114.818 1.028c6.888 2.274 12.568 6.81 16.312 13.05.883 1.48 1.04 2.092.636 2.43-.155.13-.26.13-.454.013-.43-.273-.884-.195-1.053.182-.195.429-.026.727.546.883.533.157 1.183-.169 1.455-.727l.182-.403.351.806.338.792 14.662-.026 14.661-.039.039-.428.039-.416-.884-.013c-.702-.013-.806-.026-.507-.117.702-.221 1.118-.767 1.235-1.625.091-.572.429-.767.715-.39.091.13.286.208.481.169.247-.026.325-.13.351-.442.026-.247-.039-.468-.169-.572-.299-.247-1.066-.234-1.313.026-.195.195-.247.182-.533-.156-.455-.546-1.326-.845-1.911-.65-.52.17-1.118.806-1.118 1.183 0 .299.442.767.715.767.117 0 .351-.156.52-.338.377-.403.702-.286 1.027.39.273.585.273.663-.143.988-.572.442-1.911.338-3.093-.247-.936-.455-1.651-1.118-3.835-3.47-.805-.871-1.091-1.092-1.663-1.287-1.352-.442-3.198-.494-4.783-.13-.286.078-.156-.065.597-.624 1.664-1.235 2.379-1.56 3.575-1.625.871-.052 1.092-.013 1.326.182.415.351.454.884.065.936-.455.065-.637.585-.364 1 .325.482 1.13.456 1.65-.051.325-.325.377-.481.377-1.08-.013-2.508-2.768-3.053-5.381-1.065-.338.26-.65.442-.676.403-.13-.117 1.859-1.78 2.613-2.197.689-.377.897-.428 1.755-.428.792 0 1.091.065 1.624.35 1.261.663 1.924 1.703 1.924 3.016 0 1.26-.533 2.014-1.313 1.859-.468-.091-.975.428-.819.844.091.26.195.3.78.3.546-.014.728-.079 1.053-.39.442-.416.65-.975.689-1.742.013-.3.026-.533.052-.533.013 0 .156.234.299.52.403.78 1.196 1.494 1.884 1.69.546.155.637.142.949-.092.663-.493.442-1.806-.286-1.702-.234.039-.273.117-.234.598.026.468-.013.572-.286.688-.455.209-1.104-.22-1.741-1.17-.481-.727-.559-.883-.988-2.105-.598-1.676-2.652-2.794-4.289-2.34-.286.079-.533.118-.559.092-.026-.026.195-.195.481-.39.403-.26.52-.43.52-.702 0-.455-.208-.676-.663-.676-.39 0-.689.325-1.339 1.456-.377.689-.533.806-.338.286.325-.832.013-1.924-.676-2.431-.325-.247-.364-.247-.676-.039-.468.299-.416.598.182 1.222.442.442.52.61.52 1.053 0 .559-.52 1.715-1.04 2.352l-.273.325.104-.39c.065-.22.104-.949.091-1.624 0-.962-.065-1.404-.299-1.976-.649-1.677-2.105-3.029-4.029-3.756-2.495-.936-2.833-1.08-3.327-1.404-.364-.234-.533-.455-.56-.702-.038-.364.079-.455.326-.208.104.104.22.065.416-.13.364-.364.35-.48-.104-.936-.442-.429-.78-.48-1.157-.156-.416.364-.442.715-.13 1.339.221.429.494.702 1.014 1.014l.715.429-2.08-.04c-1.144-.025-2.184-.09-2.3-.155-.377-.17-.273.143.117.403.272.182.532.22 1.26.169.507-.04 1.65-.052 2.548-.052 1.572.013 1.663.026 2.924.532 1.326.52 2.496 1.21 3.016 1.755.325.351 1.208 1.78 1.208 1.963 0 .078-.221-.221-.493-.637a5.847 5.847 0 00-2.431-2.132c-1.976-.923-3.821-.87-6.395.221-.923.39-1.313.481-1.989.481-.467 0-.987-.065-1.143-.169l-.312-.169.286-.299c.338-.364.273-.715-.13-.715-.182 0-.325.143-.455.416-.143.351-.195.39-.26.195-.13-.312.013-.623.325-.701.494-.13.494-.988-.013-1.144-.377-.13-.741.039-.962.429-.104.195-.182.273-.195.182 0-.234.598-.806.845-.806.338 0 .494-.624.26-1.001-.117-.169-.286-.338-.39-.377-.325-.13-1.079.208-1.443.637-.299.35-.338.494-.286 1.079l.052.663-.78-.494c-1-.663-2.443-1.105-4.328-1.352-.832-.104-1.534-.221-1.547-.234-.025-.026.585-.195 1.365-.39 2.379-.598 3.328-.442 3.795.624.143.312.313.61.39.65.182.117.507-.182.507-.468 0-.858-.844-1.417-2.34-1.534l-.974-.078 1.378-.61a25.892 25.892 0 012.144-.833c.923-.26 2.327-.299 2.782-.065.858.455 1.222 1.183.598 1.183-.65 0-.845.82-.338 1.378.468.494 1.17.429 1.663-.13.871-.988.611-1.963-.688-2.613-.69-.338-.923-.39-1.885-.39-1.339 0-2.275.273-4.978 1.443-1.053.455-1.963.832-2.015.832-.169 0 3.029-1.845 4.069-2.352 1.273-.624 2.833-1.027 3.886-1.027 1.325.013 2.08.507 2.73 1.793.272.546.65.52.701-.039.065-.61-.442-1.234-1.326-1.69-.688-.337-.91-.376-1.884-.376-1.91.013-3.484.559-6.044 2.118-.845.507-1.547.923-1.573.923-.026 0 .143-.286.377-.624.676-1.013.923-1.962.91-3.535 0-1.066-.078-1.534-.3-2.145-.7-1.923-2.39-3.73-4.873-5.186-2.457-1.455-3.198-2.157-3.198-3.08 0-.637.234-.819.65-.507.403.312.56.325.82.026.285-.312.285-.975 0-1.222-.378-.338-1.106-.48-1.612-.312zm-34.314 14c.325.325.403.507.403.936l-.013.546-.182-.352c-.104-.181-.403-.467-.65-.623-.416-.26-.585-.611-.364-.82.169-.181.416-.077.806.313zm37.459-.195c.156.182.09.273-.442.728-.338.286-.61.61-.61.74-.014.183-.027.183-.144-.025-.182-.325.078-1.053.494-1.391.403-.312.48-.325.702-.052zM23.684 29.56c1.534.754 2.56 2.04 3.015 3.77.13.52.313.883.546 1.078.377.325.546.325.754-.026.117-.182.052-.312-.403-.702a3.654 3.654 0 01-.858-1.195 8.323 8.323 0 00-.857-1.43c-.43-.572-.325-.48.533.416 1.494 1.573 2.027 1.794 2.443 1 .221-.39.052-.714-.559-1.078a8.09 8.09 0 01-1-.702l-.455-.39.662.065c.715.078 1.924-.208 2.496-.585l.325-.208-.208.39c-.312.598-.52 1.846-.416 2.496.13.91.559 1.923 1.3 3.145.377.611.754 1.248.845 1.43.155.312.155.312-.078.117-.728-.624-1.82-.871-2.808-.624-1.287.299-2.313 1.742-2.313 3.236 0 1.716 1.676 3.172 3.158 2.743 1.26-.377 1.91-1.69 1.248-2.535-.611-.78-1.248-.701-1.092.156.156.871-.676 1.118-1.39.416-.352-.35-.39-.468-.339-.975.247-2.092 3.146-2.573 4.016-.662.17.377.247.844.247 1.546 0 .897-.052 1.105-.442 1.885-.61 1.183-1.117 1.52-2.274 1.508-2.3-.04-4.198-1.755-4.393-3.939-.091-1.026.13-1.806.715-2.495.598-.702 1.312-1.027 2.274-1.027.416 0 .871-.065 1.014-.13.338-.195.338-.975 0-1.17-.533-.286-1.924.247-2.807 1.053-.598.559-.598.559-.494.169.169-.598.117-2.002-.078-2.716-.273-.91-1.287-1.924-2.223-2.197-.936-.273-2.067-.26-2.846.039-1.547.585-2.405 1.91-1.703 2.613.377.376.572.324 1.352-.377.663-.611 1.351-.923 1.962-.923l.26.013-.26.143c-.494.273-.975.806-.975 1.078 0 .637.702.78 1.326.26.3-.26.52-.325 1.053-.325h.676l-.546.26c-.598.273-.728.598-.35.962.272.286.506.26.96-.078.313-.22.417-.247.586-.104.26.208.26 1.053-.013 1.937-.585 1.989-3.21 2.755-4.68 1.365-.52-.481-.558-.897-.168-1.404.195-.26.377-.338.754-.338.546 0 .792-.182.792-.598 0-.325-.442-.702-.818-.702-.442 0-1.027.403-1.21.845-.35.858-.22 1.716.39 2.392l.274.312-.39-.208c-.52-.26-.923-.702-1.17-1.287-.286-.702-.247-.975.195-1.3.455-.325.507-.74.13-1.079-.338-.299-.832-.156-1.209.351-.598.806-.065 2.444 1.066 3.315.676.52.572.545-.234.078-1.144-.65-1.547-1.066-2.028-2.041-.377-.74-.48-1.144-.532-1.91-.13-1.781.26-2.496 1.39-2.51.585-.012.871-.272.715-.662-.065-.169-.195-.208-.533-.169-.26.026-.403 0-.338-.065.052-.052.481-.117.923-.13.598-.026.858-.078.949-.247.195-.286-.091-.624-.546-.637-.299 0-.312-.013-.078-.117.507-.22.962-.13 1.404.26.52.455.572.468.897.17.26-.235.311-.885.09-1.028-.09-.052-.506-.078-.948-.078-1.027.026-.702-.208.48-.338 1.092-.13 1.99.013 2.847.43zm75.14-.234c.35.104.61.208.584.234-.026.013-.377-.013-.793-.065-.962-.104-1.339.065-1.3.598.026.338.325.702.572.702.04 0 .3-.182.572-.39.494-.39.936-.468 1.43-.26.234.104.234.117-.065.117-.481.026-.676.195-.624.546.039.273.117.312.559.325.286 0 .702.026.91.052l.39.026-.39.091c-.325.065-.39.143-.39.468 0 .35.039.39.455.403.247 0 .546.013.663.026 1.091.117 1.312 2.6.39 4.432-.468.91-.988 1.43-1.976 1.963l-.754.402.74-.753c.768-.767 1.067-1.404 1.067-2.223 0-.806-1.131-1.664-1.521-1.17-.325.416-.299.65.091.988.819.728.26 2.132-1.157 2.886-.234.117-.195.039.156-.312.793-.793.806-1.989.026-2.769-.442-.442-.728-.52-1.274-.312-.39.156-.546.56-.35.91.09.195.285.273.753.299.56.039.637.078.871.52.247.455.247.507.04.845-.365.624-1.21 1.014-2.184 1.014-1.846-.013-2.99-1.248-2.99-3.237 0-.87.208-1.04.78-.61.494.35.728.35.988-.053.247-.39.104-.65-.533-.922l-.39-.17.559-.013c.585 0 1.066.183 1.235.468.234.403 1.26.078 1.26-.377 0-.26-.39-.74-.832-1.026l-.402-.247.585.078c.753.117.974.234 1.728.936.69.636.91.662 1.3.143.364-.481.208-.95-.559-1.69-1.417-1.365-4.081-1.352-5.459.026-.87.87-1.3 2.781-.923 4.12l.117.403-.52-.52c-.559-.559-1.546-1.066-2.34-1.209-.415-.078-.493-.052-.701.26-.221.325-.221.39-.026.715l.208.351-.676.091c-.364.039-.936.221-1.287.39-.715.377-.74.455.364-1.313 1.326-2.105 1.56-3.782.793-5.64-.078-.17.052-.144.598.13.559.272.87.337 1.69.337 1.156 0 1.17-.052-.312.988-.624.429-.754.585-.754.897 0 .26.104.455.312.585.442.299.663.156 2.21-1.352.714-.689 1.026-.936.688-.559-.325.377-.793 1.105-1.04 1.625-.299.61-.598 1.027-.858 1.195-.441.286-.545.767-.194.897.48.182.922-.364 1.208-1.546.247-.975.767-1.833 1.573-2.574 1.482-1.352 3.25-1.755 5.108-1.17zM16.08 33.16c-.04.104-.078.065-.078-.078-.014-.143.026-.221.064-.17.04.04.052.157.014.248zm86.693.39c-.039.104-.078.065-.078-.078-.013-.143.026-.221.065-.17.039.04.052.157.013.248zm-10.996 3.132c2.522 1.339 2.028 5.238-.831 6.655-1.21.598-2.418.728-3.029.35-.48-.311-1.742-2.586-1.742-3.158 0-.715.286-1.69.624-2.092.572-.676 1.703-.962 2.405-.611.546.286 1.13.962 1.274 1.456.26.961-.481 1.82-1.378 1.598-.325-.078-.351-.13-.286-.585.065-.533-.078-.922-.351-.922-.104 0-.364.168-.585.376-.715.663-.48 1.872.455 2.496 1.807 1.183 4.211-.897 3.704-3.197-.273-1.222-1.13-2.223-2.196-2.535-.273-.078-.156-.104.507-.117.663-.013.987.052 1.43.286zm-66.495 1.534c-.104.299-.195.91-.195 1.364 0 2.028 1.339 3.718 3.38 4.264.39.104.597.195.441.195-.39.013-1.586-.364-2.326-.728-.351-.182-1.365-.82-2.236-1.417-.884-.598-1.976-1.313-2.457-1.599l-.844-.52.623-.078c1.34-.182 2.535-.728 3.263-1.494.26-.273.494-.507.507-.507.013-.013-.052.234-.156.52zm69.784.883c.754.365.936.416 2.066.598l.494.078-2.573 1.716c-2.639 1.742-3.835 2.366-4.861 2.496l-.572.065.585-.17c1.481-.428 2.404-1.17 2.99-2.352.597-1.209.649-2.418.168-3.665-.052-.13.13.013.403.312.286.312.845.715 1.3.922zm-78.791.04c1.286.597 1.923 1.494 1.923 2.703 0 .572-.065.728-.377 1.053-.507.494-.845.507-.74.013.09-.403 0-.572-.404-.793-.767-.403-1.43.858-.87 1.65l.195.287H13.52l.546-.494c.715-.65 1.066-1.443.949-2.184-.182-1.248-1.69-2.197-2.43-1.52-.469.415-.209 1.13.48 1.312.572.156.585.572.026 1.13-.559.56-1.157.625-1.443.157-.819-1.3.156-2.964 2.132-3.613.546-.182 1.768-.026 2.496.298zm1.975-.014c1.443.481 2.56 1.08 5.017 2.691 1.04.689 2.262 1.469 2.73 1.742l.845.494H24.32c-2.457 0-2.522 0-2.3-.247.376-.416.506-1.105.285-1.625-.338-.819-1.338-1.17-1.897-.663-.416.377-.338.806.195 1.13.637.365.559.677-.156.729-.507.039-.598-.013-1.131-.533-.377-.39-.637-.78-.728-1.157-.416-1.534-.897-2.222-1.885-2.742l-.39-.208.377-.013c.195 0 .897.182 1.56.403zm83.821-.207c-.714.312-1.455 1.182-1.663 2.001-.299 1.105-.715 1.833-1.248 2.184-.61.403-1.326.377-1.39-.052-.027-.182.038-.3.233-.364.143-.052.351-.221.468-.39.416-.637-.364-1.26-1.157-.923-.961.403-1.26 1.352-.689 2.184l.325.494h-4.99l1.04-.624c.572-.351 1.859-1.183 2.86-1.846 2.612-1.742 4.991-2.82 6.238-2.846h.39l-.416.182zm3.211.051c1.339.507 2.08 1.404 2.08 2.522 0 1.443-1.352 1.729-2.002.429-.221-.429-.091-.728.312-.728.546 0 .884-.923.507-1.378-.234-.286-1.131-.182-1.651.182-1.157.832-1.014 2.743.273 3.679l.52.377h-2.496l.195-.364c.234-.442.234-.728-.013-1.183-.221-.442-.572-.559-1.001-.351-.233.13-.298.26-.285.637.026.598-.26.65-.767.117-.832-.871-.416-2.522.871-3.38 1.195-.792 2.339-.974 3.457-.559zM9.751 41.881c-.273.715-.702 1.196-.936 1.053-.247-.156-.754.338-.754.728v.39l-1.586-.013H4.877l.688-.195c1.235-.325 2.12-.858 3.276-1.963.61-.572 1.118-.988 1.144-.897.026.091-.091.494-.234.897zm101.043.793c1.001.715 1.456.949 2.313 1.17l.689.195h-1.572c-1.56.013-1.573.013-1.521-.286a.66.66 0 00-.663-.78c-.39 0-.858-.52-1.105-1.248-.299-.91-.182-.988.455-.286a9.94 9.94 0 001.404 1.235zM19.382 43.74l.286.312h-2.106l.325-.351c.182-.195.39-.598.481-.91l.143-.56.286.599c.156.325.416.728.585.91zm81.001-.884c.039.208.234.559.416.793l.351.403h-2.132l.468-.52c.247-.286.494-.663.546-.845.104-.403.26-.325.351.169zm-89.618.832l.337.364H9.374l.312-.468c.182-.26.325-.598.325-.754.013-.234.039-.208.22.117.105.208.351.546.534.74zm98.417.169c.143.169.052.195-.624.195h-.793l.468-.637.481-.65.156.455c.078.247.221.533.312.637z" fill="#F9EFD6"/><path d="M59.87 28.74c-.04.17-.105.794-.144 1.405-.039.61-.104 1.442-.156 1.845l-.078.754h.923l.104-1.326.091-1.325.507 1c.273.56.559.975.624.936.065-.039.364-.429.663-.845.299-.429.572-.767.585-.74.026.025 0 .558-.065 1.208-.052.637-.078 1.196-.052 1.248.052.091.819.156.819.065 0-.013.09-.936.195-2.028.09-1.104.156-2.066.117-2.118-.04-.052-.234-.104-.455-.104-.325 0-.481.143-1.053.923l-.676.922-.52-1.052c-.494-1.001-.546-1.053-.949-1.053-.338 0-.442.065-.48.286zm-3.809-.064c-.26.052-.273.117-.22.663.025.338.116 1.274.181 2.092.065.82.143 1.495.156 1.508.026.026.221.013.442-.026.39-.065.39-.065.338-.767l-.052-.702h.494c1.183 0 1.884-1.04 1.404-2.027-.143-.286-.39-.572-.572-.663-.312-.156-1.547-.195-2.171-.078zm1.833.897c.468.455.09 1.091-.65 1.091-.442 0-.442-.013-.442-.571 0-.338.065-.598.169-.637.325-.143.728-.091.923.117zm-4.991-.299l-.455.156-.221 1.95c-.286 2.495-.286 2.404.013 2.404.442 0 .663-.156.663-.455 0-.377.182-.507.962-.702.623-.156.65-.143.91.182.233.273.337.325.701.247.221-.052.416-.104.416-.13 0-.104-2.366-3.756-2.443-3.782-.052-.013-.3.052-.546.13zm.897 1.936c.311.52.285.546-.364.69-.416.09-.442.077-.364-.209.052-.169.09-.546.09-.832 0-.429.027-.48.17-.325.104.104.312.416.468.676zm11.333-.026c-.675 1.001-1.195 1.846-1.156 1.885.026.039.234.09.442.143.325.065.428.013.61-.247l.208-.325.793.208c.715.195.78.234.78.572 0 .273.091.403.338.494.663.26.663.299.481-2.041-.104-1.196-.221-2.223-.273-2.262-.052-.052-.299-.13-.546-.169l-.455-.078-1.222 1.82zm1.612 1.014c-.026.026-.87-.247-.949-.312-.026-.013.156-.325.39-.676l.43-.663.077.806c.04.442.065.819.052.845zm2.093.052c-.481 1.08-.858 1.964-.832 1.977.026.013.208.09.403.181.364.156.364.143.689-.584.182-.416.35-.767.377-.793.026-.026 1.247.468 1.338.546.013.026-.117.39-.299.806-.35.78-.325.935.182.987.273.04.39-.13 1.131-1.78.455-1.001.832-1.859.832-1.898 0-.065-.585-.377-.728-.377-.026 0-.195.325-.377.715-.169.39-.35.715-.39.715-.052 0-.364-.117-.715-.273l-.623-.273.312-.702c.168-.39.311-.74.311-.767 0-.026-.168-.143-.376-.247l-.364-.195-.871 1.963zm-21.42-1.104c-.702.325-1.274.663-1.274.754 0 .078.078.247.169.377.143.207.195.207.65.012l.494-.195.701 1.495c.39.832.78 1.495.884 1.495.091 0 .273-.078.403-.169.208-.156.182-.26-.429-1.573-.364-.78-.663-1.494-.663-1.585 0-.091.208-.234.455-.312.247-.078.455-.17.455-.195 0-.234-.286-.715-.416-.702-.09 0-.74.273-1.43.598zm25.28 2.794c-.572.884-1.079 1.677-1.13 1.755-.053.104.025.221.233.312.273.13.507.078 1.534-.338.663-.26 1.287-.52 1.39-.559.105-.039-.116.377-.493.923-.364.546-.663 1.04-.663 1.105 0 .182.637.48.767.338.065-.065.585-.845 1.156-1.742.793-1.209 1.014-1.664.91-1.78-.195-.235-.507-.209-1.274.09-.35.143-.935.377-1.286.52l-.65.247.663-1.04c.637-.988.65-1.04.416-1.221-.13-.104-.312-.195-.39-.195-.091 0-.624.715-1.183 1.585zm-28.79-.936c-.676.364-1.053.949-1.117 1.755-.104 1.313.701 2.274 1.988 2.378 2.093.17 3.197-2.34 1.677-3.769-.715-.663-1.703-.806-2.548-.364zm1.989 1.053c.663.715.442 1.755-.455 2.132-.546.233-1.053.103-1.443-.351-.442-.533-.52-.91-.26-1.443.247-.52.585-.715 1.274-.728.403-.013.585.065.884.39z" fill="#F9EFD6"/><path d="M57.36 34.577c-1.468.13-3.873.663-5.354 1.183-4.9 1.715-9.385 5.485-11.867 9.943l-.52.949H23.658c-14.427 0-15.961.026-16.039.208-.234.598-1.144.572 16.22.572h16.3l.78-1.34c1.117-1.923 2.144-3.223 3.756-4.782 4.237-4.095 9.748-6.174 15.701-5.927 7.5.312 14.155 4.393 17.794 10.918l.624 1.13h5.433c2.976 0 7.707-.038 10.502-.09l5.095-.078v-.612H79.327l-.364-.688C76.44 41.27 71.8 37.397 66.64 35.669c-3.094-1.04-6.044-1.378-9.28-1.092z" fill="#F9EFD6"/><path d="M56.477 36.838c-2.547.416-5.537 1.56-7.694 2.95-4.394 2.847-7.487 7.41-8.644 12.765-.416 1.897-.416 5.666 0 7.564 1.833 8.488 8.435 14.661 16.884 15.792 1.599.208 4.965.078 6.499-.26a20.507 20.507 0 006.992-2.963c1.651-1.092 4.108-3.536 5.226-5.173 4.64-6.863 4.64-15.48 0-22.356-.468-.689-1.43-1.807-2.366-2.73-2.82-2.82-5.654-4.393-9.683-5.355-1.755-.416-5.368-.533-7.214-.234zm6.33.39c4.341.754 8.643 3.198 11.386 6.46 2.261 2.69 3.6 5.446 4.34 8.864.417 1.937.417 5.68-.012 7.617-.39 1.833-.806 3.055-1.573 4.614-4.081 8.345-13.322 12.634-22.304 10.333-6.94-1.78-12.373-7.37-14.063-14.466-.325-1.352-.35-1.664-.35-4.315 0-2.652.025-2.964.35-4.315 1.937-8.11 8.682-14.09 16.936-14.987 1.326-.143 3.9-.052 5.29.195z" fill="#F9EFD6"/><path d="M58.426 44.143c-2.352.117-4.315.22-4.34.247-.027.013.09.247.246.507.195.325.507.572.962.767.364.169.741.39.832.493.195.248.663 1.924 2.236 8.085.65 2.56 1.221 4.731 1.26 4.835.052.143-.156.182-1.091.182-1.872 0-3.159.455-4.355 1.534-.429.39-.48.48-.325.637.143.143.286.117.95-.182.727-.351.857-.364 2.65-.364 1.73.013 2.067.052 4.03.52 1.989.468 2.288.507 4.094.507 2.314.013 3.289-.208 5.186-1.196 2.587-1.326 4.225-3.783 4.238-6.343 0-3.405-3.263-6.005-6.33-5.043-1.001.312-2.119 1.39-2.366 2.288-.689 2.456 1.235 4.73 3.496 4.146 1.027-.26 1.742-1.352 1.508-2.288-.143-.572-.74-1.118-1.313-1.196-.442-.052-.572-.013-.883.286-.377.39-.481 1.053-.195 1.34.22.22-.3.207-.572-.014-.663-.533-.82-1.508-.364-2.248.312-.481 1.403-1.092 1.988-1.092 1.105 0 2.301.819 2.925 2.001.299.572.35.82.35 1.833 0 1.079-.038 1.235-.441 1.976-.494.91-1.716 2.144-2.665 2.703a8.31 8.31 0 01-3.34 1.066c-.897.065-1 .052-1.079-.169-.039-.13-.897-3.483-1.898-7.448-1.013-3.964-1.871-7.278-1.91-7.382-.052-.117.065-.234.325-.325.403-.156.923-.936.585-.871-.065.013-2.028.104-4.394.208z" fill="#F9EFD6"/><path d="M52.33 57.505l-3.365 9.943h-2.159l-.13.48c-.078.273-.143.573-.143.663 0 .13.949.156 4.523.13l4.51-.039.04-.597.038-.598-1.105-.065c-.805-.052-1.221-.143-1.546-.351-.52-.312-.871-.962-.871-1.573 0-.234 1.027-3.47 2.275-7.2 1.247-3.731 2.274-6.89 2.274-7.02 0-.363-.819-3.717-.897-3.717-.039 0-1.599 4.471-3.444 9.944zm8.71 7.175c.376 1.494.701 2.716.701 2.729 0 .026-.676.039-1.508.039H58.74l.039.61.038.624 5.239.04c4.12.025 5.238 0 5.277-.13.039-.091.09-.39.117-.65l.078-.481-.585-.091c-.598-.091-1.248-.507-1.508-1.001-.078-.143-.351-1.092-.611-2.093l-.468-1.82-1.82-.012c-1.156-.013-2.17-.104-2.768-.234-1.599-.364-1.534-.598-.728 2.47zM9.582 53.033c-1.638.26-2.82 1.651-2.847 3.354-.013 1.014.247 1.755.845 2.43.78.884 1.378 1.157 2.626 1.157 1.183 0 1.767-.247 2.521-1.027.494-.507.481-.52-.273-.975l-.48-.285-.144.26c-.377.714-1.936.935-2.794.402-.676-.415-1.027-1.247-.923-2.131.117-1.053.793-1.755 1.807-1.859.793-.09 1.17.013 1.702.494l.455.39.52-.299c.3-.169.533-.338.533-.39 0-.26-.845-1.014-1.39-1.235-.793-.338-1.365-.416-2.158-.286zm3.938.221c0 .065.429 1.027.962 2.132.52 1.104 1 2.144 1.04 2.287.13.39-.43.936-.962.936-.377 0-.39.013-.39.65s.013.65.39.65c.22 0 .585-.078.819-.182.845-.364 1.221-.962 2.378-3.718.598-1.455 1.092-2.69 1.092-2.755 0-.065-.299-.104-.663-.078l-.663.039-.598 1.456c-.325.806-.637 1.468-.675 1.468-.052 0-.377-.663-.741-1.468l-.637-1.456-.676-.04c-.377-.025-.676.014-.676.079zm6.109 3.276v3.379h7.928V53.15h-1.429v5.459h-1.82V53.15h-1.43v5.459h-1.82V53.15H19.63v3.38zm9.098.012v3.38l.546-.04c.546-.038.546-.038 1.924-1.988l1.364-1.95.04 1.976.038 1.989h1.417V53.15h-1.131l-1.351 1.937-1.352 1.923-.04-1.923-.038-1.937h-1.417v3.392zm54.2-.012v3.379h1.43v-5.46h2.34v5.46h1.429V53.15h-5.199v3.38zm6.369.012v3.38l.546-.04.559-.038 1.364-1.95 1.365-1.936.04 1.975.038 1.976h1.417V53.15h-1.118l-1.39 1.976-1.391 1.975V53.15h-1.43v3.392zm6.499-.012v3.38h4.419v1.299h1.43v-2.6h-.78V53.15h-1.3v5.46h-2.34v-5.46h-1.429v3.38zm6.628 0v3.378h4.407l.039.611.039.624.688.04.676.038V58.61h-.65v-5.46h-1.429v5.46h-2.34v-5.46h-1.43v3.38zm7.734-1.21c-.416 1.21-.949 2.73-1.183 3.38l-.429 1.209h1.508l.169-.585.169-.585h2.782l.169.585.168.585h1.508l-.624-1.794c-.351-.975-.884-2.495-1.195-3.38l-.559-1.585h-1.716l-.767 2.17zm2.47 1.872c.078.221.013.247-.832.247h-.91l.39-1.144c.208-.623.416-1.221.455-1.325.065-.17.416.702.897 2.222z" fill="#F9EFD6"/><path d="M24.763 65.758l-5.59.065v.65l10.269.039 10.268.039.52.922c2.534 4.55 7.11 8.306 12.153 9.97 5.784 1.897 11.633 1.481 17.091-1.222 3.86-1.91 6.89-4.731 9.19-8.553l.637-1.065 16.013-.065 16.013-.065.039-.43.039-.415H78.833l-.69 1.235c-3.014 5.394-8.135 9.137-14.36 10.489-1.157.247-1.703.286-4.25.286-2.561 0-3.094-.04-4.29-.286-3.782-.832-7.214-2.535-9.878-4.926-1.989-1.781-3.613-3.835-4.64-5.85l-.494-.948-4.94.026c-2.716.026-7.447.065-10.527.104z" fill="#F9EFD6"/><path d="M2.472 68.228v.39l.884.012c.702.013.793.04.455.117-.897.208-1.287.637-1.443 1.6-.117.623-.416.766-.819.402-.195-.182-.312-.208-.48-.104-.352.221-.352.767 0 1.014.363.26.662.26 1.13.013.351-.17.39-.17.676.156.351.364 1 .689 1.43.689.819 0 1.65-.858 1.494-1.508-.155-.598-1.078-.676-1.3-.117-.038.104-.155.195-.26.195-.233 0-.857-.87-.857-1.183 0-.689 1.482-.988 2.755-.533 1.222.43 2.132 1.144 3.718 2.912 1.702 1.897 2.21 2.222 3.834 2.456.962.143 2.834.026 3.561-.22.494-.17-1.767 1.403-2.651 1.845-.78.39-1.079.48-1.768.48-.91.014-1.43-.22-1.546-.662-.091-.325.025-.507.337-.559.416-.09.56-.455.338-.87-.286-.495-1.117-.56-1.624-.118-.3.247-.377.442-.43 1.027-.103 1.378.69 2.314 2.054 2.418.975.065 1.833-.208 2.964-.975 1.196-.806 1.209-.806.546-.117-.793.832-2.054 1.728-2.795 1.989-1.703.571-3.756-.365-4.445-2.028-.26-.624-.26-1.937 0-2.444.221-.416.806-.715 1.222-.61.35.09.728-.248.728-.65 0-1.027-1.729-.676-2.288.454-.117.26-.234.78-.234 1.144l-.026.676-.35-.624c-.469-.806-1.275-1.546-1.885-1.715-.806-.221-1.365.142-1.365.896 0 .546.312.91.767.91.286 0 .299-.039.22-.572-.077-.507-.051-.598.183-.728.39-.208.701-.065 1.338.65.585.65 1.08 1.547 1.47 2.665.298.87 1.325 1.897 2.183 2.183.793.273 1.69.286 2.43.026.351-.117.481-.13.325-.026-1.105.702-1.39 1.34-.793 1.73.3.194.351.194.65 0 .17-.118.546-.612.845-1.119.286-.494.559-.91.585-.91.026 0-.013.182-.091.403-.299.884.078 2.028.845 2.457.299.169.364.169.598-.052.39-.351.338-.559-.247-1.196-.663-.715-.69-1.235-.13-2.34.416-.818 1.014-1.65.845-1.156-.052.143-.13.74-.17 1.326-.038.831 0 1.247.222 1.962.48 1.612 1.69 3.068 3.171 3.808.273.144 1.092.468 1.82.715 2.222.78 3.08 1.287 3.08 1.82 0 .273-.052.299-.377.234-.806-.169-.793.923.026 1.26.312.13.442.13.715-.025.897-.507.377-1.859-1-2.587l-.469-.247 1.82-.013c1 0 2.028.052 2.261.13.546.156.663.078.364-.234-.207-.195-.546-.22-2.924-.22-2.587 0-2.73-.014-3.626-.352-2.236-.818-3.575-1.858-4.316-3.327-.22-.442-.402-.87-.402-.949 0-.09.181.195.39.624.948 1.885 3.145 3.159 5.485 3.159 1.156 0 2.014-.195 3.43-.78 1.418-.585 2.028-.702 2.77-.533.766.169.883.312.532.637-.325.299-.273.675.104.675a.552.552 0 00.546-.558c0-.13.065-.195.13-.156.273.169.13.65-.26.87-.416.234-.48.481-.26.897.17.3.624.325 1.027.026.182-.117.273-.143.22-.065-.051.091-.259.247-.467.351-.507.26-.689.611-.52 1.027.247.663 1.248.546 1.898-.22.299-.352.338-.495.286-1.093l-.065-.689.403.312c1.091.832 2.742 1.378 4.965 1.638.715.091 1.3.169 1.313.182.026.013-.572.182-1.313.377-2.353.61-3.393.442-3.874-.637-.195-.468-.312-.585-.532-.546-.208.026-.3.143-.325.442-.091.871.961 1.482 2.56 1.482h.858l-1.274.585c-2.99 1.365-4.744 1.572-5.732.65-.364-.338-.48-.923-.143-.806.3.117.754-.338.754-.754 0-.468-.559-.975-1.079-.975-.48 0-1.117.533-1.3 1.105-.428 1.313.988 2.404 3.107 2.404.988 0 2.379-.429 4.861-1.481 1.274-.546 2.353-.988 2.405-.988.052 0-.312.22-.82.494-.493.273-1.48.832-2.183 1.235-2.196 1.286-3.678 1.78-5.329 1.78-1.338 0-2.08-.455-2.677-1.663-.377-.754-.728-.715-.715.078.013.688.455 1.182 1.39 1.585.923.403 1.924.468 3.224.195 1.417-.286 2.678-.806 4.38-1.846 2.002-1.208 1.937-1.195 1.469-.506-.923 1.325-1.274 3.405-.871 5.017.377 1.494.936 2.417 2.288 3.782 1.026 1.027 1.533 1.43 2.976 2.275 2.08 1.234 3.003 2.118 3.003 2.885 0 .767-.156.897-.676.572-.416-.26-.468-.26-.741-.078-.221.156-.273.312-.247.663.117 1.391 2.391 1.339 2.651-.052.273-1.417-.819-2.743-3.262-3.964a23.71 23.71 0 01-2.106-1.222c-3.171-2.106-4.627-5.524-3.548-8.41.364-.988.702-1.403.39-.48-.819 2.352.455 5.406 2.755 6.628.663.364.988.442 1.833.494.845.052 1.053.026 1.26-.169.326-.299.326-.598.014-.988-.234-.286-.273-.299-.845-.143-.806.208-2.262.195-2.742-.039-.377-.182-.313-.182.48 0 .494.13.884-.13.884-.572 0-.558-.286-.727-.897-.545-.715.207-1.182.181-1.663-.117-.234-.143-.43-.3-.43-.338 0-.04.144.013.326.13.182.117.546.234.819.247.455.026.48 0 .48-.364 0-.377-.026-.39-.61-.39-.507-.013-.702-.091-1.014-.39-.208-.208-.39-.43-.39-.507 0-.065.13 0 .299.156.169.156.429.286.598.286.234 0 .286-.065.247-.364-.026-.286-.104-.364-.455-.39-.663-.065-.988-.572-.884-1.39.169-1.261 1.027-2.73 1.91-3.25l.43-.247-.468.546c-.585.676-.82 1.469-.741 2.456.156 2.028 1.65 3.354 4.432 3.926 1.741.364 1.975.48 1.975 1.052 0 .338-.051.442-.207.416-.312-.039-.676.43-.572.741.195.637 1.39.416 1.702-.312.195-.494.117-.923-.26-1.352-.416-.454-1-.662-2.573-.87-1.599-.208-2.418-.546-3.198-1.326-2.105-2.106-.961-5.615 1.82-5.615.858 0 2.145.572 2.56 1.144.339.48.339.546.014 1.17-.143.285-.234.61-.182.727.13.338.533.494.831.338.221-.117.26-.104.26.13 0 .416-.597 1.495-1.04 1.859-1.234 1.04-3.106.598-3.847-.884-.26-.546-.325-.845-.273-1.235.104-.754.533-1.364 1.196-1.69.56-.272.585-.272.975-.038.572.338.48.754-.26 1.273-.728.507-.91.95-.598 1.417.377.598 1.56.338 1.937-.416.494-.962.364-1.975-.312-2.56-.312-.26-.533-.325-1.079-.325-2.6 0-3.145 3.912-.715 5.12 2.56 1.275 5.46-1.468 4.614-4.366-.416-1.417-1.663-2.366-4.107-3.094-.988-.286-1.871-.689-2.002-.884-.038-.065.014-.26.117-.455.156-.299.156-.377-.012-.545-.338-.338-.962.103-.962.675 0 .533.636 1.066 1.754 1.47.78.285.936.376.65.376-.858.013-3.951-.39-4.874-.65-1.053-.286-2.573-1.027-2.937-1.43-.234-.246-.221-.26.156-.065 1.325.69 2.872.546 3.782-.364.845-.844.897-1.546.13-1.82-.416-.155-.65.027-1.014.729-.364.715-.923 1.014-1.872 1.014-.91 0-1.65-.3-2.21-.897-.337-.364-.39-.52-.428-1.287-.026-.715.013-.962.26-1.39.35-.612 1.04-.989 1.573-.885.48.091 1.091.715 1.195 1.21.117.52-.22 1.078-.623 1.013-.287-.039-.339-.234-.17-.637.117-.26-.39-.897-.701-.897-.286 0-.598.416-.78 1.027-.26.923.533 1.963 1.495 1.963.818 0 1.728-.871 1.845-1.794.273-2.028-2.21-3.51-3.652-2.17-.182.168-.338.26-.338.194 0-.13 1.52-2.43 1.677-2.521.065-.04.143.156.182.455.168 1.248 1.013 1.69 1.481.767.195-.39.104-.585-.403-.884-.234-.143-.455-.377-.493-.52-.066-.234-.04-.26.233-.143.416.156.546-.156.312-.715-.208-.48-.325-2.573-.169-2.872.104-.17.247-.026.715.689 1.573 2.365 4.445 5.432 6.668 7.122 3.64 2.769 7.825 4.744 12.049 5.693 4.393.975 9.332.988 13.621.013 7.539-1.703 14.31-6.304 18.652-12.66l.65-.948.104 1.065c.078.95.065 1.144-.17 1.625-.402.832-.272 1.248.3.949.143-.078.22-.065.22.026 0 .273-.272.65-.454.65-.247 0-.585.364-.585.65 0 .13.104.364.234.52.533.65 1.312-.065 1.351-1.248l.013-.442.663.91c.364.507.806 1.156.975 1.456l.312.545-.403-.338c-.637-.532-1.235-.688-1.95-.48-1.195.338-1.988 1.598-1.715 2.768.338 1.495 1.924 2.119 2.911 1.13.338-.35.403-.506.403-1.039 0-1.066-.689-1.742-1.26-1.222-.209.195-.248.338-.182.78.065.52.052.559-.221.559-.43 0-.611-.247-.611-.793 0-.572.39-1.118.974-1.365 1.04-.428 2.054.56 2.067 2.028 0 .962-.286 1.469-1.13 1.95-.56.312-.82.39-1.508.39-1.04 0-1.573-.3-1.95-1.092-.273-.598-.611-.806-1.053-.663-.936.299-.416 1.664.91 2.353.65.35 2.067.324 2.924-.052.611-.273.637-.273.325-.026-1.442 1.17-3.574 1.78-7.018 2.001l-1.105.078.65-.247c1.04-.377 1.728-.767 1.884-1.053.364-.689-.182-1.637-.715-1.247-.22.156-.22.22-.064.597.233.56.168.598-2.054 1.365-.975.325-2.054.78-2.392.988-1.104.715-1.69 1.768-1.69 3.054-.012.988.365 1.86 1.106 2.639.701.715 1.403 1.053 2.274 1.053.819 0 1.378-.208 2.015-.767 1.325-1.17 1.105-3.795-.364-4.497-.715-.338-1.794-.221-2.249.247-.325.312-.35.429-.35 1.325 0 .962.012.988.48 1.43.585.533 1.43.624 1.664.195.26-.494.156-.897-.338-1.274-1.105-.844-1.183-1.04-.572-1.468l.403-.286.61.312c.339.156.742.493.898.74.597.884.273 2.366-.637 3.042-.468.35-1.157.61-1.586.61-1.014 0-2.106-.857-2.47-1.91-.272-.78-.26-.858.053-.689.701.377 1.117-.338.662-1.105-.35-.597-.35-.623.143-1.17.663-.753 1.313-1.026 2.47-1.04.897 0 1.04.04 1.547.39.312.222.74.69.961 1.04.338.547.39.755.39 1.547-.013 1.04-.273 1.677-1.052 2.548-.702.78-1.573 1.13-3.263 1.352-.806.104-1.676.299-1.923.416-1.014.48-1.287 1.455-.598 2.144.572.572 1.442.442 1.442-.208 0-.325-.416-.663-.65-.52-.181.117-.298-.26-.207-.637.09-.364.701-.65 1.91-.857 1.599-.273 2.418-.624 3.224-1.378 1.13-1.04 1.65-2.457 1.325-3.653-.078-.298-.35-.844-.598-1.208l-.442-.663.377.273c.936.663 1.677 2.001 1.781 3.236.065.65.04.793-.208 1.04-.143.143-.39.273-.52.273-.429 0-.663.143-.663.403 0 .364.377.455.793.208.351-.195.364-.195.208.052-.234.364-.91.65-1.365.559-.325-.065-.403-.026-.48.195-.221.689.623.832 1.43.247.285-.208.337-.221.207-.052-.468.559-1.196.715-2.131.442-.455-.143-.533-.13-.69.09-.428.585-.13 1.04.664 1.027.363-.013.532.026.428.091-.246.17-1.806.143-2.573-.039-.715-.169-.923-.078-1.092.507-.156.52.312.82 1.287.82 1.222 0 2.119-.378 3.132-1.327 1.703-1.598 2.353-4.003 1.625-6.017-.13-.364-.13-.377.052-.13.117.142.325.623.455 1.078 1.04 3.354-1.04 6.98-5.199 9.06-2.963 1.494-4.107 2.781-3.782 4.263.156.637.325.845.91 1.014.597.182 1.312-.078 1.637-.585.195-.286.195-.403.065-.728-.182-.442-.598-.52-1.105-.182-.286.182-.311.182-.454-.078-.468-.871.506-2.028 2.898-3.431 1.846-1.105 2.872-1.911 3.717-2.95 1.196-1.483 1.703-2.847 1.703-4.615 0-1.443-.494-3.016-1.209-3.795-.143-.156-.234-.286-.195-.286.052 0 .858.468 1.794 1.04 3.158 1.884 5.823 2.508 7.63 1.754 1-.416 1.845-1.624 1.468-2.08-.247-.285-.455-.233-.637.17-.598 1.312-1.39 1.845-2.807 1.845-1.248 0-2.379-.312-3.9-1.053-1.273-.61-4.25-2.326-4.068-2.326.052 0 .962.377 2.015.832 2.872 1.248 3.535 1.442 4.913 1.442 1.833 0 2.963-.597 3.132-1.65.221-1.287-1.26-2.314-2.092-1.469-.56.546-.325 1.404.364 1.39.455 0 .455.287-.013.755-.56.545-1.313.715-2.483.532-.923-.142-2.885-.844-3.99-1.416l-.507-.273.78-.013c1.39 0 2.43-.507 2.56-1.222.156-.78-.558-1.027-.805-.273-.078.247-.325.598-.533.78-.56.455-1.677.442-3.484-.039l-1.364-.364 1.338-.169c2.47-.299 4.186-.884 5.186-1.755.364-.311.442-.35.364-.143a4.87 4.87 0 00-.169.663c-.195 1.157 1.534 2.314 2.119 1.417.299-.468.143-.91-.429-1.196-.26-.13-.507-.325-.533-.429-.039-.13.052-.09.26.091.559.52 1.144.325 1.144-.377 0-.273-.078-.403-.325-.493-.39-.144-.52-.416-.351-.728.104-.182.143-.156.26.195.104.299.22.403.455.403.429 0 .546-.338.22-.611-.415-.364-.311-.533.43-.69.832-.168 1.442-.051 2.781.52 1.339.56 2.288.78 3.431.78 1.105 0 2.431-.337 3.302-.857 1.014-.585 2.015-1.729 2.404-2.743.143-.338.247-.533.26-.416 0 .117-.208.624-.454 1.118-.754 1.52-1.924 2.43-4.355 3.405-.819.325-.935.338-3.509.338-1.937 0-2.742.052-2.95.17-.351.194-.416.493-.066.337.117-.052 1.183-.117 2.366-.143l2.145-.052-.546.273c-.65.325-1.3 1.027-1.417 1.521-.208.793.468 1.43 1.183 1.105.728-.325.74-1.248.026-1.261-.43-.013-.52-.104-.416-.442.104-.364 1.17-.936 2.794-1.508 1.989-.715 2.821-1.17 3.718-2.066 1.572-1.573 2.248-4.043 1.585-5.797-.104-.286-.091-.3.078-.13.104.104.403.546.65.962.377.624.468.91.468 1.455 0 .611-.052.715-.52 1.21-.598.61-.611.701-.26 1.052.364.364.533.325 1.027-.182.494-.507.676-1.17.52-1.859-.052-.273-.078-.507-.052-.532.026-.026.286.363.572.87.598 1.014.91 1.274 1.313 1.053.676-.364.598-.923-.234-1.508-.26-.195-.364-.299-.221-.247.468.182 1.689.221 2.222.078 1.209-.325 2.197-1.325 2.652-2.677.351-1.04 1.131-2.262 1.742-2.73.428-.325.506-.338.857-.195.325.13.377.221.312.442-.182.546-.13.793.182.832.884.13 1.053-1.39.195-1.78-.754-.338-1.936.376-2.651 1.598-.351.637-.377.65-.377.273 0-1.196-.728-2.235-1.651-2.365-.637-.078-.949.09-.949.545 0 .404.312.637.923.663.624.026.975.325 1.157.95.234.857.156 1.494-.299 2.378-.923 1.78-3.028 2.417-4.887 1.482-.377-.195-1.131-.793-1.677-1.326l-1.001-.975.845.585c2.002 1.365 3.744 1.495 4.718.35 1.053-1.26.533-3.08-.87-2.976-.403.026-.559.117-.676.351-.208.403-.039.832.351.923.377.091.48.533.182.819-.611.624-2.158.533-3.432-.182-1.053-.598-2.742-1.859-2.352-1.768 1.819.468 3.847.377 5.134-.22.754-.352.948-.52 2.339-2.145 1.69-1.95 3.081-2.847 4.666-2.964 1.443-.117 1.963.403 1.378 1.365-.351.572-.559.624-.949.234-.416-.416-.546-.416-.949-.013-.233.234-.298.416-.246.624.116.377.753.975 1.182 1.079.481.13 1.274-.156 1.729-.611.377-.377.416-.377.689-.195.351.247.624.26 1.066.052.403-.17.533-.52.338-.884-.169-.312-.546-.338-.78-.065a.52.52 0 01-.442.169c-.221-.026-.286-.156-.338-.65-.091-.74-.585-1.326-1.287-1.508-.429-.117-.39-.13.481-.143l.936-.013v-.78H87.138l-.312.728-.299.728-.168-.403c-.338-.805-1.521-.975-1.976-.299-.17.247-.143.3.169.611.325.338.35.338.663.13.299-.195.35-.195.65 0 .169.104.312.3.312.43 0 .52-1.82 3.418-3.367 5.354-4.679 5.875-11.386 9.683-19.12 10.866-2.04.312-6.225.312-8.383 0-1.715-.247-4.406-.91-5.914-1.443-1.364-.493-4.406-1.962-5.706-2.781-3.457-2.145-6.68-5.251-8.955-8.617-.923-1.365-1.975-3.237-1.975-3.51 0-.377.467-.533.831-.299.403.26.82.078.936-.403.117-.468-.208-.767-.87-.767-.443 0-.599.078-.91.43l-.377.428-.26-.598-.247-.584H2.472v.39zm5.628.675c-.078.416.221.754.74.871.52.104.937.715 1.145 1.677l.13.546-.884-.897c-.481-.507-1.196-1.105-1.586-1.352-.676-.429-1.923-.936-2.573-1.04-.182-.026.442-.065 1.377-.078 1.703-.013 1.703-.013 1.651.273zm2.613.182c-.247.247-.442.546-.442.65 0 .104-.052.182-.13.182-.065 0-.13-.09-.13-.208 0-.117-.117-.416-.273-.65l-.273-.442h1.677l-.43.468zm5.069-.117c-.234.468-.234.741.013 1.21.247.48.636.597 1.065.324.273-.182.312-.286.26-.663-.065-.364-.039-.442.156-.442.325 0 .884.65.988 1.157.325 1.56-1.352 3.21-3.418 3.353-.793.065-.936.026-1.703-.364-1.144-.597-1.612-1.208-1.677-2.17-.039-.611 0-.806.234-1.105.403-.52 1.092-.416 1.56.221.442.598.416.988-.065.988-.663 0-1 1.014-.468 1.443.208.169.377.195.754.117 1.898-.43 2.145-2.82.416-4.095l-.429-.325h2.508l-.194.351zm3.587.13c-.234.26-.494.65-.585.871l-.169.403-.143-.364c-.078-.208-.143-.416-.143-.48 0-.053-.169-.287-.377-.508l-.377-.403h2.21l-.416.481zm6.629.078a77.99 77.99 0 00-2.86 1.807c-2.82 1.859-4.718 2.742-6.564 3.028l-.52.078.69-.338c.922-.468 1.403-1.104 1.754-2.274.234-.78.403-1.092.884-1.599.546-.572.65-.624 1.105-.585.403.026.52.091.546.325.026.182-.04.3-.234.364-.43.13-.702.637-.52.975.182.338.702.546 1.105.442.48-.117.987-.741 1.065-1.3.052-.403-.013-.61-.273-1l-.324-.482h5.12l-.974.56zm2.638-.364c-2.82.767-4.198 3.354-3.197 5.992.052.143-.104.026-.338-.234-.611-.702-2.093-1.403-3.197-1.507l-.897-.091.845-.507a94.792 94.792 0 002.391-1.573c2.223-1.52 3.743-2.249 4.744-2.249.182-.013.013.078-.35.17zm62.973.286c.468.195 1.82.988 3.003 1.794 1.196.793 2.43 1.599 2.742 1.768l.56.312-.924.078c-1.156.104-2.157.559-3.015 1.364l-.65.611.195-.559c.104-.299.195-.922.195-1.377 0-2.08-1.365-3.718-3.574-4.303l-.65-.169.65.078c.35.04 1.014.221 1.468.403zm5.005.13c-.442.897-.195 1.664.675 2.08 1.092.52 1.911-.767.832-1.313-.169-.078-.312-.26-.312-.403 0-.403.793-.416 1.365-.039.494.325 1.053 1.313 1.3 2.314.182.702 1.235 1.806 1.949 2.04l.455.156-.584-.078c-1.781-.234-3.666-1.078-6.434-2.911A121.632 121.632 0 0093 69.241l-1.04-.624h4.966l-.312.611zm4.328-.234a2.728 2.728 0 00-.52.91l-.156.546-.221-.52a4.087 4.087 0 00-.598-.91l-.377-.403h2.236l-.364.377zm3.704.234c-1.053 1.027-1.17 2.21-.325 3.159.741.819 1.898.922 2.08.195.13-.507-.13-.95-.624-1.08-.611-.155-.637-.558-.065-1.13.767-.767 1.534-.507 1.716.546.117.715-.221 1.482-.936 2.119-1.196 1.052-2.73 1.182-4.224.363-1.118-.61-1.573-1.26-1.638-2.378-.052-.793-.039-.858.338-1.235.533-.52.871-.533.754 0-.052.3 0 .468.182.65.338.338.597.325.974-.065.377-.364.429-1.027.117-1.469l-.195-.286h2.483l-.637.611zm4.549-.286c-.143.182-.299.52-.351.741l-.078.416-.195-.39a5.267 5.267 0 00-.533-.74l-.337-.352h1.754l-.26.325zm4.276-.182c-1.091.208-2.391.975-3.587 2.106-1.118 1.053-1.131 1.053-1.04.61.052-.246.221-.714.39-1.039.247-.507.351-.598.78-.663.559-.09.728-.273.728-.806v-.35l1.664.012c1.325.013 1.533.04 1.065.13zm-82.352.377c.533.312 1.313 1.664 1.443 2.496.311 1.794-.676 3.353-2.12 3.353-1.312 0-2.443-1.248-2.118-2.352.17-.572.56-.897 1.066-.897.455 0 .65.26.611.806-.052.844.325.987.962.364.364-.364.39-.455.338-1.053-.052-.507-.156-.741-.494-1.092-1.495-1.547-4.068-.156-4.094 2.21 0 1.377 1 2.898 2.066 3.132.39.078.39.091.104.195-.312.117-1.416-.052-1.884-.286-1.196-.61-1.794-2.015-1.508-3.535.26-1.456 1.053-2.496 2.378-3.146 1.287-.624 2.444-.702 3.25-.195zm58.593-.247c1.482.325 2.69 1.196 3.275 2.392.897 1.846.455 3.834-1.053 4.64-.662.351-1.637.533-2.053.377-.208-.078-.17-.117.195-.182.61-.13 1.586-1.17 1.871-1.976.598-1.78-.234-3.522-1.897-3.977-.988-.26-2.17.364-2.457 1.313-.195.624-.078 1.105.364 1.508.611.572 1.027.338.858-.494-.156-.78.754-1.027 1.404-.377.663.663.403 1.793-.572 2.495-.416.3-.663.377-1.196.377-1.326 0-2.144-1-2.144-2.6 0-.753.064-.974.597-1.988.468-.897.69-1.183 1.066-1.39.56-.3.819-.313 1.742-.118zm-69.966 4.926c-1.287.676-2.145 2.47-1.664 3.419.325.624 1.092.949 1.378.572.325-.403.299-.637-.091-.975-.689-.611-.48-1.547.546-2.418.637-.546.949-.624.468-.117-.702.754-.806 1.417-.364 2.314.403.819 1.3 1.105 1.82.585.298-.3.324-.507.09-.845-.13-.169-.285-.208-.558-.156-.481.091-.78-.078-1.04-.572-.286-.559-.052-1.066.65-1.482 2.092-1.208 4.588.364 4.47 2.82-.038.716-.077.82-.311.859-.143.026-.364-.078-.507-.234-.312-.351-.663-.325-.91.052-.26.39-.156.65.364.91l.416.207h-.61c-.456 0-.703-.078-.989-.324-.468-.39-.819-.416-1.143-.052-.221.246-.221.298-.04.61.105.195.39.481.624.637l.442.3h-.35c-.56 0-1.248-.352-1.911-.975-.351-.325-.69-.585-.767-.585-.221 0-.78.61-.78.844 0 .637.988 1.664 1.91 2.015 1.08.403 2.366.351 3.367-.117 1.456-.689 2.093-1.937 1.976-3.9l-.065-1.065.338.312c.637.585 1.364.988 2.066 1.157.676.143.728.143.95-.143.311-.377.311-.598 0-.91-.235-.234-.222-.247.519-.312a3.722 3.722 0 001.352-.39c.689-.39.702-.429-.364 1.274-1.235 1.962-1.56 3.64-1.014 5.199l.247.702-.286-.182c-.48-.325-1.898-.624-2.522-.533l-.584.078.454-.364c.26-.195.728-.546 1.066-.767.611-.442.728-.728.468-1.222-.09-.169-.273-.247-.559-.247-.35 0-.572.17-1.455 1.066-1.196 1.235-1.833 1.78-1.001.845.312-.338.728-.988.936-1.443.22-.52.546-.975.831-1.196.481-.39.624-.87.273-1.013-.364-.13-.91.507-1.143 1.351-.13.442-.364 1.08-.533 1.404-.65 1.287-2.535 2.626-3.965 2.82-.337.04-1 .014-1.455-.064-1.066-.195-1.482-.43-.546-.325.806.104 1.17.013 1.274-.325.117-.364-.273-1.027-.611-1.04-.052 0-.3.169-.533.39-.455.39-.975.494-1.482.299-.182-.078-.13-.117.221-.17.403-.051.455-.103.455-.454 0-.351-.04-.39-.39-.364a6.9 6.9 0 01-.975-.052l-.585-.091.455-.065c.403-.065.455-.117.455-.468 0-.364-.026-.39-.48-.35-.469.038-1.17-.222-1.34-.482-.038-.078-.13-.442-.207-.845-.273-1.494.39-3.509 1.468-4.419.507-.442 1.885-1.248 2.119-1.234.078 0-.078.117-.338.246zm78.024.273c.923.468 1.118 1.118.546 1.807-.286.338-.403.39-.728.325-.467-.104-.753.117-.753.598 0 .416.299.637.87.637.78 0 1.34-.741 1.34-1.755 0-.676-.248-1.248-.677-1.547-.156-.117-.234-.208-.156-.208.325 0 1.209.806 1.469 1.326.377.78.351 1.066-.143 1.52-.377.352-.403.43-.286.755.156.468.65.546 1.131.169.897-.702.611-2.275-.611-3.432l-.533-.507.715.377c1.261.676 1.989 1.651 2.34 3.159.155.676.116 2.157-.065 2.638-.13.325-.923.65-1.352.56-.247-.053-.416-.014-.52.116-.286.338-.117.65.377.741.39.065.403.091.13.13-.182.013-.585.039-.897.039-.377.013-.61.078-.702.234-.195.312.104.624.611.637.338 0 .364.026.143.117-.533.22-1.053.143-1.56-.26-.442-.351-.52-.377-.767-.221-.156.104-.286.35-.312.598-.052.559.351.74 1.326.572.39-.078.69-.091.663-.04-.13.209-1.365.456-2.287.456-.832 0-1.105-.065-1.833-.43-1.638-.805-2.6-1.936-3.094-3.665-.325-1.117-.754-1.65-1.182-1.43-.364.209-.3.468.22.858.3.234.612.69.897 1.287.247.507.69 1.209.988 1.573.3.35.078.169-.48-.403-1.677-1.703-2.171-1.963-2.6-1.3-.3.468-.143.741.858 1.417.507.35.936.663.962.715.026.039-.364.078-.871.078-.728.013-1.105.09-1.677.35l-.754.352.182-.351c.091-.195.247-.69.338-1.118.286-1.378-.052-2.508-1.365-4.68-.455-.753-.793-1.377-.728-1.377.065 0 .182.091.273.195.208.247 1.326.585 1.937.585.377.013.429.026.247.143-.286.169-.312.936-.04 1.157.43.35 1.925-.195 2.873-1.066.403-.364.585-.468.52-.299-.052.143-.13.61-.169 1.053-.104 1.105.3 2.43.936 3.08.845.858 1.378 1.066 2.86 1.066 1.195 0 1.351-.026 2.001-.39.793-.442 1.443-1.222 1.443-1.755 0-.182-.117-.468-.273-.637-.35-.363-.676-.272-1.378.416-.559.572-1.144.845-1.793.858l-.39.013.39-.195c.507-.26.844-.675.844-1.026 0-.65-.701-.793-1.325-.273-.286.246-.533.325-.988.325H94.3l.455-.234c.533-.26.637-.585.312-.95-.286-.311-.598-.311-.897.014-.338.377-.689.338-.793-.091-.143-.56.143-1.95.52-2.496.819-1.183 2.548-1.585 3.873-.91zm-81.69 5.342c-.038.104-.077.065-.077-.078-.013-.143.026-.22.065-.169.039.04.052.156.013.247zm86.694.26c-.039.104-.078.065-.078-.078-.013-.143.026-.22.065-.169.039.04.052.156.013.247zM78.157 90.336c.364.325.494.533.442.676-.13.325-.455.26-.884-.156-.299-.312-.377-.494-.377-.949.013-.468.026-.52.143-.298.078.142.377.467.676.727zm-36.64-.169c-.091.43-.702 1.066-1.027 1.066-.091 0-.208-.104-.247-.22-.065-.144.104-.39.533-.807.338-.325.663-.559.728-.52.052.04.052.26.013.481z" fill="#F9EFD6"/><path d="M73.79 75.48c-.17.182-.221.56-.247 1.651l-.04 1.404-.623-.923c-.338-.52-.689-.936-.78-.936-.078 0-.273.091-.403.195-.247.182-.208.26.91 1.898.637.935 1.183 1.715 1.222 1.741.039.026.182-.039.312-.143.208-.143.26-.403.325-1.637l.078-1.456.636.936c.351.52.69.936.741.936.052 0 .221-.104.377-.234l.286-.234L75.427 77c-.636-.923-1.221-1.69-1.286-1.716-.078-.026-.234.065-.351.195zm-28.88.702c-1.6.559-2.002 2.703-.729 3.782 1.144.95 2.808.598 3.445-.74.532-1.144.052-2.392-1.157-2.951-.585-.273-.988-.286-1.56-.091zm1.364.949c.455.234.65.559.65 1.105 0 1.117-.988 1.728-1.95 1.234-.48-.247-.65-.558-.65-1.195.013-1.04 1.014-1.625 1.95-1.144zm24.344.35c-.364.17-.364.196-.039.95.143.337.26.65.26.701 0 .078-1.091.663-1.247.663-.04 0-.208-.325-.377-.715-.182-.39-.351-.715-.377-.715-.156 0-.728.312-.728.39 0 .091 1.677 3.666 1.755 3.744.052.065.714-.273.714-.364 0-.052-.143-.43-.325-.82l-.312-.727.676-.312.676-.312.351.754c.195.429.39.767.43.767.077 0 .597-.247.701-.338.065-.052-1.716-3.821-1.794-3.808-.052 0-.208.064-.364.142zm-22.368.429c-.209.443-.234.404.363.638l.507.207-.182.416c-.09.234-.377.884-.637 1.456-.26.559-.468 1.092-.468 1.183 0 .13.637.52.715.429.013-.026.338-.728.715-1.573.377-.832.715-1.52.767-1.52.04.012.221.09.403.194.468.273.61.234.754-.169l.13-.364-1.39-.61c-.755-.338-1.418-.611-1.457-.611-.039 0-.143.143-.22.325zm17.754 1.392l-.468.13-.078.858c-.039.48-.117 1.507-.156 2.274l-.078 1.404.364-.091c.546-.13.572-.156.572-.572 0-.351.065-.403.676-.585.87-.247.975-.247 1.144.065.143.26.52.325.949.156.182-.078.039-.364-1.027-1.846-.689-.962-1.287-1.793-1.339-1.832-.039-.04-.286-.026-.559.039zm.858 1.832c.39.533.351.663-.208.793l-.364.078V81.2c0-.442.052-.754.104-.689.052.078.273.351.468.624zM53.63 80.029c-1.741 2.768-2.04 3.314-1.871 3.418a.656.656 0 00.923-.195c.195-.299.234-.299.949-.156.663.13.767.195.87.533.079.221.195.429.273.481.182.13.728.13.728 0 0-.26-.546-4.25-.585-4.29-.026-.025-.26-.09-.52-.155-.441-.104-.48-.078-.766.364zm.69 1.82l.013.571-.416-.09a3.214 3.214 0 01-.468-.13c-.026-.027.117-.352.312-.716.415-.753.545-.662.558.365zm8.773-1.768c-.065.091-.3.572-.546 1.066-.234.494-.468.845-.533.78a76.5 76.5 0 01-.715-.923c-.572-.767-.637-.806-1.027-.728-.234.04-.416.078-.429.091 0 .013.078.95.195 2.093l.208 2.08.39-.04c.208-.025.416-.064.442-.09.026-.026-.013-.611-.065-1.3-.065-.676-.117-1.235-.104-1.235.026 0 .312.377.65.845.338.468.663.845.702.845.052 0 .299-.442.546-.975l.468-.988.078.819c.182 1.755.195 1.794.584 1.794.195 0 .39-.026.416-.052.04-.04-.026-.988-.143-2.119l-.194-2.054-.416-.039c-.234-.026-.455.026-.507.13zm-6.603.989c-.039.545-.117 1.507-.156 2.13l-.078 1.145h.936v-1.3h.702c.572 0 .78-.065 1.105-.338.506-.416.65-1.092.363-1.69-.272-.558-.727-.78-1.858-.883l-.936-.079-.078 1.014zm1.924.103c.494.494.078 1.157-.676 1.066-.325-.039-.351-.09-.39-.663l-.04-.61h.456c.247 0 .546.09.65.207zm-.728 12.465c-1.56.429-4.224 1.962-5.381 3.12-1.092 1.065-1.339 1.767-1.495 4.093-.156 2.665-.13 4.394.078 5.316.689 2.873 2.613 4.394 7.084 5.563 2.131.546 4.107.26 5.693-.831 1.585-1.079 3.418-3.068 4.107-4.42.48-.961.572-1.949.455-4.614-.17-3.535-.546-4.835-1.729-6.057-.65-.689-1.313-1.04-2.99-1.572-2.482-.793-4.406-.988-5.822-.598zm3.275 1.52c0 .17-.299.066-.364-.13-.026-.09.026-.13.156-.078.117.04.208.144.208.209zm-3.964.234c-.04.065-.195.13-.325.13s-.286-.065-.325-.13c-.052-.078.09-.13.325-.13.234 0 .377.052.325.13zm2.47.143c.051.078.064.17.025.195-.09.104-.74-.09-.74-.22 0-.17.61-.144.714.025zm3.704.247c0 .065-.091.13-.195.13-.104 0-.195-.065-.195-.13 0-.078.09-.13.195-.13.104 0 .195.052.195.13zm2.21.52c.077.143.09.26.025.26-.13 0-.416-.273-.416-.416 0-.208.247-.104.39.156zm-8.306.455c1.248.26 3.171.871 3.821 1.209.975.494 1.807 1.664 2.145 3.015.234.91.325 7.123.13 7.747a3.418 3.418 0 01-2.912 2.353c-1.26.129-4.185-.702-5.797-1.651-1.014-.585-1.91-1.508-2.326-2.379-.494-1.027-.598-2.209-.442-5.199.117-2.43.169-2.716.468-3.353.35-.728.494-.936.962-1.326.714-.61 2.248-.767 3.95-.416zm8.5.793c.117.182.182.429.13.546-.065.182-.13.13-.325-.234a2.87 2.87 0 01-.26-.559c0-.208.247-.078.455.247zm-1.26.169c.038.104-.013.156-.117.117a.371.371 0 01-.221-.221c-.04-.104.013-.156.117-.117a.37.37 0 01.22.221zm-.183 1.183c-.169.169-.636-.312-.506-.52.065-.117.182-.078.364.117.194.182.233.312.142.403zm1.248 3.652c0 .13-.052.247-.13.247-.065 0-.13-.156-.13-.338 0-.182.052-.299.13-.247.078.039.13.195.13.338zm-.728.728c.156 1.001.052 2.197-.195 2.041-.155-.091-.155-2.522 0-2.522.052 0 .143.221.195.481zm2.08 2.418c-.039.116-.13.22-.195.22-.143 0-.156-.441-.026-.571.143-.143.312.117.221.351zm-.832.389c0 .169-.09.416-.195.559-.208.273-.234.156-.117-.455.104-.467.312-.545.312-.104z" fill="#F9EFD6"/><path d="M55.008 98.148c-.22.22-.195.572.052.819.286.286.56.039.312-.26-.13-.156-.13-.247-.026-.351.091-.091.156-.208.156-.26 0-.156-.312-.13-.494.052zm-1.052.481c-.156.156-.273.325-.273.403 0 .065.117.247.273.403.207.208.311.234.428.117.105-.104.078-.195-.117-.338-.26-.195-.26-.195-.013-.39.196-.13.221-.221.117-.325-.104-.104-.22-.065-.415.13zm4.367.247c-.13.13-.221.338-.221.442 0 .286.35.533.598.442.195-.078.195-.104-.013-.338-.247-.273-.26-.26.429-.468.078-.026.156-.104.156-.182 0-.22-.728-.143-.95.104zm-2.795 1.274c-.48.117-1.157.857-1.326 1.468-.078.299-.156 1.157-.156 1.898-.013 1.131.04 1.43.273 1.937.507 1.039 1.638 1.728 3.406 2.066.675.117.792.104 1.364-.182.481-.234.715-.455.936-.897.286-.546.3-.702.247-2.274-.052-1.872-.182-2.353-.858-3.029-.65-.65-2.86-1.208-3.886-.987zm1.833 1.039c1.079.247 1.663.728 1.897 1.547.17.637.195 2.924.013 2.924s-.429-1.026-.338-1.455c.104-.559-.156-1.599-.493-1.911-.182-.169-.637-.338-1.222-.455-.962-.182-1.326-.364-1.326-.676 0-.234.325-.234 1.469.026zm-1.768.858c.052.091.104.767.104 1.495v1.326l.494.494c.26.285.48.61.48.727 0 .208-.038.208-.506-.039-.832-.415-1.118-.935-1.144-2.079-.013-.533 0-.871.04-.754.103.351.467.299.415-.065-.026-.182-.117-.273-.273-.273-.169.013-.22-.078-.22-.39 0-.234.038-.468.09-.507.13-.143.403-.104.52.065zm2.249.559c.416.208.572.585.494 1.183-.04.338-.091.377-.572.416-.455.039-.585-.013-.82-.312-.26-.338-.376-1.196-.181-1.391.143-.156.689-.104 1.079.104zm-.806 2.249c.065.221-.43.195-.624-.039-.247-.286-.026-.507.299-.286.143.091.299.247.325.325zm1.442.702c.221.714.13 1.013-.299 1.013-.558 0-.831-1.039-.39-1.494.313-.299.481-.182.69.481z" fill="#F9EFD6"/><path d="M57.4 103.035c-.026.052-.013.182.052.273.13.221.403.065.299-.182-.078-.208-.247-.26-.351-.091zm-.338.403c0 .273.169.533.338.533.22 0 .234-.286.026-.494-.182-.182-.364-.208-.364-.039zm.806 2.56a.403.403 0 00.208.286c.117.039.169-.026.13-.182a.403.403 0 00-.208-.286c-.117-.039-.17.026-.13.182zm3.366-3.899c-.13.286-.117.403.052.65.104.169.286.312.39.312.234 0 .26-.208.052-.338-.091-.052-.117-.273-.078-.52.09-.546-.182-.611-.416-.104zm-8.695 1.897c-.221.221-.195.702.052.936.364.377.701.182.35-.208-.181-.208-.194-.299-.064-.494.09-.143.155-.286.155-.325 0-.13-.337-.065-.493.091zm8.552.807c0 .208.091.351.273.403.364.117.403.039.208-.364-.195-.442-.48-.455-.48-.039zm-6.511 2.495c-.235.273 0 .624.454.676.364.052.468-.195.143-.312a.394.394 0 01-.195-.325c0-.298-.169-.311-.403-.039zm5.861.624c-.247.312-.104.793.247.832.43.065.689-.221.3-.312-.3-.091-.378-.247-.157-.377.143-.091.052-.325-.117-.325-.065 0-.182.091-.273.182zm-3.665.221c-.507.286-.143 1.3.377 1.092.22-.078.22-.091.013-.247-.286-.208-.3-.39-.04-.598.105-.091.157-.208.118-.273-.091-.142-.195-.142-.468.026z" fill="#F9EFD6"/></svg>