<svg width="70" height="67" fill="none" xmlns="http://www.w3.org/2000/svg"><path d="M34.026.11c-1.822.404-3.193 1.628-3.806 3.41-.178.528-.209.752-.217 1.512-.015 1.503.411 2.55 1.465 3.611.496.504.752.698 1.279.953.96.465 1.488.574 2.519.527 1.41-.062 2.41-.496 3.37-1.449a5.102 5.102 0 001.225-1.922c.155-.418.202-.705.233-1.449.038-1.085-.07-1.612-.512-2.519-.418-.86-1.371-1.805-2.263-2.24-1.07-.519-2.216-.674-3.294-.433zm2.24.55c1.185.288 2.41 1.272 2.937 2.357.426.876.542 1.434.495 2.402-.046 1.008-.24 1.597-.782 2.395-.884 1.302-2.271 2.023-3.867 2.023-1.326 0-2.356-.434-3.31-1.388-.922-.93-1.348-1.96-1.348-3.262 0-1.248.41-2.294 1.248-3.178C32.879.692 34.49.227 36.265.661z" fill="#F9EFD6"/><path d="M34.49.77c-1.464.193-2.79 1.147-3.41 2.44-.34.73-.464 1.264-.449 2.055a4.4 4.4 0 004.418 4.34c1.24 0 2.232-.419 3.13-1.31.892-.891 1.31-1.891 1.31-3.108 0-2.674-2.363-4.758-4.998-4.417zm-.65.387c.193.109.193.434-.008.543-.349.186-.667-.341-.326-.535.163-.1.155-.1.334-.008zm1.38.194c.24.116.317.256.317.542 0 .24-.124.318-.178.117-.086-.318-.21-.148-.21.286 0 .613-.27.9-.573.597-.085-.077-.124-.263-.124-.581 0-.465-.062-.55-.233-.341-.085.1-.116.1-.162.023-.117-.178-.078-.302.155-.535.263-.255.643-.302 1.007-.108zm2.053.225c.287.124.589.465.589.674 0 .225-.132.17-.217-.085-.1-.28-.504-.543-.837-.543-.333 0-.752.295-.845.605-.085.286-.194.325-.194.062 0-.388.535-.814 1.031-.822.116 0 .326.047.473.109zm-3.93.201c.063 0 .218.1.342.225.232.232.302.465.131.442-.054 0-.1.023-.1.07 0 .038.062.07.14.061.162-.023.162.055.022.388-.147.349-.372.527-.728.573-.535.07-1.023-.372-1.023-.93 0-.426.643-.984.992-.86.062.016.155.031.225.031zm3.93.388c.085.085.14.17.116.186-.015.023-.31.062-.65.093l-.62.054.123-.186c.264-.395.713-.457 1.03-.147zm1.209.503c.194.233-.085.558-.395.465-.334-.108-.233-.58.124-.58.093 0 .217.053.27.115zm-6.34.938c.078.217.109.24.233.163.287-.186.604.263.34.48-.154.132-.464.078-.495-.085-.016-.077-.147-.256-.295-.403-.217-.217-.263-.318-.263-.597v-.333l.194.264c.108.147.232.38.286.511zm5.332-.628c.287.148.465.48.465.86 0 .411-.41.807-.844.807-.605 0-.938-.326-.938-.915 0-.674.697-1.07 1.317-.752zm-1.712.535c.348.574.224.83-.179.349-.232-.271-.302-.868-.085-.69.062.054.178.202.264.341zm-1.488-.194c.248-.209.356.357.108.582-.325.302-.682-.109-.48-.55.085-.194.108-.202.178-.078.062.116.093.124.194.046zm4.417.458c.062.434-.023.76-.163.635-.17-.132-.217-.442-.124-.79.109-.372.225-.31.287.155zm-3.17.403c.48.294.682.883.465 1.356-.046.108-.131.194-.186.194-.085 0-.077-.055.016-.264.24-.496-.039-1.124-.558-1.255a1.168 1.168 0 00-.512.023c-.302.085-.395.015-.155-.124.217-.132.66-.093.93.07zm-3.619.155l.186.147-.17.008c-.31 0-.248.124.178.333.333.163.418.248.418.395 0 .1-.054.225-.124.287-.1.077-.186.062-.55-.116-.465-.225-.55-.225-.41.023.07.14.061.163-.07.163-.202 0-.396-.287-.396-.59 0-.27.24-.627.496-.728.233-.093.24-.093.442.078zm1.14.31c-.04.503-.171.744-.295.542-.109-.17-.093-.52.039-.775.193-.38.294-.287.255.233zm1.286-.148c.132.109.201.233.201.38 0 .248-.116.372-.186.194-.077-.217-.178-.116-.286.287-.093.34-.14.418-.295.434-.31.046-.403-.163-.271-.59.14-.472.14-.503-.039-.41-.263.147-.325-.062-.085-.302.21-.21.69-.21.96.007zm1.093.186c.186.179.263.566.14.69-.07.062-.8-.65-.8-.783 0-.178.458-.116.66.093zm3.65.303c.209.209.263.325.263.558 0 .286-.17.573-.348.573-.062 0-.078-.077-.055-.194.047-.255-.007-.248-.45.078-.394.287-.534.325-.681.178-.202-.201-.1-.442.294-.736.38-.287.427-.41.148-.41-.186-.001-.194-.125-.008-.226.263-.162.566-.093.837.179zm-2.077.062c-.016.054.039.093.116.093.194-.016.163.224-.054.426-.264.248-.59.178-.59-.124a.57.57 0 01.133-.349c.14-.155.418-.194.395-.046zm-1.86.503c.023.217-.008.256-.178.303-.225.054-.427-.078-.427-.272 0-.193.17-.325.388-.302.155.016.201.07.217.271zm-1.945.303c.015.054-.078.085-.272.077-.798-.015-1.232.992-.666 1.558.217.217.201.31-.031.186-.178-.093-.403-.535-.403-.798 0-.326.325-.868.62-1.016.287-.147.705-.147.752-.007zm3.51 0c0 .178-.627.728-.829.728-.116 0-.054-.21.124-.418.17-.202.705-.434.705-.31zm-4.882.558c-.039.17-.147.395-.233.496l-.147.178-.008-.364c0-.28.047-.411.21-.613.255-.294.317-.193.178.303zm3.193-.225c.232.263.271.387.124.364-.054 0-.1.023-.1.07 0 .039.046.07.1.07.116-.016.124.286 0 .55-.116.263-.434.426-.83.426-.612 0-1.022-.659-.782-1.248.24-.581 1.062-.705 1.488-.232zm-1.976.1c-.318.791-.473 1.062-.558.993-.148-.117-.194-.465-.093-.675.124-.279.76-.581.65-.317zm4.75.256c.287.148.465.48.465.86 0 .218-.062.342-.263.543-.225.225-.318.264-.628.264s-.403-.04-.628-.264c-.224-.225-.263-.318-.263-.628s.039-.403.263-.627c.303-.303.667-.35 1.054-.148zm1.163 0c.116.14.077.349-.093.458-.256.155-.535-.155-.419-.465.055-.14.388-.14.512.007zm-5.386.892c.131.147.131.155.007.155-.093 0-.124.054-.108.17.03.225-.186.271-.442.109-.21-.14-.263-.473-.093-.535.217-.093.504-.047.636.1zm2.503.155c.201.193.232.403.039.333-.101-.039-.117-.016-.086.116.04.124.016.17-.085.17-.24 0-.473-.232-.473-.464 0-.334.326-.419.605-.155zm-3.317.465c.186.34-.295.643-.543.348-.077-.093-.077-.162-.015-.31.108-.24.434-.263.558-.038zm2.395.046c.201.248.217.775.038 1.023-.17.248-.465.349-.674.24l-.163-.093.17-.062c.241-.093.218-.224-.038-.224-.713 0-1.054-.217-.876-.543.07-.132.163-.155.636-.155.527 0 .542-.008.426-.14-.186-.201-.163-.247.093-.247.155 0 .28.07.388.201zm1.712.17c0 .032-.124.187-.279.342-.426.449-.837.511-.527.077.21-.279.806-.589.806-.418z" fill="#F9EFD6"/><path d="M33.476 1.35c-.03.07-.015.163.031.21.124.123.364.038.364-.132 0-.202-.325-.264-.395-.078zm-.776.768c-.062.17.024.255.14.139.07-.07.07-.116 0-.186-.07-.07-.1-.054-.14.047zm.551-.032c-.031.047-.023.124.023.17.047.047.093.047.132-.015.031-.046.023-.124-.023-.17-.047-.047-.093-.047-.132.015zm-.93.465a.143.143 0 00.024.17c.046.047.093.047.131-.015.031-.046.024-.124-.023-.17-.046-.047-.093-.047-.132.015zm.465.069c-.054.093.093.186.194.124.085-.054.03-.194-.078-.194-.038 0-.085.031-.116.07zm.52.273c.007.078.062.132.1.132.117-.008.093-.186-.023-.225-.07-.023-.1.016-.078.093zm-.752.194c-.055.093.093.186.193.124.086-.054.031-.194-.077-.194-.039 0-.085.031-.116.07zm.62.085c-.086.131.038.248.162.147.055-.047.086-.116.062-.155-.054-.093-.162-.085-.224.008zm4.898-.496c-.093.093-.062.325.046.364.163.062.302-.062.271-.225-.023-.147-.224-.232-.317-.14zm-5.689 1.169c-.139.054-.123.326.024.388.062.023.178-.008.24-.078.1-.1.108-.147.023-.24-.1-.132-.132-.14-.287-.07zm4.278-.605c-.054.094.093.187.194.125.085-.055.03-.194-.078-.194-.038 0-.085.03-.116.07zm.542 0c-.054.094.093.187.194.125.085-.055.03-.194-.078-.194-.038 0-.085.03-.116.07zm.465.32c-.031.046-.023.124.023.17.047.047.093.047.132-.015.031-.047.023-.124-.023-.171-.047-.046-.093-.046-.132.016zm-1.395.146c-.054.093.093.186.194.124.085-.055.031-.194-.077-.194-.04 0-.086.03-.117.07zm.55-.015c-.085.086-.046.179.07.179.062 0 .116-.031.116-.07 0-.1-.124-.17-.186-.109zm.458.255c-.077.132.093.287.194.186.062-.062.047-.116-.03-.178-.078-.07-.125-.07-.164-.008zm-.69.21c-.085.085-.047.178.07.178.062 0 .116-.03.116-.07 0-.1-.124-.17-.186-.108zm.581.132c-.07.077-.07.124-.007.163.132.077.287-.093.186-.194-.062-.062-.117-.047-.178.03zm-2.488 1.17c-.085.1-.085.147.024.248.162.162.38.07.348-.148-.03-.217-.232-.271-.372-.1zm-.658.814a.143.143 0 00.024.17c.046.047.093.047.131-.015.031-.046.024-.124-.023-.17-.046-.047-.093-.047-.132.015zm.55-.023c-.085.085-.046.178.07.178.062 0 .116-.031.116-.07 0-.1-.124-.17-.186-.108zm-1.014.481c-.055.092.093.185.193.123.085-.054.031-.193-.077-.193-.039 0-.085.03-.116.07zm.541 0c-.054.092.093.185.194.123.085-.054.031-.193-.077-.193-.04 0-.086.03-.117.07zm.543.24c-.054.093.015.232.124.232.093 0 .093-.21 0-.271-.039-.023-.093-.008-.124.039zm-.775.225c-.054.093.093.186.194.124.085-.054.03-.194-.078-.194-.038 0-.085.031-.116.07zm.62.084c-.03.046-.023.124.023.17.047.047.093.047.132-.015.031-.047.023-.124-.023-.17-.046-.047-.093-.047-.132.015zm2.479-.473c-.054.093.094.186.194.124.086-.054.031-.194-.077-.194-.039 0-.085.031-.116.07zm.544 0c-.055.093.093.186.193.124.086-.054.031-.194-.077-.194-.039 0-.085.031-.116.07zm.465.318c-.031.046-.024.123.023.17.046.046.093.046.132-.015a.144.144 0 00-.024-.171c-.046-.046-.093-.046-.131.016zm-1.396.148c-.054.093.093.186.194.124.085-.054.03-.194-.078-.194-.039 0-.085.031-.116.07zm.551-.016c-.085.085-.047.178.07.178.062 0 .116-.03.116-.07 0-.1-.124-.17-.186-.108zm.456.256c-.077.131.094.286.195.186.062-.062.046-.117-.031-.179-.078-.07-.124-.07-.163-.007zm-.689.208c-.085.086-.046.179.07.179.062 0 .117-.031.117-.07 0-.1-.124-.17-.187-.108zm.613.102c-.031.047-.024.124.023.17.047.047.093.047.132-.015.03-.046.023-.124-.023-.17-.047-.047-.093-.047-.132.015zm.992-1.194c-.023.062.015.178.085.248.108.116.14.116.24.008.07-.07.101-.178.07-.248-.062-.163-.333-.17-.395-.008zm-6.192 1.457c-.07.186.03.372.178.341.093-.015.14-.093.14-.217 0-.224-.249-.317-.318-.124z" fill="#F9EFD6"/><path d="M44.52 4.675c-.303.093-.535.473-.535.868 0 .356.364 1.007.72 1.302.179.147.729.48 1.217.744 1.271.69 1.674.969 2.286 1.589 1.21 1.216 1.636 2.805 1.124 4.169-.217.589-.418.837-.232.287.503-1.465-.365-3.395-1.83-4.038-.51-.232-1.356-.287-1.62-.116-.232.155-.255.434-.038.628.14.124.202.131.55.054.442-.109 1.225-.124 1.442-.039.1.047.023.07-.248.1-.364.04-.388.055-.41.28-.04.372.115.45.681.325.426-.085.496-.077.736.047.148.085.272.178.272.217 0 .039-.078.015-.17-.047-.435-.263-.791-.209-.745.117.023.162.078.193.419.224.41.039.596.148.736.411.077.132.062.132-.147-.023-.28-.21-.504-.163-.465.093.015.14.085.186.27.201.388.039.59.349.528.79-.116.822-.52 1.566-1.062 1.946l-.256.178.217-.287c.326-.434.442-.774.442-1.317 0-.395-.046-.589-.24-.969-.434-.883-1.07-1.27-2.534-1.565-.868-.178-1.1-.302-1.1-.612 0-.179.038-.233.224-.264.38-.077.41-.55.039-.643-.287-.07-.628.1-.768.403-.155.333-.093.589.24.876.303.27.582.356 1.543.472.821.101 1.356.326 1.767.744.976.985.907 2.403-.132 3.108-.318.217-.442.256-.821.256-.52 0-1.008-.155-1.372-.434-.41-.318-.473-.512-.264-.922.132-.264.155-.38.093-.489-.116-.209-.263-.255-.488-.132-.194.093-.194.093-.14-.162.086-.364.427-.922.683-1.1.65-.466 1.48-.365 2.015.247.612.698.472 1.674-.31 2.07-.318.162-.334.162-.582.023-.372-.194-.325-.45.132-.768.434-.302.543-.565.357-.844-.148-.233-.473-.264-.822-.085-.457.232-.65.976-.403 1.534.186.426.465.55 1.077.504.388-.031.465-.07.729-.349.798-.852.496-2.255-.59-2.743-.627-.287-1.44-.117-1.999.418-.89.868-.976 2.147-.201 3.03.38.434.883.698 2.061 1.085.48.163.946.349 1.031.419.14.124.147.147.047.34-.101.187-.101.233 0 .334.155.155.232.147.418-.039.395-.395 0-.93-.922-1.24-.302-.108-.52-.201-.48-.217.131-.046 2.363.225 2.875.349.589.14 1.488.55 1.82.83l.233.2-.387-.17c-.52-.225-1.279-.225-1.713 0-.55.28-.938.876-.752 1.163.24.387.613.31.876-.186.24-.45.59-.651 1.132-.651.627 0 1.224.317 1.464.775.148.279.148.93.008 1.263-.357.845-1.372.845-1.666 0-.1-.287-.1-.341.015-.52.217-.325.628-.232.442.101-.201.38.302.799.62.512.271-.248.333-.922.109-1.263-.17-.256-.613-.427-.946-.364-.356.07-.752.465-.876.883-.201.666.202 1.41.907 1.682.403.155.76.1 1.155-.17l.294-.195-.224.372a11.69 11.69 0 01-.55.83c-.326.441-.334.45-.334.209 0-.302-.163-.705-.34-.853-.272-.224-.753.225-.582.55a.72.72 0 00.279.233c.108.054.225.17.256.264.054.14.038.155-.163.124-.194-.031-.225-.008-.225.147.008.1.054.271.116.38.132.224.163 1.55.04 1.55-.04 0-.078-.024-.078-.062 0-.117-1.364-1.876-1.977-2.542-1.325-1.457-3.433-3.03-5.246-3.93a19.547 19.547 0 00-5.17-1.689c-1.077-.202-3.813-.287-4.967-.155a18.656 18.656 0 00-9.649 4.014c-1.38 1.116-3.007 2.922-3.813 4.232l-.294.473-.055-.775c-.046-.675-.038-.806.093-1.085.225-.465.21-.597-.077-.558-.132.023-.232.023-.232.007 0-.124.193-.348.387-.45.279-.146.31-.425.078-.658-.202-.201-.326-.194-.52.016-.186.201-.263.426-.271.76a1.244 1.244 0 01-.023.232c-.039 0-.752-1.031-.938-1.357l-.217-.387.279.248c1.248 1.077 2.968-.86 1.798-2.03-.434-.435-1.023-.427-1.434.007-.496.527.039 1.767.566 1.294.124-.116.147-.201.109-.465-.04-.294-.024-.333.1-.333.442 0 .535.612.155 1.039-.581.666-1.387.286-1.573-.744-.155-.868.589-1.612 1.604-1.612.52 0 .853.201 1.14.697.24.411.511.496.774.233.202-.202.163-.457-.131-.845-.411-.535-1.387-.729-2.194-.442l-.348.124.193-.163c.628-.527 1.721-.86 3.38-1.038 1.456-.155 1.495-.147.782.108-.728.264-1.062.55-1.062.915 0 .186.055.287.202.38.186.124.201.124.325 0 .109-.101.109-.155.031-.28a.72.72 0 01-.093-.263c0-.14.489-.364 1.264-.596 1.294-.38 1.922-.799 2.263-1.504.519-1.054.007-2.449-1.085-2.953-.527-.248-.985-.24-1.52.024-.612.317-.86.705-.898 1.433-.031.489-.008.613.147.915.271.503.597.697 1.155.697.387 0 .488-.03.705-.225.21-.186.248-.279.279-.681.046-.698-.233-1.147-.79-1.24-.597-.093-.799.472-.318.899.155.131.31.24.356.24.039 0 .116.093.163.201.085.186.077.225-.132.388-.271.224-.488.193-.876-.093-.744-.574-.612-1.736.264-2.248.837-.488 1.76-.14 2.193.822.217.473.21.558-.023.465a.354.354 0 00-.349.046c-.21.148-.201.287 0 .651l.17.295-.17.279c-.116.178-.325.349-.643.504-1.34.674-2.65-.109-2.658-1.582 0-.457.038-.604.232-.953.442-.806 1.116-1.209 2.224-1.333 1.287-.147 1.845-.457 1.845-1.038 0-.496-.535-.876-.93-.667-.264.14-.178.489.14.582.185.054.247.116.247.248 0 .317-.24.457-1.131.635-1.108.233-1.643.473-2.093.953-.488.52-.682.985-.682 1.612 0 .527.179 1 .527 1.388.155.17.155.178.008.1-.542-.287-1.116-1.255-1.178-2.015-.046-.542.062-.713.488-.783.233-.038.31-.085.326-.224.039-.24-.178-.303-.48-.132l-.24.14.224-.24c.186-.202.294-.249.62-.264.333-.024.395-.047.418-.186a.31.31 0 00-.1-.264c-.109-.085-.186-.077-.527.062-.388.155-.395.163-.217.016.263-.225.511-.264.992-.163.472.109.643.039.643-.263 0-.28-.186-.372-.643-.334-.388.04-.396.031-.17-.062.294-.131.945-.131 1.526-.015.38.077.465.077.558-.016.201-.217.217-.45.039-.627-.148-.148-.225-.163-.76-.132-.705.046-1.162.24-1.705.728-.76.682-1.186 1.612-1.186 2.589 0 .34.047.72.124.93.109.302.109.325.008.194-.209-.272-.426-1.117-.426-1.659 0-1.837 1.17-3.317 3.642-4.588 1.419-.728 2.07-1.558 1.853-2.34-.117-.419-.341-.597-.768-.597-.542 0-.906.333-.806.736.078.318.303.388.613.194.263-.163.263-.163.34-.008.303.558-.209 1.178-1.704 2.054-1.814 1.077-2.728 2.085-3.131 3.487-.271.938-.047 2.442.473 3.123.108.148.185.28.17.295-.015.015-.341-.163-.72-.403-.884-.558-1.954-1.062-2.597-1.232-.744-.194-1.72-.179-2.209.038-.473.21-.72.434-.868.768-.217.519.148.798.38.294.07-.14.24-.387.372-.534.729-.838 2.364-.644 4.371.519l1.403.806c.604.34.48.294-1.054-.365-1.558-.666-2.395-.899-3.054-.837-.93.093-1.542.45-1.635.961-.147.799.643 1.411 1.24.946.364-.287.21-.845-.233-.845-.216 0-.224-.015-.07-.31.171-.325.535-.488 1.086-.488.744 0 1.38.186 2.751.822l.426.201h-.434c-.938.016-1.542.364-1.542.899 0 .457.295.418.488-.054.07-.163.24-.364.38-.45.217-.14.341-.162.837-.131.318.023.876.123 1.24.232l.659.186-.388.054c-1.658.217-2.767.558-3.379 1.054l-.279.217.078-.333c.062-.271.054-.38-.07-.628-.264-.535-.984-.736-1.201-.333-.132.256-.024.527.279.666.147.07.287.179.31.233.023.07-.039.054-.163-.047-.357-.279-.651-.17-.651.24 0 .163.047.241.194.295.232.093.31.248.209.434-.07.117-.078.117-.132-.054-.07-.21-.17-.302-.356-.302-.202 0-.24.224-.07.364.233.201.186.318-.17.418-.465.125-.93.047-1.69-.279a9.084 9.084 0 00-1.124-.395c-1.867-.434-3.68.426-4.394 2.1-.07.17-.132.264-.132.202-.015-.217.473-1.093.799-1.45.418-.472 1.007-.829 1.93-1.177.666-.256.774-.272 1.642-.28.512 0 1.194.008 1.52.032.472.023.635 0 .797-.101.225-.155.28-.341.07-.24-.077.03-.697.07-1.38.085l-1.24.023.272-.147c.72-.395 1.062-1.116.697-1.48-.209-.21-.58-.17-.79.085-.178.217-.178.403.016.573.124.109.17.117.27.04.094-.078.125-.07.164.023.124.333-.388.666-1.83 1.178-1 .356-1.17.441-1.689.829-1.201.899-1.76 2.573-1.286 3.898.085.24-.35-.341-.558-.752a1.693 1.693 0 01-.186-.728c0-.318.038-.403.31-.698.356-.387.364-.442.155-.65-.202-.202-.256-.194-.566.077-.318.279-.457.72-.357 1.147.109.48.086.465-.302-.179-.318-.55-.395-.62-.612-.643-.194-.015-.271.016-.372.17-.17.256-.062.45.41.752.404.256.404.264-.023.109a2.177 2.177 0 00-1.402.015c-.543.186-1.202.86-1.388 1.419-.217.674-.573 1.294-.937 1.627-.357.326-.535.372-.752.21-.116-.078-.124-.132-.047-.35.109-.317.016-.441-.263-.371-.256.062-.403.472-.287.775.248.658 1.31.279 1.852-.667l.217-.38.047.396c.093.782.488 1.24 1.062 1.24.317 0 .465-.109.465-.357 0-.232-.202-.372-.496-.356-.706.046-1.054-.992-.636-1.884.248-.542.783-1.007 1.333-1.17.922-.263 1.72.031 2.705 1 .597.581.604.597.194.294-1.194-.868-2.225-1.015-2.86-.41-.52.488-.597 1.263-.178 1.681.162.17.255.194.55.179.279-.016.372-.062.442-.21.124-.24.023-.496-.21-.55-.255-.062-.27-.271-.03-.511.185-.186.24-.202.805-.179.465.024.682.078 1.016.248.457.24 1.65 1.07 1.596 1.116-.015.016-.194-.007-.403-.062-.852-.193-2.178-.077-2.829.248-.147.07-.65.558-1.123 1.078-1.24 1.387-2.108 1.937-3.046 1.937-.876 0-1.108-.387-.597-.984l.186-.217.233.217c.271.256.488.232.682-.07.116-.17.116-.201-.024-.434-.325-.573-1.038-.65-1.573-.17-.279.255-.294.255-.527.147-.294-.147-.604-.085-.76.163-.232.348.132.65.442.372.225-.202.458-.07.458.248 0 .496.248.806.767.968.155.04.093.055-.24.062l-.45.008v.543h17.5l.139-.35c.132-.363.217-.425.287-.24.023.063.155.171.294.24.473.249 1.054-.038.845-.425-.14-.256-.318-.31-.558-.17-.201.115-.225.115-.349-.009-.17-.17-.116-.34.527-1.41 2.612-4.387 7.091-7.502 12.082-8.401a17.797 17.797 0 018.835.612 17.705 17.705 0 019.726 7.781c.527.884.62 1.248.38 1.45-.093.077-.155.077-.271.007-.256-.163-.527-.116-.628.109-.116.255-.015.434.326.527.317.093.705-.101.868-.434l.108-.24.21.48.2.473 8.743-.016 8.742-.023.023-.256.023-.248-.527-.008c-.418-.007-.48-.015-.302-.07.418-.131.666-.457.736-.968.054-.341.256-.457.426-.233.055.078.17.124.287.101.147-.015.194-.077.21-.263.015-.148-.024-.28-.101-.341-.179-.148-.636-.14-.783.015-.116.116-.147.109-.318-.093-.271-.325-.79-.504-1.14-.387-.31.1-.666.48-.666.705 0 .178.264.457.427.457.07 0 .209-.093.31-.201.224-.24.418-.17.612.232.163.349.163.395-.085.59-.341.263-1.14.2-1.845-.148-.558-.271-.984-.667-2.286-2.07-.48-.519-.651-.65-.992-.767-.806-.263-1.907-.294-2.852-.077-.17.046-.093-.039.356-.372.992-.736 1.419-.93 2.132-.969.519-.03.65-.008.79.109.248.209.271.527.039.558-.271.038-.38.348-.217.596.194.287.674.272.984-.03.194-.194.225-.287.225-.644-.008-1.496-1.65-1.821-3.209-.635-.201.155-.387.263-.403.24-.077-.07 1.109-1.062 1.558-1.31.41-.225.535-.256 1.046-.256.473 0 .651.04.97.21.75.395 1.146 1.015 1.146 1.798 0 .751-.318 1.2-.783 1.108-.279-.054-.58.256-.488.504.054.155.116.178.465.178.326-.008.434-.047.628-.233.263-.248.387-.58.41-1.038.008-.178.016-.318.032-.318.007 0 .093.14.178.31.24.465.713.891 1.124 1.008.325.093.38.085.565-.055.396-.294.264-1.077-.17-1.015-.14.023-.163.07-.14.357.016.279-.007.34-.17.41-.271.124-.659-.131-1.039-.697-.286-.434-.333-.527-.589-1.256-.356-1-1.58-1.666-2.557-1.395-.17.047-.318.07-.333.055-.016-.016.116-.117.286-.233.24-.155.31-.256.31-.418 0-.272-.124-.403-.395-.403-.232 0-.41.193-.798.868-.225.41-.318.48-.202.17.194-.496.008-1.147-.403-1.449-.193-.147-.217-.147-.403-.023-.279.178-.248.356.109.728.263.264.31.364.31.628 0 .333-.31 1.023-.62 1.403l-.163.193.062-.232c.039-.132.062-.566.054-.969 0-.573-.038-.837-.178-1.178-.387-1-1.255-1.805-2.402-2.24-1.488-.558-1.69-.643-1.984-.837-.217-.139-.318-.27-.333-.418-.024-.217.046-.271.193-.124.062.062.132.039.248-.077.217-.217.21-.287-.062-.558-.263-.256-.465-.287-.69-.094-.247.217-.263.427-.077.799.132.255.294.418.605.604l.426.256-1.24-.023c-.682-.016-1.302-.055-1.372-.093-.225-.101-.163.085.07.24.163.108.318.132.752.1.302-.023.984-.03 1.519-.03.937.008.992.015 1.743.318.79.31 1.488.72 1.798 1.046.194.209.72 1.061.72 1.17 0 .046-.13-.132-.294-.38a3.487 3.487 0 00-1.449-1.27c-1.178-.551-2.278-.52-3.813.131-.55.233-.783.287-1.186.287-.279 0-.589-.039-.682-.101l-.186-.1.171-.179c.201-.217.163-.426-.078-.426-.108 0-.193.085-.27.248-.086.209-.117.232-.156.116-.077-.186.008-.372.194-.419.294-.077.294-.588-.008-.681-.225-.078-.442.023-.573.255-.062.117-.109.163-.117.109 0-.14.357-.48.504-.48.202 0 .295-.373.155-.598-.07-.1-.17-.201-.232-.224-.194-.078-.643.124-.86.38-.179.209-.202.294-.17.643l.03.395-.465-.294c-.597-.396-1.457-.66-2.58-.806a12.68 12.68 0 01-.923-.14c-.015-.015.349-.116.814-.232 1.418-.357 1.984-.264 2.263.371.085.187.186.365.232.388.109.07.303-.108.303-.279 0-.511-.504-.845-1.395-.914l-.582-.047.822-.364c.457-.202 1.03-.419 1.279-.496.55-.155 1.387-.178 1.658-.039.511.271.729.705.356.705-.387 0-.503.489-.201.822.279.294.697.256.992-.078.52-.589.364-1.17-.41-1.557-.412-.202-.551-.233-1.125-.233-.798 0-1.356.163-2.968.86-.627.271-1.17.496-1.2.496-.102 0 1.805-1.1 2.425-1.402.76-.372 1.69-.613 2.317-.613.79.008 1.24.303 1.627 1.07.163.325.388.31.419-.024.039-.364-.264-.736-.79-1.007-.411-.201-.543-.225-1.124-.225-1.14.008-2.077.334-3.604 1.264a24.3 24.3 0 01-.938.55c-.015 0 .086-.17.225-.372.403-.605.55-1.17.543-2.108 0-.636-.047-.915-.179-1.279-.418-1.147-1.426-2.224-2.906-3.092-1.465-.868-1.906-1.287-1.906-1.837 0-.38.14-.488.387-.302.24.186.333.194.488.015.17-.186.17-.58 0-.728-.224-.202-.658-.287-.96-.186zM24.06 13.02c.193.194.24.303.24.558l-.008.326-.108-.21a1.377 1.377 0 00-.388-.371c-.248-.155-.349-.364-.217-.489.1-.108.248-.046.48.186zm22.335-.116c.093.109.054.163-.264.434-.201.17-.364.364-.364.442-.008.108-.015.108-.085-.016-.109-.193.046-.627.294-.829.24-.186.287-.194.419-.03zm-32.697 4.72c.915.45 1.527 1.217 1.798 2.247.077.31.186.527.325.644.225.193.326.193.45-.016.07-.108.031-.186-.24-.418a2.18 2.18 0 01-.512-.713c-.1-.233-.333-.62-.511-.853-.256-.34-.194-.286.318.248.89.938 1.209 1.07 1.456.597.132-.233.032-.426-.333-.643a4.846 4.846 0 01-.597-.419l-.27-.232.394.038c.427.047 1.147-.123 1.489-.348l.193-.124-.124.232c-.186.357-.31 1.1-.248 1.488.078.543.333 1.147.775 1.876.225.364.45.744.504.852.093.186.093.186-.047.07-.434-.372-1.085-.52-1.674-.372-.767.178-1.379 1.038-1.379 1.93 0 1.023 1 1.89 1.883 1.635.752-.225 1.14-1.008.744-1.511-.364-.465-.744-.419-.65.093.092.519-.404.666-.83.248-.21-.21-.232-.28-.201-.582.147-1.247 1.875-1.534 2.394-.395.101.225.148.504.148.922 0 .535-.031.66-.264 1.124-.364.705-.666.907-1.356.9-1.372-.024-2.503-1.047-2.62-2.35-.054-.611.078-1.076.427-1.487.356-.419.782-.612 1.356-.612.248 0 .519-.04.604-.078.202-.116.202-.581 0-.697-.318-.17-1.147.147-1.674.627-.356.334-.356.334-.294.101.1-.356.07-1.193-.047-1.62-.163-.542-.767-1.147-1.325-1.31-.558-.162-1.232-.154-1.697.024-.922.349-1.434 1.14-1.015 1.558.224.224.34.193.806-.225.395-.364.806-.55 1.17-.55l.155.007-.155.086c-.295.162-.581.48-.581.643 0 .38.418.465.79.155.178-.155.31-.194.628-.194h.403l-.326.155c-.356.163-.434.357-.209.574.163.17.302.155.574-.047.185-.132.247-.147.348-.062.155.124.155.628-.008 1.155-.348 1.186-1.914 1.643-2.79.814-.31-.287-.333-.535-.1-.837.116-.155.225-.202.45-.202.325 0 .472-.108.472-.356 0-.194-.263-.419-.488-.419-.264 0-.612.24-.72.504-.21.511-.133 1.023.232 1.426l.162.186-.232-.124a1.476 1.476 0 01-.698-.767c-.17-.419-.147-.582.117-.775.27-.194.302-.442.077-.644-.201-.178-.496-.093-.72.21-.357.48-.04 1.457.635 1.976.403.31.34.325-.14.046-.682-.387-.922-.635-1.209-1.216-.224-.442-.286-.682-.317-1.14-.078-1.061.155-1.488.829-1.495.349-.008.52-.163.426-.396-.039-.1-.116-.123-.318-.1-.155.015-.24 0-.201-.039.03-.031.287-.07.55-.078.357-.015.512-.046.566-.147.116-.17-.054-.372-.326-.38-.178 0-.186-.007-.046-.07.302-.131.573-.077.837.156.31.271.34.279.535.1.155-.139.186-.526.054-.612-.054-.03-.302-.046-.566-.046-.612.015-.418-.124.287-.202.65-.077 1.186.008 1.697.256zm44.802-.14c.21.063.364.125.349.14a3.312 3.312 0 01-.473-.039c-.573-.062-.798.039-.775.357.016.201.194.418.341.418.023 0 .178-.108.341-.232.295-.233.558-.28.853-.155.14.062.14.07-.039.07-.287.015-.403.116-.372.325.023.163.07.186.333.194.17 0 .419.015.543.03l.232.016-.232.054c-.194.04-.233.086-.233.28 0 .209.023.232.271.24.148 0 .326.007.396.015.65.07.782 1.55.232 2.643-.279.542-.589.852-1.178 1.17l-.45.24.442-.45c.458-.456.636-.836.636-1.324 0-.48-.674-.992-.907-.698-.194.248-.178.388.054.59.489.433.156 1.27-.69 1.72-.139.07-.115.023.094-.186.472-.473.48-1.186.015-1.651-.263-.264-.434-.31-.76-.186-.232.093-.325.333-.209.542.055.117.171.163.45.179.333.023.38.046.52.31.147.27.147.302.023.503-.218.372-.721.605-1.303.605-1.1-.008-1.782-.744-1.782-1.93 0-.52.124-.62.465-.364.294.21.434.21.589-.031.147-.233.062-.388-.318-.55l-.232-.101.333-.008c.349 0 .636.109.736.28.14.24.752.046.752-.226 0-.155-.232-.441-.496-.612l-.24-.147.349.046c.449.07.58.14 1.03.558.411.38.543.396.775.086.217-.287.124-.566-.333-1.008-.845-.814-2.433-.806-3.255.016-.52.519-.775 1.658-.55 2.456l.07.24-.31-.31c-.334-.333-.923-.635-1.396-.72-.248-.047-.294-.031-.418.155-.132.194-.132.232-.016.426l.125.21-.404.054a2.813 2.813 0 00-.767.232c-.426.225-.441.271.217-.783.79-1.255.93-2.255.473-3.363-.047-.1.031-.085.356.078.334.162.52.201 1.008.201.69 0 .697-.031-.186.589-.372.256-.45.349-.45.535 0 .155.063.27.187.348.263.179.395.093 1.317-.806.426-.41.612-.558.41-.333a5.188 5.188 0 00-.62.969c-.178.364-.356.612-.51.713-.264.17-.326.457-.117.535.287.108.55-.217.72-.923.148-.58.458-1.092.939-1.534.883-.806 1.937-1.046 3.045-.698zM9.164 19.772c-.023.062-.046.038-.046-.047-.008-.085.015-.132.039-.1.023.023.03.092.007.147zm51.692.232c-.023.062-.046.039-.046-.046-.008-.086.015-.132.038-.101.024.023.031.093.008.147zM54.3 21.872c1.503.798 1.209 3.123-.496 3.968-.721.356-1.442.434-1.806.21-.287-.187-1.038-1.543-1.038-1.884 0-.426.17-1.008.372-1.248.34-.403 1.015-.573 1.433-.364.326.17.675.573.76.868.155.573-.287 1.085-.822.953-.194-.046-.209-.077-.17-.349.038-.317-.047-.55-.21-.55-.062 0-.217.1-.348.225-.426.395-.287 1.116.271 1.488 1.077.705 2.511-.535 2.209-1.907-.163-.728-.674-1.325-1.31-1.51-.163-.047-.093-.063.302-.07.395-.008.59.03.853.17zm-39.649.914a3.018 3.018 0 00-.116.814c0 1.21.798 2.217 2.015 2.542.232.062.357.116.264.116-.233.008-.946-.217-1.388-.434-.209-.108-.813-.488-1.333-.844a40.32 40.32 0 00-1.464-.954l-.504-.31.372-.046c.798-.109 1.511-.434 1.945-.891a4.75 4.75 0 01.302-.303 1.81 1.81 0 01-.093.31zm41.61.527c.449.217.557.248 1.232.357l.294.046-1.534 1.023c-1.574 1.039-2.286 1.41-2.899 1.488l-.34.04.348-.102c.883-.255 1.434-.697 1.782-1.402a2.6 2.6 0 00.101-2.186c-.03-.077.078.008.24.186.171.186.504.426.776.55zm-46.98.024c.767.356 1.147.89 1.147 1.612 0 .34-.04.434-.225.627-.302.295-.504.303-.442.008.054-.24 0-.34-.24-.473-.457-.24-.853.512-.52.985l.117.17h-1.48l.325-.294c.426-.388.636-.86.566-1.302-.109-.744-1.008-1.31-1.45-.907-.278.248-.123.674.287.783.341.093.35.34.016.674-.333.333-.69.372-.86.093-.489-.775.093-1.767 1.27-2.155.326-.108 1.055-.015 1.489.179zm1.178-.008c.86.287 1.526.643 2.991 1.604.62.41 1.349.876 1.628 1.039l.503.294h-1.503c-1.465 0-1.504 0-1.372-.147a.96.96 0 00.17-.969c-.2-.488-.798-.697-1.13-.395-.249.225-.202.48.115.674.38.217.334.403-.093.434-.302.023-.356-.008-.674-.318-.225-.232-.38-.465-.434-.69-.248-.914-.535-1.325-1.124-1.635l-.232-.124.225-.007c.116 0 .534.108.93.24zm49.979-.124c-.427.186-.868.705-.992 1.193-.178.66-.426 1.093-.744 1.302-.364.24-.79.225-.83-.03-.015-.11.024-.179.14-.218a.702.702 0 00.279-.232c.248-.38-.217-.752-.69-.55-.573.24-.752.806-.41 1.302l.193.294h-2.976l.62-.372c.341-.21 1.108-.705 1.705-1.1 1.558-1.039 2.976-1.682 3.72-1.698h.233l-.248.109zm1.914.03c.798.303 1.24.838 1.24 1.504 0 .86-.806 1.031-1.194.256-.131-.256-.054-.434.186-.434.326 0 .527-.55.303-.821-.14-.17-.675-.109-.985.108-.69.496-.604 1.635.163 2.193l.31.225h-1.488l.116-.217c.14-.263.14-.434-.007-.705-.132-.264-.341-.333-.597-.21-.14.078-.178.156-.17.38.015.357-.156.388-.458.07-.496-.52-.248-1.503.52-2.015.712-.473 1.394-.581 2.06-.333zM5.39 24.973c-.163.426-.418.713-.558.628-.147-.093-.45.201-.45.434v.232l-.945-.008h-.953l.41-.116c.737-.194 1.264-.511 1.954-1.17.364-.341.666-.59.682-.535.015.054-.055.295-.14.535zm60.248.473c.597.426.868.565 1.38.697l.41.116h-.938c-.93.008-.937.008-.906-.17a.394.394 0 00-.396-.465c-.232 0-.511-.31-.658-.744-.179-.543-.109-.59.27-.17.202.224.574.55.838.736zm-54.505.635l.17.186h-1.255l.194-.21a1.57 1.57 0 00.286-.542l.086-.333.17.357c.093.193.248.434.349.542zm48.297-.527c.023.124.14.333.248.473l.21.24h-1.272l.28-.31c.147-.17.294-.395.325-.504.062-.24.155-.193.21.101zm-53.435.496l.201.217h-1.03l.185-.279c.109-.155.194-.356.194-.45.008-.139.023-.123.132.07.062.124.21.326.318.442zm58.682.1c.085.102.03.117-.372.117h-.473l.28-.38.286-.387.093.271c.046.147.132.318.186.38z" fill="#F9EFD6"/><path d="M35.274 17.137a8.307 8.307 0 00-.086.837c-.023.364-.062.86-.093 1.1l-.046.45h.55l.062-.79.054-.79.303.596c.162.333.333.581.372.558.038-.023.217-.256.395-.504.178-.256.34-.457.349-.442.015.016 0 .334-.04.721-.03.38-.046.713-.03.744.03.055.488.093.488.039l.116-1.209c.054-.659.093-1.232.07-1.263-.023-.031-.14-.062-.271-.062-.194 0-.287.085-.628.55l-.403.55-.31-.628c-.294-.596-.325-.627-.566-.627-.201 0-.263.039-.286.17zm-2.271-.039c-.155.03-.163.07-.132.395.015.202.07.76.108 1.248.04.488.086.891.093.899.016.015.132.008.264-.016.233-.038.233-.038.202-.457l-.031-.418h.294c.705 0 1.124-.62.837-1.21-.085-.17-.232-.34-.341-.395-.186-.093-.922-.116-1.294-.046zm1.093.535c.279.27.054.65-.388.65-.264 0-.264-.007-.264-.34 0-.202.04-.357.101-.38.194-.085.434-.054.55.07zm-2.976-.178l-.271.093-.132 1.163c-.17 1.488-.17 1.433.008 1.433.263 0 .395-.093.395-.271 0-.225.108-.302.573-.419.372-.093.388-.085.543.109.14.163.201.194.418.147.132-.03.248-.062.248-.077 0-.062-1.41-2.24-1.457-2.255-.03-.008-.178.03-.325.077zm.534 1.155c.186.31.171.325-.216.41-.248.055-.264.047-.217-.123a2.21 2.21 0 00.054-.496c0-.256.015-.287.1-.194.063.062.186.248.28.403zm6.759-.016c-.403.597-.713 1.1-.69 1.124.015.023.14.054.263.085.194.039.256.008.365-.147l.124-.194.472.124c.427.116.465.14.465.34 0 .164.055.241.202.295.395.155.395.179.287-1.216-.062-.713-.132-1.326-.163-1.349-.031-.03-.178-.077-.326-.1l-.27-.047-.73 1.085zm.96.604c-.015.016-.519-.147-.565-.186-.016-.007.093-.193.232-.403l.256-.395.047.48c.023.264.038.489.03.504zm1.247.032c-.286.643-.51 1.17-.495 1.177.015.008.124.055.24.109.217.093.217.085.41-.349.11-.248.21-.457.226-.473.015-.015.744.28.798.326.008.015-.07.233-.178.48-.21.465-.194.558.108.59.163.023.233-.078.674-1.062.272-.597.496-1.108.496-1.132 0-.038-.349-.224-.434-.224-.015 0-.116.193-.225.426-.1.232-.209.426-.232.426-.031 0-.217-.07-.426-.163l-.372-.163.186-.418c.1-.233.186-.442.186-.457 0-.016-.101-.085-.225-.148l-.217-.116-.52 1.17zm-12.77-.66c-.42.195-.76.396-.76.45 0 .047.046.148.1.225.086.124.117.124.388.008l.295-.116.418.89c.233.497.465.892.527.892a.552.552 0 00.24-.1c.124-.094.109-.156-.255-.938-.217-.465-.396-.892-.396-.946 0-.054.124-.14.272-.186.147-.046.27-.1.27-.116 0-.14-.17-.427-.247-.419-.054 0-.442.163-.853.357zm15.073 1.666c-.341.527-.643 1-.674 1.046-.031.062.015.132.14.186.162.078.301.047.913-.201.396-.155.768-.31.83-.334.062-.023-.07.225-.295.55-.217.326-.395.62-.395.66 0 .108.38.286.457.2.039-.038.349-.503.69-1.038.473-.72.605-.992.543-1.061-.117-.14-.303-.124-.76.054l-.767.31-.388.147.395-.62c.38-.589.388-.62.248-.728-.077-.062-.185-.117-.232-.117-.054 0-.372.427-.705.946zm-17.166-.556c-.403.216-.628.565-.667 1.045-.062.783.419 1.357 1.186 1.419 1.248.1 1.907-1.395 1-2.248a1.308 1.308 0 00-1.52-.217zm1.185.627c.396.426.264 1.046-.27 1.27-.326.14-.628.063-.86-.208-.264-.318-.31-.543-.156-.86.147-.31.349-.427.76-.435.24-.007.348.04.526.233z" fill="#F9EFD6"/><path d="M33.778 20.616c-.876.078-2.31.395-3.193.705-2.922 1.023-5.595 3.27-7.076 5.929l-.31.566h-9.516c-8.603 0-9.517.015-9.564.124-.14.356-.682.34 9.672.34h9.718l.465-.798c.667-1.147 1.28-1.922 2.24-2.851 2.527-2.442 5.813-3.682 9.362-3.535 4.472.186 8.44 2.62 10.61 6.51l.372.675h3.24c1.774 0 4.595-.024 6.261-.055l3.038-.046v-.364H46.875l-.217-.411c-1.503-2.798-4.27-5.107-7.346-6.138a13.164 13.164 0 00-5.534-.651z" fill="#F9EFD6"/><path d="M33.25 21.965c-1.518.248-3.3.93-4.587 1.76-2.62 1.697-4.464 4.417-5.154 7.61-.248 1.132-.248 3.379 0 4.51 1.093 5.061 5.03 8.742 10.067 9.417.954.124 2.96.046 3.875-.155a12.23 12.23 0 004.17-1.767c.984-.651 2.449-2.108 3.115-3.085 2.767-4.092 2.767-9.23 0-13.33-.279-.41-.852-1.077-1.41-1.627-1.682-1.682-3.371-2.62-5.774-3.193-1.046-.248-3.2-.318-4.301-.14zm3.775.233c2.589.45 5.154 1.906 6.789 3.852 1.349 1.604 2.147 3.247 2.588 5.285.248 1.155.248 3.387-.007 4.541-.233 1.093-.48 1.822-.938 2.752-2.434 4.975-7.944 7.533-13.299 6.16-4.138-1.06-7.378-4.393-8.385-8.625-.194-.806-.21-.992-.21-2.573 0-1.58.016-1.767.21-2.573 1.154-4.836 5.177-8.4 10.098-8.935.79-.086 2.325-.031 3.154.116z" fill="#F9EFD6"/><path d="M34.414 26.32c-1.403.07-2.573.132-2.589.148-.015.008.054.147.147.302.117.194.303.341.574.457.217.101.442.233.496.295.116.147.395 1.147 1.333 4.82.387 1.527.728 2.821.752 2.883.03.085-.093.109-.651.109-1.116 0-1.884.271-2.597.914-.255.233-.286.287-.193.38.085.085.17.07.565-.108.434-.21.512-.218 1.581-.218 1.031.008 1.233.032 2.403.31 1.186.28 1.364.303 2.441.303 1.38.008 1.96-.124 3.092-.713 1.542-.79 2.519-2.255 2.527-3.782 0-2.03-1.946-3.58-3.775-3.007-.596.186-1.263.83-1.41 1.364-.41 1.465.736 2.82 2.085 2.472.612-.155 1.038-.806.899-1.364-.086-.341-.442-.667-.783-.713-.264-.031-.341-.008-.527.17-.225.233-.287.628-.116.799.132.132-.178.124-.341-.008a1.034 1.034 0 01-.217-1.34c.186-.287.837-.652 1.185-.652.66 0 1.372.489 1.744 1.194.178.34.21.488.21 1.093 0 .643-.024.736-.264 1.178-.294.542-1.023 1.278-1.589 1.611a4.962 4.962 0 01-1.992.636c-.534.039-.596.031-.643-.1-.023-.078-.535-2.078-1.131-4.442a419.312 419.312 0 00-1.14-4.401c-.03-.07.04-.14.194-.194.24-.093.55-.558.35-.52-.04.008-1.21.063-2.62.125z" fill="#F9EFD6"/><path d="M30.779 34.288l-2.008 5.929h-1.286l-.078.286a2.305 2.305 0 00-.085.395c0 .078.566.093 2.697.078l2.69-.023.023-.357.023-.356-.659-.039c-.48-.03-.728-.085-.922-.21a1.138 1.138 0 01-.52-.937c0-.14.613-2.07 1.357-4.293.744-2.225 1.356-4.108 1.356-4.185 0-.217-.488-2.217-.535-2.217-.023 0-.953 2.666-2.053 5.929zm5.192 4.278c.225.891.419 1.62.419 1.627 0 .016-.403.024-.9.024h-.89l.023.364.023.372 3.123.023c2.457.016 3.123 0 3.147-.078.023-.054.054-.232.07-.387l.046-.287-.349-.054c-.356-.054-.744-.302-.899-.597-.046-.085-.209-.65-.364-1.247l-.279-1.085-1.085-.008c-.69-.008-1.294-.062-1.65-.14-.954-.217-.915-.356-.435 1.473zM5.29 31.622c-.977.155-1.682.984-1.698 2-.008.604.147 1.046.504 1.449.465.527.821.69 1.565.69.706 0 1.054-.148 1.504-.613.294-.302.287-.31-.163-.58l-.287-.171-.085.155c-.225.426-1.155.558-1.666.24-.403-.248-.612-.744-.55-1.271.07-.628.472-1.046 1.077-1.108.473-.054.697.008 1.015.294l.271.233.31-.178c.179-.101.318-.202.318-.233 0-.155-.504-.605-.83-.736-.472-.202-.813-.248-1.286-.17zm2.348.131c0 .039.255.612.573 1.271.31.659.597 1.279.62 1.364.078.233-.256.558-.573.558-.225 0-.233.008-.233.388s.008.387.233.387c.131 0 .348-.046.488-.108.504-.217.728-.574 1.418-2.217.357-.868.651-1.604.651-1.643 0-.038-.178-.062-.395-.046l-.395.023-.357.868c-.194.48-.38.876-.403.876-.03 0-.225-.395-.442-.876l-.38-.868-.402-.023c-.225-.016-.403.008-.403.046zm3.642 1.953v2.015h4.728v-4.03h-.853v3.255H14.07v-3.255h-.852v3.255h-1.085v-3.255h-.853v2.015zm5.425.008v2.014l.326-.023c.325-.023.325-.023 1.147-1.185l.813-1.163.024 1.178.023 1.186h.845v-4.03h-.675l-.806 1.155-.806 1.147-.023-1.147-.023-1.155h-.845v2.023zm32.318-.008v2.015h.852v-3.255h1.395v3.255h.852v-4.03h-3.1v2.015zm3.797.008v2.014l.325-.023.333-.023.814-1.163.814-1.154.023 1.178.023 1.178h.845v-4.03h-.667l-.829 1.178-.83 1.178V31.69h-.852v2.023zm3.874-.007v2.015h2.635v.775h.853v-1.55h-.465v-3.255h-.775v3.255h-1.395v-3.255h-.853v2.015zm3.953-.001v2.015h2.627l.023.364.023.372.41.024.404.023v-1.558h-.388v-3.255h-.852v3.255h-1.395v-3.255h-.852v2.015zm4.611-.72c-.248.72-.566 1.627-.705 2.015l-.256.72h.899l.1-.349.101-.348h1.659l.1.348.101.35h.9l-.373-1.07c-.209-.581-.527-1.488-.713-2.015l-.333-.946h-1.023l-.457 1.295zm1.472 1.116c.047.131.008.147-.496.147h-.542l.232-.682c.124-.372.248-.729.272-.79.038-.102.248.418.534 1.325z" fill="#F9EFD6"/><path d="M14.341 39.209l-3.332.038v.388l6.122.023 6.123.023.31.55c1.51 2.713 4.239 4.953 7.246 5.945 3.448 1.131 6.936.883 10.19-.729 2.303-1.139 4.108-2.82 5.48-5.099l.38-.636 9.548-.038 9.548-.039.023-.256.023-.248H46.581l-.41.736c-1.799 3.217-4.852 5.449-8.565 6.255-.69.147-1.015.17-2.534.17-1.527 0-1.844-.023-2.557-.17-2.256-.496-4.301-1.512-5.89-2.938-1.186-1.061-2.155-2.286-2.767-3.487l-.294-.566-2.945.016c-1.62.015-4.441.038-6.278.062z" fill="#F9EFD6"/><path d="M1.05 40.68v.233l.528.008c.418.008.472.023.27.07-.534.124-.766.38-.86.953-.07.372-.247.457-.488.24-.116-.108-.186-.124-.286-.062-.21.132-.21.457 0 .605.217.155.395.155.674.007.21-.1.232-.1.403.093.21.217.597.411.852.411.489 0 .985-.511.892-.899-.093-.356-.644-.403-.775-.07-.024.062-.093.117-.155.117-.14 0-.512-.52-.512-.706 0-.41.884-.589 1.643-.317.729.255 1.271.682 2.217 1.736 1.015 1.131 1.317 1.325 2.286 1.464.573.085 1.69.016 2.123-.132.295-.1-1.054.838-1.58 1.101-.466.233-.644.287-1.055.287-.542.008-.852-.132-.922-.396-.054-.193.016-.302.201-.333.248-.054.334-.271.202-.519-.17-.294-.667-.333-.969-.07-.178.148-.224.264-.255.613-.062.821.41 1.379 1.224 1.441.581.039 1.093-.124 1.767-.581.713-.48.72-.48.325-.07-.472.496-1.224 1.03-1.666 1.186-1.015.34-2.24-.217-2.65-1.21-.155-.371-.155-1.154 0-1.456.132-.248.48-.426.728-.364.21.054.434-.148.434-.388 0-.612-1.03-.403-1.364.271a2.01 2.01 0 00-.14.682l-.015.403-.209-.372c-.279-.48-.76-.922-1.124-1.023-.48-.132-.813.085-.813.535 0 .325.186.543.457.543.17 0 .178-.024.132-.341-.047-.303-.031-.357.108-.434.233-.124.419-.04.798.387.349.388.644.922.876 1.589.178.519.79 1.131 1.302 1.302.473.163 1.007.17 1.45.015.208-.07.286-.077.193-.015-.659.418-.83.798-.473 1.03.178.117.21.117.388 0 .1-.07.325-.364.503-.666.171-.295.334-.543.35-.543.015 0-.009.109-.055.24-.178.528.046 1.21.504 1.465.178.101.217.101.356-.03.233-.21.202-.334-.147-.714-.395-.426-.41-.736-.078-1.395.248-.488.605-.984.504-.69-.03.086-.077.442-.1.791-.024.496 0 .744.131 1.17.287.962 1.008 1.83 1.891 2.271.163.085.651.28 1.085.426 1.325.465 1.837.768 1.837 1.085 0 .163-.031.179-.225.14-.48-.1-.473.55.016.752.186.077.263.077.426-.016.535-.302.225-1.108-.597-1.542l-.279-.147 1.085-.008c.597 0 1.21.03 1.349.077.325.093.395.047.217-.14-.124-.115-.326-.13-1.744-.13-1.542 0-1.628-.009-2.162-.21-1.333-.488-2.132-1.108-2.573-1.984-.132-.264-.24-.52-.24-.566 0-.054.108.116.232.372.566 1.124 1.875 1.883 3.27 1.883.69 0 1.202-.116 2.046-.465.845-.348 1.21-.418 1.651-.317.457.1.527.186.318.38-.194.178-.163.403.062.403a.33.33 0 00.325-.334c0-.077.04-.116.078-.093.163.101.077.388-.155.52-.248.139-.287.286-.155.534.1.178.372.194.612.016.109-.07.163-.086.132-.04-.031.055-.155.148-.28.21-.301.155-.41.364-.31.612.148.396.745.326 1.132-.131.179-.21.202-.295.17-.651l-.038-.411.24.186c.651.496 1.636.821 2.96.976.427.055.776.101.784.109.015.008-.341.108-.783.225-1.403.364-2.023.263-2.31-.38-.116-.28-.186-.349-.317-.326-.124.016-.179.086-.194.264-.054.52.573.883 1.527.883h.511l-.76.35c-1.782.813-2.828.937-3.417.387-.217-.202-.287-.55-.085-.48.178.069.45-.202.45-.45 0-.28-.334-.582-.644-.582-.287 0-.667.318-.775.66-.256.782.589 1.433 1.852 1.433.59 0 1.418-.256 2.899-.884.76-.325 1.402-.589 1.433-.589.031 0-.186.132-.488.295-.294.163-.883.496-1.302.736-1.31.767-2.193 1.062-3.177 1.062-.799 0-1.24-.271-1.597-.992-.225-.45-.434-.426-.426.046.008.411.271.706.83.946.55.24 1.146.279 1.921.116.845-.17 1.597-.48 2.612-1.1 1.193-.721 1.154-.713.876-.303-.55.79-.76 2.03-.52 2.992.225.891.558 1.441 1.364 2.255.613.612.915.853 1.775 1.356 1.24.737 1.79 1.264 1.79 1.72 0 .458-.093.535-.403.342-.248-.155-.279-.155-.441-.047-.132.093-.163.186-.148.395.07.83 1.426.799 1.581-.03.163-.845-.488-1.636-1.945-2.364-.341-.17-.907-.496-1.256-.729-1.89-1.255-2.758-3.293-2.115-5.014.217-.589.418-.837.232-.287-.488 1.403.271 3.224 1.643 3.953.395.217.59.263 1.093.294.504.031.628.016.752-.1.194-.179.194-.357.008-.59-.14-.17-.163-.178-.504-.085-.48.124-1.349.117-1.636-.023-.224-.108-.185-.108.287 0 .295.078.527-.077.527-.34 0-.334-.17-.435-.534-.326-.427.124-.706.108-.992-.07-.14-.085-.256-.178-.256-.202 0-.023.085.008.194.078.108.07.325.14.488.147.271.016.287 0 .287-.217 0-.225-.016-.232-.365-.232-.302-.008-.418-.055-.604-.233-.124-.124-.233-.256-.233-.302 0-.039.078 0 .178.093.101.093.256.17.357.17.14 0 .17-.038.147-.217-.015-.17-.062-.217-.271-.232-.395-.039-.589-.341-.527-.83.1-.751.612-1.627 1.14-1.937l.255-.147-.279.325c-.349.403-.488.876-.442 1.465.093 1.21.984 2 2.643 2.34 1.039.218 1.178.287 1.178.628 0 .202-.031.264-.124.248-.186-.023-.403.256-.341.442.116.38.83.248 1.015-.186.116-.294.07-.55-.155-.806-.248-.271-.596-.395-1.534-.52-.954-.123-1.442-.325-1.907-.79-1.255-1.255-.573-3.348 1.085-3.348.512 0 1.279.341 1.527.682.202.287.202.326.008.698-.085.17-.14.364-.109.434.078.201.318.294.496.201.132-.07.155-.062.155.078 0 .248-.356.891-.62 1.108-.736.62-1.852.357-2.294-.527-.155-.325-.194-.504-.163-.736.063-.45.318-.814.713-1.008.334-.162.35-.162.582-.023.34.202.287.45-.155.76-.434.302-.543.565-.357.844.225.357.93.202 1.155-.248.294-.573.217-1.178-.186-1.526-.186-.155-.318-.194-.643-.194-1.55 0-1.876 2.333-.427 3.053 1.527.76 3.256-.875 2.752-2.604-.248-.844-.992-1.41-2.45-1.844-.588-.17-1.115-.41-1.193-.527-.023-.039.008-.155.07-.271.093-.178.093-.225-.008-.326-.201-.201-.573.062-.573.403 0 .318.38.636 1.046.876.465.17.558.225.387.225-.511.007-2.355-.233-2.906-.388-.627-.17-1.534-.612-1.751-.852-.14-.148-.132-.155.093-.039.79.41 1.713.325 2.255-.217.504-.504.535-.922.078-1.085-.248-.093-.388.016-.605.434-.217.426-.55.605-1.116.605-.542 0-.984-.179-1.317-.535-.202-.217-.233-.31-.256-.767-.016-.427.008-.574.155-.83.21-.364.62-.589.938-.527.286.054.65.426.713.721.07.31-.132.643-.372.605-.17-.024-.202-.14-.101-.38.07-.155-.233-.535-.419-.535-.17 0-.356.248-.465.612-.155.55.318 1.17.892 1.17.488 0 1.03-.519 1.1-1.069.163-1.209-1.317-2.093-2.178-1.294-.108.1-.201.155-.201.116 0-.078.907-1.45 1-1.504.038-.023.085.093.108.272.1.744.605 1.007.884.457.116-.233.062-.349-.24-.527-.14-.085-.272-.225-.295-.31-.039-.14-.023-.155.14-.085.247.093.325-.093.185-.426-.124-.287-.193-1.535-.1-1.713.062-.101.147-.016.426.41.938 1.411 2.65 3.24 3.976 4.248 2.17 1.65 4.665 2.828 7.184 3.394 2.62.581 5.564.589 8.122.008 4.494-1.016 8.532-3.759 11.12-7.549l.388-.566.062.636c.047.566.039.682-.1.969-.24.496-.163.744.178.566.085-.047.131-.04.131.015 0 .163-.162.387-.27.387-.148 0-.35.217-.35.388a.6.6 0 00.14.31c.318.387.783-.039.806-.744l.008-.264.395.543c.217.302.48.69.581.868l.186.325-.24-.201c-.38-.318-.736-.41-1.163-.287-.713.202-1.185.954-1.023 1.651.202.891 1.147 1.263 1.736.674.202-.209.24-.302.24-.62 0-.635-.41-1.038-.751-.728-.124.116-.147.201-.109.465.04.31.031.333-.131.333-.256 0-.365-.147-.365-.473 0-.34.233-.666.582-.813.62-.256 1.224.333 1.232 1.209 0 .573-.17.875-.674 1.162-.334.186-.489.233-.9.233-.62 0-.937-.179-1.162-.651-.163-.357-.364-.481-.628-.396-.558.178-.248.992.543 1.403.387.21 1.232.194 1.744-.031.364-.163.38-.163.193-.015-.86.697-2.13 1.061-4.184 1.193l-.66.046.388-.147c.62-.225 1.03-.457 1.124-.628.217-.41-.109-.976-.426-.744-.132.093-.132.132-.04.357.14.333.102.356-1.224.814-.58.193-1.224.465-1.425.589-.66.426-1.008 1.054-1.008 1.82-.008.59.217 1.11.659 1.574.418.426.837.628 1.356.628.488 0 .822-.124 1.201-.457.79-.698.659-2.263-.217-2.682-.426-.201-1.07-.132-1.34.147-.194.186-.21.256-.21.79 0 .574.008.59.287.853.349.318.852.372.992.117.155-.295.093-.535-.201-.76-.66-.504-.706-.62-.341-.876l.24-.17.364.186c.201.093.442.294.535.442.356.527.163 1.41-.38 1.813-.279.21-.69.364-.945.364-.605 0-1.256-.511-1.473-1.139-.163-.465-.155-.511.031-.41.419.224.667-.202.395-.66-.209-.356-.209-.371.086-.697.395-.45.782-.612 1.472-.62.535 0 .62.023.922.233.186.131.442.41.574.62.201.325.232.45.232.922-.008.62-.163 1-.628 1.519-.418.465-.937.674-1.945.806-.48.062-1 .178-1.147.248-.604.287-.767.868-.356 1.279.34.34.86.263.86-.124 0-.194-.248-.396-.388-.31-.108.07-.178-.155-.123-.38.054-.217.418-.388 1.139-.512.953-.162 1.441-.372 1.922-.821.674-.62.984-1.465.79-2.178-.046-.178-.21-.504-.356-.72l-.264-.396.225.163c.558.395 1 1.193 1.062 1.93.038.387.023.472-.124.62-.086.085-.233.162-.31.162-.256 0-.396.086-.396.24 0 .218.225.272.473.125.21-.117.217-.117.124.03-.14.218-.542.388-.814.334-.193-.039-.24-.016-.286.116-.132.41.372.496.852.147.17-.124.202-.131.124-.03-.279.333-.713.426-1.27.263-.272-.085-.319-.078-.412.054-.255.349-.077.62.396.612.217-.007.317.016.255.055-.147.1-1.077.085-1.534-.024-.426-.1-.55-.046-.651.303-.093.31.186.488.767.488.729 0 1.264-.225 1.868-.79 1.015-.954 1.403-2.388.969-3.589-.078-.217-.078-.225.03-.077.07.085.194.372.272.643.62 2-.62 4.162-3.1 5.402-1.767.89-2.449 1.658-2.255 2.541.093.38.194.504.542.605.357.108.783-.047.977-.349.116-.17.116-.24.038-.434-.108-.263-.356-.31-.658-.108-.17.108-.186.108-.272-.047-.279-.519.303-1.209 1.729-2.046 1.1-.658 1.712-1.139 2.216-1.759.713-.883 1.015-1.697 1.015-2.751 0-.86-.294-1.798-.72-2.263-.086-.093-.14-.17-.117-.17.031 0 .512.278 1.07.62 1.883 1.123 3.472 1.495 4.55 1.046.596-.248 1.1-.97.875-1.24-.147-.17-.271-.14-.38.1-.356.783-.83 1.1-1.674 1.1-.744 0-1.418-.185-2.325-.627-.76-.364-2.534-1.387-2.426-1.387.031 0 .574.225 1.202.496 1.712.744 2.108.86 2.93.86 1.092 0 1.766-.356 1.867-.984.132-.767-.752-1.38-1.248-.876-.333.326-.194.837.217.83.271 0 .271.17-.008.449-.333.325-.782.426-1.48.318-.55-.086-1.72-.504-2.38-.845l-.301-.163.465-.008c.829 0 1.449-.302 1.526-.728.093-.465-.333-.612-.48-.163a1.248 1.248 0 01-.318.465c-.333.271-1 .264-2.077-.023l-.813-.217.798-.1c1.472-.18 2.495-.528 3.092-1.047.217-.186.263-.21.217-.085a2.915 2.915 0 00-.1.395c-.117.69.914 1.38 1.262.845.179-.28.086-.543-.255-.713-.155-.078-.303-.194-.318-.256-.023-.078.03-.054.155.054.333.31.682.194.682-.225 0-.162-.047-.24-.194-.294-.232-.085-.31-.248-.21-.434.063-.109.086-.093.156.116.062.178.132.24.271.24.256 0 .326-.201.132-.364-.248-.217-.186-.318.256-.41.496-.101.86-.031 1.658.31.798.333 1.364.465 2.046.465.659 0 1.45-.202 1.969-.512.604-.349 1.2-1.03 1.433-1.635.086-.202.148-.318.155-.248 0 .07-.124.372-.271.666-.45.907-1.147 1.45-2.596 2.03-.488.194-.558.202-2.093.202-1.154 0-1.635.031-1.759.1-.21.117-.248.295-.039.202.07-.03.706-.07 1.41-.085l1.28-.03-.326.162c-.387.194-.775.612-.845.907-.124.472.28.852.706.658.434-.193.441-.744.015-.751-.256-.008-.31-.062-.248-.264.062-.217.698-.558 1.666-.899 1.186-.426 1.682-.697 2.217-1.232.938-.938 1.34-2.41.945-3.456-.062-.171-.054-.179.047-.078.062.062.24.326.387.574.225.371.28.542.28.867 0 .365-.032.427-.31.721-.357.365-.365.419-.156.628.217.217.318.194.612-.108a1.17 1.17 0 00.31-1.109c-.03-.163-.046-.302-.03-.317.015-.016.17.217.34.519.357.604.543.76.783.627.403-.216.357-.55-.14-.898-.154-.117-.216-.179-.131-.148.279.109 1.008.132 1.325.047.721-.194 1.31-.79 1.581-1.597.21-.62.674-1.348 1.039-1.627.255-.194.302-.202.511-.117.194.078.225.132.186.264-.108.326-.077.473.109.496.527.078.627-.83.116-1.062-.45-.201-1.155.225-1.581.953-.21.38-.225.388-.225.163 0-.713-.434-1.333-.984-1.41-.38-.047-.566.054-.566.325 0 .24.186.38.55.395.373.016.582.194.69.566.14.512.093.892-.178 1.419-.55 1.061-1.806 1.441-2.914.883-.225-.116-.674-.473-1-.79l-.596-.582.503.349c1.194.814 2.232.891 2.814.21.627-.752.317-1.837-.52-1.775-.24.015-.333.07-.403.209-.124.24-.023.496.21.55.224.054.286.318.108.488-.364.372-1.287.318-2.046-.108-.628-.357-1.635-1.108-1.403-1.054 1.085.279 2.294.224 3.061-.132.45-.21.566-.31 1.395-1.279 1.008-1.162 1.837-1.697 2.783-1.767.86-.07 1.17.24.821.814-.21.341-.333.372-.566.14-.248-.248-.325-.248-.565-.008-.14.14-.179.248-.148.372.07.225.45.581.706.643.286.078.76-.093 1.03-.364.225-.225.248-.225.411-.116.21.147.372.155.636.03.24-.1.317-.31.201-.526-.1-.186-.325-.202-.465-.04a.31.31 0 01-.263.102c-.132-.016-.17-.093-.202-.388a1.036 1.036 0 00-.767-.899c-.256-.07-.233-.077.287-.085l.558-.008v-.465H51.534l-.187.434-.178.434-.1-.24c-.202-.48-.907-.581-1.179-.178-.1.147-.085.178.101.364.194.201.21.201.395.077.179-.116.21-.116.388 0 .1.062.186.179.186.256 0 .31-1.085 2.038-2.007 3.193-2.79 3.503-6.79 5.774-11.4 6.479-1.217.186-3.713.186-5 0-1.022-.147-2.626-.543-3.525-.86-.814-.295-2.627-1.17-3.402-1.659a18.241 18.241 0 01-5.34-5.138c-.55-.814-1.178-1.93-1.178-2.092 0-.225.279-.318.496-.179.24.155.488.047.558-.24.07-.279-.124-.457-.52-.457-.263 0-.356.046-.542.256l-.225.255-.155-.356-.147-.349H1.051v.233zm3.356.404c-.046.248.132.45.442.519.31.062.558.426.682 1l.077.325-.526-.535a6.192 6.192 0 00-.946-.806c-.403-.255-1.147-.558-1.534-.62-.109-.015.263-.038.821-.046 1.015-.008 1.015-.008.984.163zm1.558.108c-.147.147-.264.326-.264.388s-.03.108-.077.108c-.039 0-.077-.054-.077-.124s-.07-.248-.163-.387l-.163-.264h1l-.256.28zm3.022-.07c-.139.28-.139.442.008.721.147.287.38.357.636.194.162-.109.186-.17.155-.395-.039-.217-.024-.264.093-.264.193 0 .527.388.589.69.193.93-.806 1.914-2.039 2-.472.038-.558.015-1.015-.218-.682-.356-.96-.72-1-1.294-.023-.364 0-.48.14-.659.24-.31.651-.248.93.132.263.357.248.59-.039.59-.395 0-.597.603-.279.86.124.1.225.115.45.069 1.131-.256 1.278-1.682.248-2.441l-.256-.194h1.496l-.117.21zm2.14.078a2.25 2.25 0 00-.35.52l-.1.24-.085-.218a1.394 1.394 0 01-.086-.286c0-.031-.1-.17-.224-.303l-.225-.24h1.317l-.248.287zm3.952.046c-.318.186-1.085.667-1.705 1.078-1.682 1.108-2.813 1.635-3.914 1.805l-.31.047.411-.202c.55-.279.837-.658 1.046-1.356.14-.465.24-.65.527-.953.326-.341.388-.372.659-.349.24.016.31.054.325.194.016.108-.023.178-.14.217-.255.077-.418.38-.31.581.11.202.42.326.66.264.286-.07.589-.442.635-.775.031-.24-.008-.365-.163-.597l-.193-.287h3.053l-.581.333zm1.573-.217c-1.682.458-2.503 2-1.906 3.573.03.085-.062.016-.202-.14-.364-.418-1.248-.837-1.906-.899l-.535-.054.504-.302c.27-.17.914-.589 1.426-.938 1.325-.906 2.232-1.34 2.828-1.34.109-.008.008.046-.209.1zm37.548.17c.28.117 1.085.59 1.79 1.07.714.473 1.45.953 1.636 1.054l.333.186-.55.047a2.94 2.94 0 00-1.798.814l-.388.364.117-.334a3.08 3.08 0 00.116-.821c0-1.24-.814-2.216-2.131-2.565l-.388-.1.388.046c.209.023.604.131.875.24zm2.984.078c-.263.535-.116.992.403 1.24.651.31 1.14-.457.496-.782-.1-.047-.186-.155-.186-.24 0-.24.473-.249.814-.024.294.194.627.783.775 1.38.108.418.736 1.077 1.162 1.216l.272.093-.35-.046c-1.061-.14-2.185-.643-3.835-1.736a72.589 72.589 0 00-1.705-1.093l-.62-.372h2.96l-.186.364zm2.58-.14a1.625 1.625 0 00-.31.543l-.092.326-.132-.31a2.436 2.436 0 00-.356-.543l-.225-.24h1.332l-.217.225zm2.21.14c-.628.613-.698 1.318-.194 1.883.441.489 1.131.55 1.24.117a.505.505 0 00-.372-.643c-.364-.093-.38-.334-.039-.675.457-.457.915-.302 1.023.326.07.426-.132.883-.558 1.263-.713.628-1.627.705-2.519.217-.666-.364-.938-.752-.976-1.418-.031-.473-.024-.512.201-.736.318-.31.52-.318.45 0-.031.178 0 .279.108.387.202.202.357.194.581-.039.225-.217.256-.612.07-.875l-.116-.17h1.48l-.38.363zm2.712-.17a1.36 1.36 0 00-.21.442l-.046.248-.116-.233a3.145 3.145 0 00-.318-.442l-.201-.209h1.046l-.155.194zm2.55-.109c-.651.124-1.426.582-2.14 1.256-.666.628-.674.628-.62.364.032-.147.133-.426.233-.62.148-.302.21-.356.465-.395.334-.054.434-.163.434-.48v-.21l.992.008c.79.008.915.023.636.077zm-49.104.225c.318.186.783.992.86 1.488.187 1.07-.402 2-1.263 2-.782 0-1.457-.744-1.263-1.403.1-.341.333-.535.636-.535.27 0 .387.155.364.48-.031.504.194.59.573.218.217-.217.233-.272.202-.628-.031-.302-.093-.442-.295-.651-.89-.922-2.425-.093-2.44 1.317 0 .822.596 1.728 1.231 1.868.233.046.233.054.062.116-.186.07-.844-.03-1.123-.17-.713-.364-1.07-1.202-.9-2.108.156-.868.628-1.488 1.419-1.876.767-.372 1.457-.418 1.937-.116zm34.937-.147c.883.194 1.604.713 1.953 1.426.535 1.1.271 2.286-.628 2.767-.395.209-.976.317-1.224.224-.124-.046-.101-.07.116-.108.364-.078.945-.698 1.116-1.178.356-1.062-.14-2.1-1.132-2.372-.589-.155-1.294.217-1.464.783-.117.372-.047.659.217.899.364.341.612.201.511-.295-.093-.464.45-.612.837-.224.395.395.24 1.07-.34 1.488-.249.178-.396.225-.714.225-.79 0-1.279-.597-1.279-1.55 0-.45.04-.582.357-1.186.279-.535.41-.705.635-.83.334-.178.489-.185 1.039-.07zM11.35 44.013c-.767.403-1.279 1.473-.992 2.038.194.372.651.566.822.341.193-.24.178-.38-.055-.581-.41-.364-.286-.922.326-1.441.38-.326.566-.372.279-.07-.419.45-.48.845-.217 1.38.24.487.775.658 1.085.348.178-.178.194-.302.054-.504-.077-.1-.17-.124-.333-.093-.287.055-.465-.046-.62-.34-.17-.334-.031-.636.387-.884 1.248-.721 2.736.217 2.666 1.681-.023.427-.046.489-.186.512-.085.016-.217-.047-.302-.14-.186-.209-.395-.193-.542.032-.155.232-.093.387.217.542l.248.124h-.365c-.27 0-.418-.047-.589-.194-.279-.232-.488-.248-.682-.03-.131.146-.131.177-.023.363.062.117.233.287.372.38l.264.179h-.21c-.333 0-.744-.21-1.139-.582-.21-.194-.41-.349-.457-.349-.132 0-.465.365-.465.504 0 .38.589.992 1.14 1.202.642.24 1.41.209 2.006-.07.868-.411 1.248-1.155 1.178-2.325l-.038-.636.201.186c.38.349.814.59 1.232.69.403.085.434.085.566-.085.186-.225.186-.357 0-.543-.14-.14-.132-.147.31-.186.28-.023.59-.116.806-.232.41-.233.419-.256-.217.76-.736 1.17-.93 2.17-.604 3.1l.147.418-.17-.109c-.287-.194-1.132-.372-1.504-.318l-.349.047.271-.217c.155-.116.434-.325.636-.457.364-.264.434-.434.279-.729-.054-.1-.163-.147-.333-.147-.21 0-.341.1-.868.636-.713.736-1.093 1.061-.597.503.186-.201.434-.589.558-.86.132-.31.325-.581.496-.713.287-.233.372-.52.163-.605-.217-.077-.543.303-.682.806a5.75 5.75 0 01-.318.837c-.388.768-1.511 1.566-2.364 1.682a3.775 3.775 0 01-.868-.038c-.635-.117-.883-.256-.325-.194.48.062.697.008.76-.194.069-.217-.164-.612-.365-.62-.031 0-.178.1-.318.233-.271.232-.581.294-.883.178-.109-.047-.078-.07.131-.101.24-.031.272-.062.272-.271 0-.21-.024-.233-.233-.217a4.102 4.102 0 01-.581-.031l-.349-.055.271-.038c.24-.039.272-.07.272-.28 0-.216-.016-.232-.287-.208-.28.023-.698-.132-.798-.287a3.49 3.49 0 01-.124-.504c-.163-.891.232-2.093.875-2.635.303-.263 1.124-.744 1.264-.736.046 0-.047.07-.202.147zm46.523.163c.55.279.666.666.325 1.077-.17.202-.24.233-.434.194-.279-.062-.45.07-.45.356 0 .248.18.38.52.38.465 0 .798-.442.798-1.046 0-.403-.147-.744-.403-.922-.093-.07-.14-.125-.093-.125.194 0 .721.481.876.791.225.465.21.636-.085.907-.225.209-.24.256-.17.45.092.278.387.325.674.1.534-.419.364-1.356-.365-2.046l-.317-.302.426.224c.752.404 1.186.985 1.395 1.884.093.403.07 1.286-.039 1.573-.078.194-.55.388-.806.333-.147-.03-.248-.008-.31.07-.17.202-.07.388.225.442.232.038.24.054.077.077a8.457 8.457 0 01-.535.023c-.224.008-.364.047-.418.14-.116.186.062.372.364.38.202 0 .217.015.086.07-.318.131-.628.085-.93-.156-.264-.209-.31-.224-.458-.131-.093.062-.17.209-.186.356-.03.334.21.442.79.341.233-.046.412-.054.396-.023-.077.124-.814.271-1.364.271-.496 0-.659-.038-1.093-.255-.976-.481-1.55-1.155-1.844-2.186-.194-.666-.45-.984-.705-.852-.217.123-.179.279.131.511.179.14.365.41.535.767.147.303.41.721.59.938.177.21.046.1-.288-.24-1-1.015-1.294-1.17-1.55-.775-.178.279-.085.442.512.845.302.209.558.395.573.426.016.023-.217.046-.519.046-.434.008-.659.055-1 .21l-.45.209.11-.21a3.94 3.94 0 00.2-.666c.171-.822-.03-1.496-.813-2.79-.271-.45-.473-.822-.434-.822.039 0 .109.055.163.117.124.147.79.349 1.155.349.224.007.255.015.147.085-.17.1-.186.558-.023.69.255.209 1.147-.117 1.712-.636.24-.217.35-.279.31-.178a3.603 3.603 0 00-.1.627c-.062.66.178 1.45.558 1.837.503.512.821.636 1.705.636.713 0 .806-.016 1.193-.233.473-.263.86-.728.86-1.046a.658.658 0 00-.163-.38c-.209-.217-.402-.163-.82.248-.334.341-.683.504-1.07.512l-.233.008.233-.117c.302-.155.503-.403.503-.612 0-.388-.418-.473-.79-.163-.17.147-.318.194-.59.194h-.363l.27-.14c.319-.154.38-.348.187-.565-.17-.186-.357-.186-.535.008-.201.224-.41.201-.473-.055-.085-.333.086-1.162.31-1.488.489-.705 1.52-.945 2.31-.542zM9.165 47.36c-.024.062-.047.039-.047-.046-.008-.086.016-.132.039-.101.023.023.031.093.008.147zm51.691.155c-.023.062-.046.039-.046-.047-.008-.085.015-.131.039-.1.023.023.03.093.008.147zm-14.678 6.347c.217.194.295.318.264.403-.078.194-.272.155-.527-.093-.178-.186-.225-.294-.225-.566.008-.279.016-.31.085-.178.047.085.225.28.403.434zm-21.847-.1c-.054.255-.418.635-.612.635-.054 0-.124-.062-.147-.132-.039-.085.062-.232.318-.48.201-.194.395-.334.433-.31.032.023.032.155.008.286z" fill="#F9EFD6"/><path d="M43.573 45.006c-.1.109-.131.333-.147.984l-.023.837-.372-.55c-.202-.31-.41-.558-.465-.558a.556.556 0 00-.24.116c-.148.109-.124.155.542 1.132.38.558.705 1.023.729 1.038.023.016.108-.023.186-.085.124-.085.155-.24.193-.976l.047-.868.38.558c.209.31.41.558.441.558.031 0 .132-.062.225-.14l.17-.14-.69-1c-.379-.55-.728-1.007-.766-1.022-.047-.016-.14.039-.21.116zm-17.219.418c-.954.334-1.194 1.612-.434 2.256.682.565 1.674.356 2.053-.442.318-.682.031-1.426-.69-1.76-.348-.162-.588-.17-.93-.054zm.813.566c.272.14.388.333.388.659 0 .666-.59 1.03-1.163.736-.286-.147-.387-.333-.387-.713.008-.62.604-.969 1.162-.682zm14.516.209c-.217.1-.217.116-.023.566.085.201.155.387.155.418 0 .047-.651.395-.744.395-.023 0-.124-.193-.225-.426-.108-.232-.209-.426-.224-.426-.093 0-.434.186-.434.232 0 .055 1 2.186 1.046 2.232.03.04.426-.162.426-.217 0-.03-.085-.255-.194-.488l-.186-.434.403-.186.403-.186.21.45c.116.255.232.457.255.457.047 0 .357-.147.419-.202.038-.03-1.023-2.278-1.07-2.27a.832.832 0 00-.217.085zm-13.337.256c-.124.263-.14.24.217.38l.302.123-.109.248c-.054.14-.224.527-.38.868-.154.334-.278.651-.278.706 0 .077.38.31.426.255.008-.015.201-.434.426-.937.225-.496.426-.907.457-.907.024.008.132.054.24.116.28.163.365.14.45-.1l.078-.218-.83-.364c-.45-.201-.844-.364-.868-.364-.023 0-.085.085-.131.194zm10.586.829l-.28.077-.046.512c-.023.286-.07.899-.093 1.356l-.046.837.217-.054c.325-.078.34-.093.34-.341 0-.21.04-.24.404-.35.519-.146.581-.146.682.04.085.155.31.193.566.093.108-.047.023-.217-.613-1.1-.41-.574-.767-1.07-.798-1.093-.023-.024-.17-.016-.333.023zm.511 1.092c.233.318.21.396-.124.473l-.217.047v-.48c0-.264.031-.45.062-.412.031.047.163.21.28.372zm-7.889-.658c-1.039 1.651-1.217 1.977-1.116 2.039a.39.39 0 00.55-.117c.116-.178.14-.178.566-.093.395.078.457.117.519.318.046.132.116.256.163.287.108.077.434.077.434 0 0-.155-.326-2.534-.35-2.558a1.752 1.752 0 00-.31-.093c-.263-.062-.286-.046-.456.217zm.41 1.085l.008.341-.248-.054a1.913 1.913 0 01-.279-.077c-.015-.016.07-.21.186-.427.248-.45.326-.395.333.217zm5.231-1.053c-.038.054-.178.34-.325.635-.14.294-.28.504-.318.465a52.563 52.563 0 01-.426-.55c-.341-.457-.38-.48-.612-.434-.14.023-.248.046-.256.054 0 .008.046.566.116 1.248l.124 1.24.233-.023c.124-.016.248-.04.263-.055.016-.015-.008-.364-.039-.775-.038-.403-.07-.736-.062-.736.016 0 .186.225.388.504.201.279.395.504.418.504.031 0 .178-.264.326-.582l.279-.589.046.489c.109 1.046.117 1.069.349 1.069.116 0 .233-.015.248-.031.023-.023-.016-.589-.085-1.263l-.117-1.225-.247-.023c-.14-.015-.272.016-.303.078zm-3.936.588c-.024.325-.07.899-.093 1.271l-.047.682h.558v-.775h.419c.34 0 .465-.039.658-.201a.821.821 0 00.217-1.008c-.162-.333-.434-.465-1.108-.527l-.558-.047-.046.605zm1.147.062c.294.294.046.69-.403.636-.194-.024-.21-.055-.233-.396l-.023-.364h.271c.147 0 .326.054.388.124zm-.434 7.432c-.93.256-2.519 1.17-3.209 1.86-.65.636-.798 1.054-.89 2.441-.094 1.59-.078 2.62.046 3.17.41 1.713 1.558 2.62 4.223 3.317 1.271.325 2.45.155 3.395-.496.945-.643 2.038-1.829 2.449-2.635.287-.573.34-1.162.271-2.751-.1-2.108-.325-2.883-1.03-3.612-.388-.41-.783-.62-1.783-.937-1.48-.473-2.627-.59-3.472-.357zm1.953.907c0 .1-.178.039-.217-.078-.015-.054.016-.077.093-.046.07.023.124.085.124.124zm-2.364.14c-.023.038-.116.077-.194.077-.077 0-.17-.039-.193-.078-.031-.046.054-.077.194-.077.139 0 .224.03.193.077zm1.473.085c.03.046.038.1.015.116-.054.062-.441-.054-.441-.132 0-.1.364-.085.426.016zm2.208.147c0 .039-.054.077-.116.077-.062 0-.116-.038-.116-.077 0-.047.054-.078.116-.078.062 0 .116.031.116.078zm1.318.31c.046.085.054.155.015.155-.077 0-.248-.163-.248-.248 0-.124.148-.062.233.093zm-4.952.271c.744.155 1.89.52 2.278.72.581.295 1.077.993 1.279 1.799.14.542.194 4.247.077 4.619a2.038 2.038 0 01-1.735 1.403c-.752.077-2.496-.419-3.457-.985-.604-.349-1.14-.899-1.387-1.418-.295-.612-.357-1.317-.264-3.1.07-1.45.101-1.62.28-2 .209-.433.294-.557.573-.79.426-.364 1.34-.457 2.356-.248zm5.068.473c.07.108.109.256.078.325-.04.109-.078.078-.194-.14a1.717 1.717 0 01-.155-.332c0-.124.147-.047.271.147zm-.752.1c.024.063-.007.094-.07.07a.221.221 0 01-.131-.131c-.023-.062.008-.093.07-.07a.222.222 0 01.131.132zm-.108.706c-.1.1-.38-.186-.302-.31.038-.07.108-.047.217.07.116.108.14.186.085.24zm.744 2.178c0 .077-.031.147-.078.147-.038 0-.077-.093-.077-.202 0-.108.03-.178.077-.147.047.023.078.116.078.202zm-.434.434c.093.596.03 1.31-.116 1.216-.093-.054-.093-1.503 0-1.503.03 0 .085.132.116.287zm1.24 1.441c-.023.07-.078.132-.116.132-.086 0-.093-.264-.016-.341.085-.085.186.07.132.21zm-.496.233c0 .1-.054.248-.116.333-.124.162-.14.093-.07-.272.062-.278.186-.325.186-.061z" fill="#F9EFD6"/><path d="M32.375 58.521c-.132.132-.116.341.031.489.17.17.333.023.186-.155-.078-.093-.078-.148-.015-.21.054-.054.093-.124.093-.155 0-.093-.187-.077-.295.031zm-.627.286c-.093.093-.163.194-.163.24 0 .04.07.148.163.24.124.125.186.14.256.07.062-.061.046-.116-.07-.2-.155-.117-.155-.117-.008-.233.116-.078.132-.132.07-.194s-.132-.039-.248.077zm2.604.148a.469.469 0 00-.132.263c0 .17.209.318.356.264.117-.047.117-.062-.008-.202-.147-.163-.154-.155.256-.279.047-.015.093-.062.093-.108 0-.132-.434-.086-.566.062zm-1.667.759c-.286.07-.69.512-.79.876-.047.178-.093.69-.093 1.132-.008.674.023.852.163 1.154.302.62.976 1.031 2.03 1.233.403.07.473.062.814-.109.287-.14.426-.271.558-.535.17-.325.178-.418.147-1.356-.03-1.116-.108-1.403-.511-1.806-.388-.387-1.705-.72-2.318-.589zm1.093.62c.643.148.992.434 1.132.923.1.38.116 1.743.007 1.743-.108 0-.255-.612-.201-.868.062-.333-.093-.953-.295-1.139-.108-.1-.38-.201-.728-.271-.574-.109-.79-.217-.79-.403 0-.14.193-.14.875.015zm-1.054.512c.031.054.062.457.062.891v.79l.295.295c.155.17.286.364.286.434 0 .124-.023.124-.302-.023-.496-.248-.666-.558-.682-1.24-.008-.318 0-.52.023-.45.062.21.28.179.248-.038-.015-.109-.07-.163-.162-.163-.101.008-.132-.047-.132-.233 0-.14.023-.279.054-.302.078-.085.24-.062.31.039zm1.34.333c.249.124.342.349.295.705-.023.202-.054.225-.34.248-.272.024-.35-.007-.489-.186-.155-.201-.225-.713-.108-.829.085-.093.41-.062.643.062zm-.48 1.34c.04.133-.255.117-.372-.022-.147-.17-.015-.303.179-.17.085.053.178.146.193.193zm.86.42c.132.426.078.604-.178.604-.333 0-.496-.62-.232-.891.186-.179.287-.109.41.286z" fill="#F9EFD6"/><path d="M33.801 61.435c-.015.031-.007.109.031.163.078.132.24.039.179-.108-.047-.125-.148-.156-.21-.055zm-.201.241c0 .163.1.318.201.318.132 0 .14-.17.016-.295-.109-.108-.217-.124-.217-.023zm.48 1.526a.24.24 0 00.124.17c.07.024.1-.015.077-.108a.24.24 0 00-.124-.17c-.07-.024-.1.015-.077.108zm2.007-2.325c-.077.17-.07.24.031.388.062.1.17.186.233.186.14 0 .155-.124.03-.202-.053-.03-.069-.163-.046-.31.054-.325-.108-.364-.248-.062zm-5.184 1.132c-.131.131-.116.418.031.558.217.224.419.108.21-.124-.109-.124-.117-.179-.04-.295a.647.647 0 00.094-.194c0-.077-.202-.038-.295.055zm5.099.48c0 .123.054.209.163.24.217.07.24.023.124-.217-.117-.264-.287-.272-.287-.023zm-3.882 1.488c-.14.163 0 .373.27.404.218.03.28-.117.086-.186A.235.235 0 0132.36 64c0-.179-.101-.186-.24-.024zm3.495.372c-.147.186-.062.473.147.496.256.039.41-.132.178-.186-.178-.054-.224-.147-.093-.225.086-.054.031-.194-.07-.194-.038 0-.108.055-.162.109zm-2.185.131c-.303.171-.086.776.224.652.132-.047.132-.054.008-.147-.17-.124-.179-.233-.024-.357.062-.054.093-.124.07-.163-.054-.085-.116-.085-.279.016z" fill="#F9EFD6"/></svg>